<svg xmlns="http://www.w3.org/2000/svg" xml:space="preserve" width="848" height="848"><path fill="#FFF" d="M0 0h848v848H0z"/><defs transform="translate(32 32)"><linearGradient id="a" gradientTransform="rotate(90)"><stop offset="5%"/><stop offset="95%" stop-color="#0277BD"/></linearGradient><mask id="b"><path d="M0 0h100v100H0z" style="fill:#fff" transform="translate(160)scale(.16)"/><path d="M0 0h100v100H0z" style="fill:#fff" transform="translate(176)scale(.16)"/><path d="M0 0h100v100H0z" style="fill:#fff" transform="translate(208)scale(.16)"/><path d="M0 0h100v100H0z" style="fill:#fff" transform="translate(256)scale(.16)"/><path d="M0 0h100v100H0z" style="fill:#fff" transform="translate(304)scale(.16)"/><path d="M0 0h100v100H0z" style="fill:#fff" transform="translate(336)scale(.16)"/><path d="M0 0h100v100H0z" style="fill:#fff" transform="translate(352)scale(.16)"/><path d="M0 0h100v100H0z" style="fill:#fff" transform="translate(368)scale(.16)"/><path d="M0 0h100v100H0z" style="fill:#fff" transform="translate(384)scale(.16)"/><path d="M0 0h100v100H0z" style="fill:#fff" transform="translate(416)scale(.16)"/><path d="M0 0h100v100H0z" style="fill:#fff" transform="translate(448)scale(.16)"/><path d="M0 0h100v100H0z" style="fill:#fff" transform="translate(496)scale(.16)"/><path d="M0 0h100v100H0z" style="fill:#fff" transform="translate(512)scale(.16)"/><path d="M0 0h100v100H0z" style="fill:#fff" transform="translate(560)scale(.16)"/><path d="M0 0h100v100H0z" style="fill:#fff" transform="translate(592)scale(.16)"/><path d="M0 0h100v100H0z" style="fill:#fff" transform="translate(640)scale(.16)"/><path d="M0 0h100v100H0z" style="fill:#fff" transform="matrix(.16 0 0 .16 144 16)"/><path d="M0 0h100v100H0z" style="fill:#fff" transform="matrix(.16 0 0 .16 160 16)"/><path d="M0 0h100v100H0z" style="fill:#fff" transform="matrix(.16 0 0 .16 208 16)"/><path d="M0 0h100v100H0z" style="fill:#fff" transform="matrix(.16 0 0 .16 224 16)"/><path d="M0 0h100v100H0z" style="fill:#fff" transform="matrix(.16 0 0 .16 240 16)"/><path d="M0 0h100v100H0z" style="fill:#fff" transform="matrix(.16 0 0 .16 256 16)"/><path d="M0 0h100v100H0z" style="fill:#fff" transform="matrix(.16 0 0 .16 320 16)"/><path d="M0 0h100v100H0z" style="fill:#fff" transform="matrix(.16 0 0 .16 352 16)"/><path d="M0 0h100v100H0z" style="fill:#fff" transform="matrix(.16 0 0 .16 368 16)"/><path d="M0 0h100v100H0z" style="fill:#fff" transform="matrix(.16 0 0 .16 400 16)"/><path d="M0 0h100v100H0z" style="fill:#fff" transform="matrix(.16 0 0 .16 416 16)"/><path d="M0 0h100v100H0z" style="fill:#fff" transform="matrix(.16 0 0 .16 448 16)"/><path d="M0 0h100v100H0z" style="fill:#fff" transform="matrix(.16 0 0 .16 496 16)"/><path d="M0 0h100v100H0z" style="fill:#fff" transform="matrix(.16 0 0 .16 512 16)"/><path d="M0 0h100v100H0z" style="fill:#fff" transform="matrix(.16 0 0 .16 544 16)"/><path d="M0 0h100v100H0z" style="fill:#fff" transform="matrix(.16 0 0 .16 592 16)"/><path d="M0 0h100v100H0z" style="fill:#fff" transform="matrix(.16 0 0 .16 608 16)"/><path d="M0 0h100v100H0z" style="fill:#fff" transform="matrix(.16 0 0 .16 624 16)"/><path d="M0 0h100v100H0z" style="fill:#fff" transform="matrix(.16 0 0 .16 640 16)"/><path d="M0 0h100v100H0z" style="fill:#fff" transform="matrix(.16 0 0 .16 144 32)"/><path d="M0 0h100v100H0z" style="fill:#fff" transform="matrix(.16 0 0 .16 176 32)"/><path d="M0 0h100v100H0z" style="fill:#fff" transform="matrix(.16 0 0 .16 192 32)"/><path d="M0 0h100v100H0z" style="fill:#fff" transform="matrix(.16 0 0 .16 208 32)"/><path d="M0 0h100v100H0z" style="fill:#fff" transform="matrix(.16 0 0 .16 224 32)"/><path d="M0 0h100v100H0z" style="fill:#fff" transform="matrix(.16 0 0 .16 240 32)"/><path d="M0 0h100v100H0z" style="fill:#fff" transform="matrix(.16 0 0 .16 256 32)"/><path d="M0 0h100v100H0z" style="fill:#fff" transform="matrix(.16 0 0 .16 272 32)"/><path d="M0 0h100v100H0z" style="fill:#fff" transform="matrix(.16 0 0 .16 288 32)"/><path d="M0 0h100v100H0z" style="fill:#fff" transform="matrix(.16 0 0 .16 304 32)"/><path d="M0 0h100v100H0z" style="fill:#fff" transform="matrix(.16 0 0 .16 336 32)"/><path d="M0 0h100v100H0z" style="fill:#fff" transform="matrix(.16 0 0 .16 384 32)"/><path d="M0 0h100v100H0z" style="fill:#fff" transform="matrix(.16 0 0 .16 400 32)"/><path d="M0 0h100v100H0z" style="fill:#fff" transform="matrix(.16 0 0 .16 432 32)"/><path d="M0 0h100v100H0z" style="fill:#fff" transform="matrix(.16 0 0 .16 448 32)"/><path d="M0 0h100v100H0z" style="fill:#fff" transform="matrix(.16 0 0 .16 464 32)"/><path d="M0 0h100v100H0z" style="fill:#fff" transform="matrix(.16 0 0 .16 528 32)"/><path d="M0 0h100v100H0z" style="fill:#fff" transform="matrix(.16 0 0 .16 544 32)"/><path d="M0 0h100v100H0z" style="fill:#fff" transform="matrix(.16 0 0 .16 576 32)"/><path d="M0 0h100v100H0z" style="fill:#fff" transform="matrix(.16 0 0 .16 592 32)"/><path d="M0 0h100v100H0z" style="fill:#fff" transform="matrix(.16 0 0 .16 624 32)"/><path d="M0 0h100v100H0z" style="fill:#fff" transform="matrix(.16 0 0 .16 640 32)"/><path d="M0 0h100v100H0z" style="fill:#fff" transform="matrix(.16 0 0 .16 144 48)"/><path d="M0 0h100v100H0z" style="fill:#fff" transform="matrix(.16 0 0 .16 208 48)"/><path d="M0 0h100v100H0z" style="fill:#fff" transform="matrix(.16 0 0 .16 224 48)"/><path d="M0 0h100v100H0z" style="fill:#fff" transform="matrix(.16 0 0 .16 272 48)"/><path d="M0 0h100v100H0z" style="fill:#fff" transform="matrix(.16 0 0 .16 288 48)"/><path d="M0 0h100v100H0z" style="fill:#fff" transform="matrix(.16 0 0 .16 304 48)"/><path d="M0 0h100v100H0z" style="fill:#fff" transform="matrix(.16 0 0 .16 320 48)"/><path d="M0 0h100v100H0z" style="fill:#fff" transform="matrix(.16 0 0 .16 352 48)"/><path d="M0 0h100v100H0z" style="fill:#fff" transform="matrix(.16 0 0 .16 400 48)"/><path d="M0 0h100v100H0z" style="fill:#fff" transform="matrix(.16 0 0 .16 432 48)"/><path d="M0 0h100v100H0z" style="fill:#fff" transform="matrix(.16 0 0 .16 448 48)"/><path d="M0 0h100v100H0z" style="fill:#fff" transform="matrix(.16 0 0 .16 496 48)"/><path d="M0 0h100v100H0z" style="fill:#fff" transform="matrix(.16 0 0 .16 512 48)"/><path d="M0 0h100v100H0z" style="fill:#fff" transform="matrix(.16 0 0 .16 560 48)"/><path d="M0 0h100v100H0z" style="fill:#fff" transform="matrix(.16 0 0 .16 576 48)"/><path d="M0 0h100v100H0z" style="fill:#fff" transform="matrix(.16 0 0 .16 592 48)"/><path d="M0 0h100v100H0z" style="fill:#fff" transform="matrix(.16 0 0 .16 624 48)"/><path d="M0 0h100v100H0z" style="fill:#fff" transform="matrix(.16 0 0 .16 128 64)"/><path d="M0 0h100v100H0z" style="fill:#fff" transform="matrix(.16 0 0 .16 144 64)"/><path d="M0 0h100v100H0z" style="fill:#fff" transform="matrix(.16 0 0 .16 160 64)"/><path d="M0 0h100v100H0z" style="fill:#fff" transform="matrix(.16 0 0 .16 176 64)"/><path d="M0 0h100v100H0z" style="fill:#fff" transform="matrix(.16 0 0 .16 272 64)"/><path d="M0 0h100v100H0z" style="fill:#fff" transform="matrix(.16 0 0 .16 304 64)"/><path d="M0 0h100v100H0z" style="fill:#fff" transform="matrix(.16 0 0 .16 336 64)"/><path d="M0 0h100v100H0z" style="fill:#fff" transform="matrix(.16 0 0 .16 352 64)"/><path d="M0 0h100v100H0z" style="fill:#fff" transform="matrix(.16 0 0 .16 368 64)"/><path d="M0 0h100v100H0z" style="fill:#fff" transform="matrix(.16 0 0 .16 384 64)"/><path d="M0 0h100v100H0z" style="fill:#fff" transform="matrix(.16 0 0 .16 400 64)"/><path d="M0 0h100v100H0z" style="fill:#fff" transform="matrix(.16 0 0 .16 416 64)"/><path d="M0 0h100v100H0z" style="fill:#fff" transform="matrix(.16 0 0 .16 432 64)"/><path d="M0 0h100v100H0z" style="fill:#fff" transform="matrix(.16 0 0 .16 464 64)"/><path d="M0 0h100v100H0z" style="fill:#fff" transform="matrix(.16 0 0 .16 480 64)"/><path d="M0 0h100v100H0z" style="fill:#fff" transform="matrix(.16 0 0 .16 496 64)"/><path d="M0 0h100v100H0z" style="fill:#fff" transform="matrix(.16 0 0 .16 512 64)"/><path d="M0 0h100v100H0z" style="fill:#fff" transform="matrix(.16 0 0 .16 528 64)"/><path d="M0 0h100v100H0z" style="fill:#fff" transform="matrix(.16 0 0 .16 560 64)"/><path d="M0 0h100v100H0z" style="fill:#fff" transform="matrix(.16 0 0 .16 592 64)"/><path d="M0 0h100v100H0z" style="fill:#fff" transform="matrix(.16 0 0 .16 144 80)"/><path d="M0 0h100v100H0z" style="fill:#fff" transform="matrix(.16 0 0 .16 192 80)"/><path d="M0 0h100v100H0z" style="fill:#fff" transform="matrix(.16 0 0 .16 208 80)"/><path d="M0 0h100v100H0z" style="fill:#fff" transform="matrix(.16 0 0 .16 240 80)"/><path d="M0 0h100v100H0z" style="fill:#fff" transform="matrix(.16 0 0 .16 288 80)"/><path d="M0 0h100v100H0z" style="fill:#fff" transform="matrix(.16 0 0 .16 336 80)"/><path d="M0 0h100v100H0z" style="fill:#fff" transform="matrix(.16 0 0 .16 352 80)"/><path d="M0 0h100v100H0z" style="fill:#fff" transform="matrix(.16 0 0 .16 416 80)"/><path d="M0 0h100v100H0z" style="fill:#fff" transform="matrix(.16 0 0 .16 432 80)"/><path d="M0 0h100v100H0z" style="fill:#fff" transform="matrix(.16 0 0 .16 464 80)"/><path d="M0 0h100v100H0z" style="fill:#fff" transform="matrix(.16 0 0 .16 512 80)"/><path d="M0 0h100v100H0z" style="fill:#fff" transform="matrix(.16 0 0 .16 560 80)"/><path d="M0 0h100v100H0z" style="fill:#fff" transform="matrix(.16 0 0 .16 576 80)"/><path d="M0 0h100v100H0z" style="fill:#fff" transform="matrix(.16 0 0 .16 608 80)"/><path d="M0 0h100v100H0z" style="fill:#fff" transform="matrix(.16 0 0 .16 128 96)"/><path d="M0 0h100v100H0z" style="fill:#fff" transform="matrix(.16 0 0 .16 160 96)"/><path d="M0 0h100v100H0z" style="fill:#fff" transform="matrix(.16 0 0 .16 192 96)"/><path d="M0 0h100v100H0z" style="fill:#fff" transform="matrix(.16 0 0 .16 224 96)"/><path d="M0 0h100v100H0z" style="fill:#fff" transform="matrix(.16 0 0 .16 256 96)"/><path d="M0 0h100v100H0z" style="fill:#fff" transform="matrix(.16 0 0 .16 288 96)"/><path d="M0 0h100v100H0z" style="fill:#fff" transform="matrix(.16 0 0 .16 320 96)"/><path d="M0 0h100v100H0z" style="fill:#fff" transform="matrix(.16 0 0 .16 352 96)"/><path d="M0 0h100v100H0z" style="fill:#fff" transform="matrix(.16 0 0 .16 384 96)"/><path d="M0 0h100v100H0z" style="fill:#fff" transform="matrix(.16 0 0 .16 416 96)"/><path d="M0 0h100v100H0z" style="fill:#fff" transform="matrix(.16 0 0 .16 448 96)"/><path d="M0 0h100v100H0z" style="fill:#fff" transform="matrix(.16 0 0 .16 480 96)"/><path d="M0 0h100v100H0z" style="fill:#fff" transform="matrix(.16 0 0 .16 512 96)"/><path d="M0 0h100v100H0z" style="fill:#fff" transform="matrix(.16 0 0 .16 544 96)"/><path d="M0 0h100v100H0z" style="fill:#fff" transform="matrix(.16 0 0 .16 576 96)"/><path d="M0 0h100v100H0z" style="fill:#fff" transform="matrix(.16 0 0 .16 608 96)"/><path d="M0 0h100v100H0z" style="fill:#fff" transform="matrix(.16 0 0 .16 640 96)"/><path d="M0 0h100v100H0z" style="fill:#fff" transform="matrix(.16 0 0 .16 128 112)"/><path d="M0 0h100v100H0z" style="fill:#fff" transform="matrix(.16 0 0 .16 144 112)"/><path d="M0 0h100v100H0z" style="fill:#fff" transform="matrix(.16 0 0 .16 224 112)"/><path d="M0 0h100v100H0z" style="fill:#fff" transform="matrix(.16 0 0 .16 240 112)"/><path d="M0 0h100v100H0z" style="fill:#fff" transform="matrix(.16 0 0 .16 256 112)"/><path d="M0 0h100v100H0z" style="fill:#fff" transform="matrix(.16 0 0 .16 272 112)"/><path d="M0 0h100v100H0z" style="fill:#fff" transform="matrix(.16 0 0 .16 288 112)"/><path d="M0 0h100v100H0z" style="fill:#fff" transform="matrix(.16 0 0 .16 304 112)"/><path d="M0 0h100v100H0z" style="fill:#fff" transform="matrix(.16 0 0 .16 352 112)"/><path d="M0 0h100v100H0z" style="fill:#fff" transform="matrix(.16 0 0 .16 416 112)"/><path d="M0 0h100v100H0z" style="fill:#fff" transform="matrix(.16 0 0 .16 432 112)"/><path d="M0 0h100v100H0z" style="fill:#fff" transform="matrix(.16 0 0 .16 448 112)"/><path d="M0 0h100v100H0z" style="fill:#fff" transform="matrix(.16 0 0 .16 512 112)"/><path d="M0 0h100v100H0z" style="fill:#fff" transform="matrix(.16 0 0 .16 528 112)"/><path d="M0 0h100v100H0z" style="fill:#fff" transform="matrix(.16 0 0 .16 544 112)"/><path d="M0 0h100v100H0z" style="fill:#fff" transform="matrix(.16 0 0 .16 32 128)"/><path d="M0 0h100v100H0z" style="fill:#fff" transform="matrix(.16 0 0 .16 48 128)"/><path d="M0 0h100v100H0z" style="fill:#fff" transform="matrix(.16 0 0 .16 96 128)"/><path d="M0 0h100v100H0z" style="fill:#fff" transform="matrix(.16 0 0 .16 112 128)"/><path d="M0 0h100v100H0z" style="fill:#fff" transform="matrix(.16 0 0 .16 128 128)"/><path d="M0 0h100v100H0z" style="fill:#fff" transform="matrix(.16 0 0 .16 176 128)"/><path d="M0 0h100v100H0z" style="fill:#fff" transform="matrix(.16 0 0 .16 192 128)"/><path d="M0 0h100v100H0z" style="fill:#fff" transform="matrix(.16 0 0 .16 224 128)"/><path d="M0 0h100v100H0z" style="fill:#fff" transform="matrix(.16 0 0 .16 272 128)"/><path d="M0 0h100v100H0z" style="fill:#fff" transform="matrix(.16 0 0 .16 288 128)"/><path d="M0 0h100v100H0z" style="fill:#fff" transform="matrix(.16 0 0 .16 304 128)"/><path d="M0 0h100v100H0z" style="fill:#fff" transform="matrix(.16 0 0 .16 352 128)"/><path d="M0 0h100v100H0z" style="fill:#fff" transform="matrix(.16 0 0 .16 368 128)"/><path d="M0 0h100v100H0z" style="fill:#fff" transform="matrix(.16 0 0 .16 384 128)"/><path d="M0 0h100v100H0z" style="fill:#fff" transform="matrix(.16 0 0 .16 400 128)"/><path d="M0 0h100v100H0z" style="fill:#fff" transform="matrix(.16 0 0 .16 416 128)"/><path d="M0 0h100v100H0z" style="fill:#fff" transform="matrix(.16 0 0 .16 448 128)"/><path d="M0 0h100v100H0z" style="fill:#fff" transform="matrix(.16 0 0 .16 480 128)"/><path d="M0 0h100v100H0z" style="fill:#fff" transform="matrix(.16 0 0 .16 496 128)"/><path d="M0 0h100v100H0z" style="fill:#fff" transform="matrix(.16 0 0 .16 544 128)"/><path d="M0 0h100v100H0z" style="fill:#fff" transform="matrix(.16 0 0 .16 656 128)"/><path d="M0 0h100v100H0z" style="fill:#fff" transform="matrix(.16 0 0 .16 672 128)"/><path d="M0 0h100v100H0z" style="fill:#fff" transform="matrix(.16 0 0 .16 704 128)"/><path d="M0 0h100v100H0z" style="fill:#fff" transform="matrix(.16 0 0 .16 0 144)"/><path d="M0 0h100v100H0z" style="fill:#fff" transform="matrix(.16 0 0 .16 64 144)"/><path d="M0 0h100v100H0z" style="fill:#fff" transform="matrix(.16 0 0 .16 80 144)"/><path d="M0 0h100v100H0z" style="fill:#fff" transform="matrix(.16 0 0 .16 160 144)"/><path d="M0 0h100v100H0z" style="fill:#fff" transform="matrix(.16 0 0 .16 176 144)"/><path d="M0 0h100v100H0z" style="fill:#fff" transform="matrix(.16 0 0 .16 192 144)"/><path d="M0 0h100v100H0z" style="fill:#fff" transform="matrix(.16 0 0 .16 240 144)"/><path d="M0 0h100v100H0z" style="fill:#fff" transform="matrix(.16 0 0 .16 256 144)"/><path d="M0 0h100v100H0z" style="fill:#fff" transform="matrix(.16 0 0 .16 272 144)"/><path d="M0 0h100v100H0z" style="fill:#fff" transform="matrix(.16 0 0 .16 288 144)"/><path d="M0 0h100v100H0z" style="fill:#fff" transform="matrix(.16 0 0 .16 304 144)"/><path d="M0 0h100v100H0z" style="fill:#fff" transform="matrix(.16 0 0 .16 352 144)"/><path d="M0 0h100v100H0z" style="fill:#fff" transform="matrix(.16 0 0 .16 368 144)"/><path d="M0 0h100v100H0z" style="fill:#fff" transform="matrix(.16 0 0 .16 400 144)"/><path d="M0 0h100v100H0z" style="fill:#fff" transform="matrix(.16 0 0 .16 416 144)"/><path d="M0 0h100v100H0z" style="fill:#fff" transform="matrix(.16 0 0 .16 448 144)"/><path d="M0 0h100v100H0z" style="fill:#fff" transform="matrix(.16 0 0 .16 464 144)"/><path d="M0 0h100v100H0z" style="fill:#fff" transform="matrix(.16 0 0 .16 512 144)"/><path d="M0 0h100v100H0z" style="fill:#fff" transform="matrix(.16 0 0 .16 528 144)"/><path d="M0 0h100v100H0z" style="fill:#fff" transform="matrix(.16 0 0 .16 544 144)"/><path d="M0 0h100v100H0z" style="fill:#fff" transform="matrix(.16 0 0 .16 560 144)"/><path d="M0 0h100v100H0z" style="fill:#fff" transform="matrix(.16 0 0 .16 576 144)"/><path d="M0 0h100v100H0z" style="fill:#fff" transform="matrix(.16 0 0 .16 592 144)"/><path d="M0 0h100v100H0z" style="fill:#fff" transform="matrix(.16 0 0 .16 608 144)"/><path d="M0 0h100v100H0z" style="fill:#fff" transform="matrix(.16 0 0 .16 656 144)"/><path d="M0 0h100v100H0z" style="fill:#fff" transform="matrix(.16 0 0 .16 736 144)"/><path d="M0 0h100v100H0z" style="fill:#fff" transform="matrix(.16 0 0 .16 0 160)"/><path d="M0 0h100v100H0z" style="fill:#fff" transform="matrix(.16 0 0 .16 16 160)"/><path d="M0 0h100v100H0z" style="fill:#fff" transform="matrix(.16 0 0 .16 32 160)"/><path d="M0 0h100v100H0z" style="fill:#fff" transform="matrix(.16 0 0 .16 48 160)"/><path d="M0 0h100v100H0z" style="fill:#fff" transform="matrix(.16 0 0 .16 64 160)"/><path d="M0 0h100v100H0z" style="fill:#fff" transform="matrix(.16 0 0 .16 80 160)"/><path d="M0 0h100v100H0z" style="fill:#fff" transform="matrix(.16 0 0 .16 96 160)"/><path d="M0 0h100v100H0z" style="fill:#fff" transform="matrix(.16 0 0 .16 128 160)"/><path d="M0 0h100v100H0z" style="fill:#fff" transform="matrix(.16 0 0 .16 160 160)"/><path d="M0 0h100v100H0z" style="fill:#fff" transform="matrix(.16 0 0 .16 208 160)"/><path d="M0 0h100v100H0z" style="fill:#fff" transform="matrix(.16 0 0 .16 224 160)"/><path d="M0 0h100v100H0z" style="fill:#fff" transform="matrix(.16 0 0 .16 240 160)"/><path d="M0 0h100v100H0z" style="fill:#fff" transform="matrix(.16 0 0 .16 256 160)"/><path d="M0 0h100v100H0z" style="fill:#fff" transform="matrix(.16 0 0 .16 288 160)"/><path d="M0 0h100v100H0z" style="fill:#fff" transform="matrix(.16 0 0 .16 304 160)"/><path d="M0 0h100v100H0z" style="fill:#fff" transform="matrix(.16 0 0 .16 320 160)"/><path d="M0 0h100v100H0z" style="fill:#fff" transform="matrix(.16 0 0 .16 352 160)"/><path d="M0 0h100v100H0z" style="fill:#fff" transform="matrix(.16 0 0 .16 368 160)"/><path d="M0 0h100v100H0z" style="fill:#fff" transform="matrix(.16 0 0 .16 384 160)"/><path d="M0 0h100v100H0z" style="fill:#fff" transform="matrix(.16 0 0 .16 400 160)"/><path d="M0 0h100v100H0z" style="fill:#fff" transform="matrix(.16 0 0 .16 432 160)"/><path d="M0 0h100v100H0z" style="fill:#fff" transform="matrix(.16 0 0 .16 448 160)"/><path d="M0 0h100v100H0z" style="fill:#fff" transform="matrix(.16 0 0 .16 480 160)"/><path d="M0 0h100v100H0z" style="fill:#fff" transform="matrix(.16 0 0 .16 496 160)"/><path d="M0 0h100v100H0z" style="fill:#fff" transform="matrix(.16 0 0 .16 528 160)"/><path d="M0 0h100v100H0z" style="fill:#fff" transform="matrix(.16 0 0 .16 560 160)"/><path d="M0 0h100v100H0z" style="fill:#fff" transform="matrix(.16 0 0 .16 624 160)"/><path d="M0 0h100v100H0z" style="fill:#fff" transform="matrix(.16 0 0 .16 640 160)"/><path d="M0 0h100v100H0z" style="fill:#fff" transform="matrix(.16 0 0 .16 656 160)"/><path d="M0 0h100v100H0z" style="fill:#fff" transform="matrix(.16 0 0 .16 672 160)"/><path d="M0 0h100v100H0z" style="fill:#fff" transform="matrix(.16 0 0 .16 704 160)"/><path d="M0 0h100v100H0z" style="fill:#fff" transform="matrix(.16 0 0 .16 720 160)"/><path d="M0 0h100v100H0z" style="fill:#fff" transform="matrix(.16 0 0 .16 768 160)"/><path d="M0 0h100v100H0z" style="fill:#fff" transform="matrix(.16 0 0 .16 0 176)"/><path d="M0 0h100v100H0z" style="fill:#fff" transform="matrix(.16 0 0 .16 48 176)"/><path d="M0 0h100v100H0z" style="fill:#fff" transform="matrix(.16 0 0 .16 64 176)"/><path d="M0 0h100v100H0z" style="fill:#fff" transform="matrix(.16 0 0 .16 112 176)"/><path d="M0 0h100v100H0z" style="fill:#fff" transform="matrix(.16 0 0 .16 128 176)"/><path d="M0 0h100v100H0z" style="fill:#fff" transform="matrix(.16 0 0 .16 144 176)"/><path d="M0 0h100v100H0z" style="fill:#fff" transform="matrix(.16 0 0 .16 176 176)"/><path d="M0 0h100v100H0z" style="fill:#fff" transform="matrix(.16 0 0 .16 272 176)"/><path d="M0 0h100v100H0z" style="fill:#fff" transform="matrix(.16 0 0 .16 304 176)"/><path d="M0 0h100v100H0z" style="fill:#fff" transform="matrix(.16 0 0 .16 400 176)"/><path d="M0 0h100v100H0z" style="fill:#fff" transform="matrix(.16 0 0 .16 416 176)"/><path d="M0 0h100v100H0z" style="fill:#fff" transform="matrix(.16 0 0 .16 432 176)"/><path d="M0 0h100v100H0z" style="fill:#fff" transform="matrix(.16 0 0 .16 528 176)"/><path d="M0 0h100v100H0z" style="fill:#fff" transform="matrix(.16 0 0 .16 560 176)"/><path d="M0 0h100v100H0z" style="fill:#fff" transform="matrix(.16 0 0 .16 592 176)"/><path d="M0 0h100v100H0z" style="fill:#fff" transform="matrix(.16 0 0 .16 608 176)"/><path d="M0 0h100v100H0z" style="fill:#fff" transform="matrix(.16 0 0 .16 624 176)"/><path d="M0 0h100v100H0z" style="fill:#fff" transform="matrix(.16 0 0 .16 672 176)"/><path d="M0 0h100v100H0z" style="fill:#fff" transform="matrix(.16 0 0 .16 688 176)"/><path d="M0 0h100v100H0z" style="fill:#fff" transform="matrix(.16 0 0 .16 704 176)"/><path d="M0 0h100v100H0z" style="fill:#fff" transform="matrix(.16 0 0 .16 752 176)"/><path d="M0 0h100v100H0z" style="fill:#fff" transform="matrix(.16 0 0 .16 768 176)"/><path d="M0 0h100v100H0z" style="fill:#fff" transform="matrix(.16 0 0 .16 0 192)"/><path d="M0 0h100v100H0z" style="fill:#fff" transform="matrix(.16 0 0 .16 96 192)"/><path d="M0 0h100v100H0z" style="fill:#fff" transform="matrix(.16 0 0 .16 144 192)"/><path d="M0 0h100v100H0z" style="fill:#fff" transform="matrix(.16 0 0 .16 208 192)"/><path d="M0 0h100v100H0z" style="fill:#fff" transform="matrix(.16 0 0 .16 224 192)"/><path d="M0 0h100v100H0z" style="fill:#fff" transform="matrix(.16 0 0 .16 256 192)"/><path d="M0 0h100v100H0z" style="fill:#fff" transform="matrix(.16 0 0 .16 288 192)"/><path d="M0 0h100v100H0z" style="fill:#fff" transform="matrix(.16 0 0 .16 320 192)"/><path d="M0 0h100v100H0z" style="fill:#fff" transform="matrix(.16 0 0 .16 368 192)"/><path d="M0 0h100v100H0z" style="fill:#fff" transform="matrix(.16 0 0 .16 384 192)"/><path d="M0 0h100v100H0z" style="fill:#fff" transform="matrix(.16 0 0 .16 416 192)"/><path d="M0 0h100v100H0z" style="fill:#fff" transform="matrix(.16 0 0 .16 480 192)"/><path d="M0 0h100v100H0z" style="fill:#fff" transform="matrix(.16 0 0 .16 496 192)"/><path d="M0 0h100v100H0z" style="fill:#fff" transform="matrix(.16 0 0 .16 560 192)"/><path d="M0 0h100v100H0z" style="fill:#fff" transform="matrix(.16 0 0 .16 576 192)"/><path d="M0 0h100v100H0z" style="fill:#fff" transform="matrix(.16 0 0 .16 640 192)"/><path d="M0 0h100v100H0z" style="fill:#fff" transform="matrix(.16 0 0 .16 656 192)"/><path d="M0 0h100v100H0z" style="fill:#fff" transform="matrix(.16 0 0 .16 688 192)"/><path d="M0 0h100v100H0z" style="fill:#fff" transform="matrix(.16 0 0 .16 736 192)"/><path d="M0 0h100v100H0z" style="fill:#fff" transform="matrix(.16 0 0 .16 0 208)"/><path d="M0 0h100v100H0z" style="fill:#fff" transform="matrix(.16 0 0 .16 16 208)"/><path d="M0 0h100v100H0z" style="fill:#fff" transform="matrix(.16 0 0 .16 32 208)"/><path d="M0 0h100v100H0z" style="fill:#fff" transform="matrix(.16 0 0 .16 128 208)"/><path d="M0 0h100v100H0z" style="fill:#fff" transform="matrix(.16 0 0 .16 160 208)"/><path d="M0 0h100v100H0z" style="fill:#fff" transform="matrix(.16 0 0 .16 224 208)"/><path d="M0 0h100v100H0z" style="fill:#fff" transform="matrix(.16 0 0 .16 256 208)"/><path d="M0 0h100v100H0z" style="fill:#fff" transform="matrix(.16 0 0 .16 288 208)"/><path d="M0 0h100v100H0z" style="fill:#fff" transform="matrix(.16 0 0 .16 304 208)"/><path d="M0 0h100v100H0z" style="fill:#fff" transform="matrix(.16 0 0 .16 352 208)"/><path d="M0 0h100v100H0z" style="fill:#fff" transform="matrix(.16 0 0 .16 368 208)"/><path d="M0 0h100v100H0z" style="fill:#fff" transform="matrix(.16 0 0 .16 416 208)"/><path d="M0 0h100v100H0z" style="fill:#fff" transform="matrix(.16 0 0 .16 560 208)"/><path d="M0 0h100v100H0z" style="fill:#fff" transform="matrix(.16 0 0 .16 592 208)"/><path d="M0 0h100v100H0z" style="fill:#fff" transform="matrix(.16 0 0 .16 672 208)"/><path d="M0 0h100v100H0z" style="fill:#fff" transform="matrix(.16 0 0 .16 688 208)"/><path d="M0 0h100v100H0z" style="fill:#fff" transform="matrix(.16 0 0 .16 720 208)"/><path d="M0 0h100v100H0z" style="fill:#fff" transform="matrix(.16 0 0 .16 736 208)"/><path d="M0 0h100v100H0z" style="fill:#fff" transform="matrix(.16 0 0 .16 752 208)"/><path d="M0 0h100v100H0z" style="fill:#fff" transform="matrix(.16 0 0 .16 768 208)"/><path d="M0 0h100v100H0z" style="fill:#fff" transform="matrix(.16 0 0 .16 0 224)"/><path d="M0 0h100v100H0z" style="fill:#fff" transform="matrix(.16 0 0 .16 16 224)"/><path d="M0 0h100v100H0z" style="fill:#fff" transform="matrix(.16 0 0 .16 32 224)"/><path d="M0 0h100v100H0z" style="fill:#fff" transform="matrix(.16 0 0 .16 64 224)"/><path d="M0 0h100v100H0z" style="fill:#fff" transform="matrix(.16 0 0 .16 96 224)"/><path d="M0 0h100v100H0z" style="fill:#fff" transform="matrix(.16 0 0 .16 128 224)"/><path d="M0 0h100v100H0z" style="fill:#fff" transform="matrix(.16 0 0 .16 192 224)"/><path d="M0 0h100v100H0z" style="fill:#fff" transform="matrix(.16 0 0 .16 256 224)"/><path d="M0 0h100v100H0z" style="fill:#fff" transform="matrix(.16 0 0 .16 288 224)"/><path d="M0 0h100v100H0z" style="fill:#fff" transform="matrix(.16 0 0 .16 320 224)"/><path d="M0 0h100v100H0z" style="fill:#fff" transform="matrix(.16 0 0 .16 336 224)"/><path d="M0 0h100v100H0z" style="fill:#fff" transform="matrix(.16 0 0 .16 368 224)"/><path d="M0 0h100v100H0z" style="fill:#fff" transform="matrix(.16 0 0 .16 384 224)"/><path d="M0 0h100v100H0z" style="fill:#fff" transform="matrix(.16 0 0 .16 400 224)"/><path d="M0 0h100v100H0z" style="fill:#fff" transform="matrix(.16 0 0 .16 416 224)"/><path d="M0 0h100v100H0z" style="fill:#fff" transform="matrix(.16 0 0 .16 448 224)"/><path d="M0 0h100v100H0z" style="fill:#fff" transform="matrix(.16 0 0 .16 464 224)"/><path d="M0 0h100v100H0z" style="fill:#fff" transform="matrix(.16 0 0 .16 480 224)"/><path d="M0 0h100v100H0z" style="fill:#fff" transform="matrix(.16 0 0 .16 512 224)"/><path d="M0 0h100v100H0z" style="fill:#fff" transform="matrix(.16 0 0 .16 544 224)"/><path d="M0 0h100v100H0z" style="fill:#fff" transform="matrix(.16 0 0 .16 576 224)"/><path d="M0 0h100v100H0z" style="fill:#fff" transform="matrix(.16 0 0 .16 592 224)"/><path d="M0 0h100v100H0z" style="fill:#fff" transform="matrix(.16 0 0 .16 608 224)"/><path d="M0 0h100v100H0z" style="fill:#fff" transform="matrix(.16 0 0 .16 624 224)"/><path d="M0 0h100v100H0z" style="fill:#fff" transform="matrix(.16 0 0 .16 672 224)"/><path d="M0 0h100v100H0z" style="fill:#fff" transform="matrix(.16 0 0 .16 704 224)"/><path d="M0 0h100v100H0z" style="fill:#fff" transform="matrix(.16 0 0 .16 0 240)"/><path d="M0 0h100v100H0z" style="fill:#fff" transform="matrix(.16 0 0 .16 64 240)"/><path d="M0 0h100v100H0z" style="fill:#fff" transform="matrix(.16 0 0 .16 80 240)"/><path d="M0 0h100v100H0z" style="fill:#fff" transform="matrix(.16 0 0 .16 112 240)"/><path d="M0 0h100v100H0z" style="fill:#fff" transform="matrix(.16 0 0 .16 128 240)"/><path d="M0 0h100v100H0z" style="fill:#fff" transform="matrix(.16 0 0 .16 176 240)"/><path d="M0 0h100v100H0z" style="fill:#fff" transform="matrix(.16 0 0 .16 224 240)"/><path d="M0 0h100v100H0z" style="fill:#fff" transform="matrix(.16 0 0 .16 240 240)"/><path d="M0 0h100v100H0z" style="fill:#fff" transform="matrix(.16 0 0 .16 256 240)"/><path d="M0 0h100v100H0z" style="fill:#fff" transform="matrix(.16 0 0 .16 304 240)"/><path d="M0 0h100v100H0z" style="fill:#fff" transform="matrix(.16 0 0 .16 320 240)"/><path d="M0 0h100v100H0z" style="fill:#fff" transform="matrix(.16 0 0 .16 336 240)"/><path d="M0 0h100v100H0z" style="fill:#fff" transform="matrix(.16 0 0 .16 352 240)"/><path d="M0 0h100v100H0z" style="fill:#fff" transform="matrix(.16 0 0 .16 368 240)"/><path d="M0 0h100v100H0z" style="fill:#fff" transform="matrix(.16 0 0 .16 384 240)"/><path d="M0 0h100v100H0z" style="fill:#fff" transform="matrix(.16 0 0 .16 416 240)"/><path d="M0 0h100v100H0z" style="fill:#fff" transform="matrix(.16 0 0 .16 432 240)"/><path d="M0 0h100v100H0z" style="fill:#fff" transform="matrix(.16 0 0 .16 448 240)"/><path d="M0 0h100v100H0z" style="fill:#fff" transform="matrix(.16 0 0 .16 464 240)"/><path d="M0 0h100v100H0z" style="fill:#fff" transform="matrix(.16 0 0 .16 512 240)"/><path d="M0 0h100v100H0z" style="fill:#fff" transform="matrix(.16 0 0 .16 544 240)"/><path d="M0 0h100v100H0z" style="fill:#fff" transform="matrix(.16 0 0 .16 592 240)"/><path d="M0 0h100v100H0z" style="fill:#fff" transform="matrix(.16 0 0 .16 608 240)"/><path d="M0 0h100v100H0z" style="fill:#fff" transform="matrix(.16 0 0 .16 640 240)"/><path d="M0 0h100v100H0z" style="fill:#fff" transform="matrix(.16 0 0 .16 672 240)"/><path d="M0 0h100v100H0z" style="fill:#fff" transform="matrix(.16 0 0 .16 688 240)"/><path d="M0 0h100v100H0z" style="fill:#fff" transform="matrix(.16 0 0 .16 704 240)"/><path d="M0 0h100v100H0z" style="fill:#fff" transform="matrix(.16 0 0 .16 736 240)"/><path d="M0 0h100v100H0z" style="fill:#fff" transform="matrix(.16 0 0 .16 768 240)"/><path d="M0 0h100v100H0z" style="fill:#fff" transform="matrix(.16 0 0 .16 32 256)"/><path d="M0 0h100v100H0z" style="fill:#fff" transform="matrix(.16 0 0 .16 64 256)"/><path d="M0 0h100v100H0z" style="fill:#fff" transform="matrix(.16 0 0 .16 80 256)"/><path d="M0 0h100v100H0z" style="fill:#fff" transform="matrix(.16 0 0 .16 96 256)"/><path d="M0 0h100v100H0z" style="fill:#fff" transform="matrix(.16 0 0 .16 112 256)"/><path d="M0 0h100v100H0z" style="fill:#fff" transform="matrix(.16 0 0 .16 128 256)"/><path d="M0 0h100v100H0z" style="fill:#fff" transform="matrix(.16 0 0 .16 144 256)"/><path d="M0 0h100v100H0z" style="fill:#fff" transform="matrix(.16 0 0 .16 192 256)"/><path d="M0 0h100v100H0z" style="fill:#fff" transform="matrix(.16 0 0 .16 208 256)"/><path d="M0 0h100v100H0z" style="fill:#fff" transform="matrix(.16 0 0 .16 224 256)"/><path d="M0 0h100v100H0z" style="fill:#fff" transform="matrix(.16 0 0 .16 240 256)"/><path d="M0 0h100v100H0z" style="fill:#fff" transform="matrix(.16 0 0 .16 272 256)"/><path d="M0 0h100v100H0z" style="fill:#fff" transform="matrix(.16 0 0 .16 304 256)"/><path d="M0 0h100v100H0z" style="fill:#fff" transform="matrix(.16 0 0 .16 320 256)"/><path d="M0 0h100v100H0z" style="fill:#fff" transform="matrix(.16 0 0 .16 336 256)"/><path d="M0 0h100v100H0z" style="fill:#fff" transform="matrix(.16 0 0 .16 432 256)"/><path d="M0 0h100v100H0z" style="fill:#fff" transform="matrix(.16 0 0 .16 448 256)"/><path d="M0 0h100v100H0z" style="fill:#fff" transform="matrix(.16 0 0 .16 496 256)"/><path d="M0 0h100v100H0z" style="fill:#fff" transform="matrix(.16 0 0 .16 512 256)"/><path d="M0 0h100v100H0z" style="fill:#fff" transform="matrix(.16 0 0 .16 544 256)"/><path d="M0 0h100v100H0z" style="fill:#fff" transform="matrix(.16 0 0 .16 576 256)"/><path d="M0 0h100v100H0z" style="fill:#fff" transform="matrix(.16 0 0 .16 624 256)"/><path d="M0 0h100v100H0z" style="fill:#fff" transform="matrix(.16 0 0 .16 688 256)"/><path d="M0 0h100v100H0z" style="fill:#fff" transform="matrix(.16 0 0 .16 704 256)"/><path d="M0 0h100v100H0z" style="fill:#fff" transform="matrix(.16 0 0 .16 768 256)"/><path d="M0 0h100v100H0z" style="fill:#fff" transform="matrix(.16 0 0 .16 0 272)"/><path d="M0 0h100v100H0z" style="fill:#fff" transform="matrix(.16 0 0 .16 16 272)"/><path d="M0 0h100v100H0z" style="fill:#fff" transform="matrix(.16 0 0 .16 32 272)"/><path d="M0 0h100v100H0z" style="fill:#fff" transform="matrix(.16 0 0 .16 48 272)"/><path d="M0 0h100v100H0z" style="fill:#fff" transform="matrix(.16 0 0 .16 64 272)"/><path d="M0 0h100v100H0z" style="fill:#fff" transform="matrix(.16 0 0 .16 80 272)"/><path d="M0 0h100v100H0z" style="fill:#fff" transform="matrix(.16 0 0 .16 160 272)"/><path d="M0 0h100v100H0z" style="fill:#fff" transform="matrix(.16 0 0 .16 192 272)"/><path d="M0 0h100v100H0z" style="fill:#fff" transform="matrix(.16 0 0 .16 208 272)"/><path d="M0 0h100v100H0z" style="fill:#fff" transform="matrix(.16 0 0 .16 224 272)"/><path d="M0 0h100v100H0z" style="fill:#fff" transform="matrix(.16 0 0 .16 528 272)"/><path d="M0 0h100v100H0z" style="fill:#fff" transform="matrix(.16 0 0 .16 608 272)"/><path d="M0 0h100v100H0z" style="fill:#fff" transform="matrix(.16 0 0 .16 640 272)"/><path d="M0 0h100v100H0z" style="fill:#fff" transform="matrix(.16 0 0 .16 704 272)"/><path d="M0 0h100v100H0z" style="fill:#fff" transform="matrix(.16 0 0 .16 720 272)"/><path d="M0 0h100v100H0z" style="fill:#fff" transform="matrix(.16 0 0 .16 768 272)"/><path d="M0 0h100v100H0z" style="fill:#fff" transform="matrix(.16 0 0 .16 32 288)"/><path d="M0 0h100v100H0z" style="fill:#fff" transform="matrix(.16 0 0 .16 80 288)"/><path d="M0 0h100v100H0z" style="fill:#fff" transform="matrix(.16 0 0 .16 96 288)"/><path d="M0 0h100v100H0z" style="fill:#fff" transform="matrix(.16 0 0 .16 144 288)"/><path d="M0 0h100v100H0z" style="fill:#fff" transform="matrix(.16 0 0 .16 176 288)"/><path d="M0 0h100v100H0z" style="fill:#fff" transform="matrix(.16 0 0 .16 224 288)"/><path d="M0 0h100v100H0z" style="fill:#fff" transform="matrix(.16 0 0 .16 240 288)"/><path d="M0 0h100v100H0z" style="fill:#fff" transform="matrix(.16 0 0 .16 528 288)"/><path d="M0 0h100v100H0z" style="fill:#fff" transform="matrix(.16 0 0 .16 560 288)"/><path d="M0 0h100v100H0z" style="fill:#fff" transform="matrix(.16 0 0 .16 576 288)"/><path d="M0 0h100v100H0z" style="fill:#fff" transform="matrix(.16 0 0 .16 656 288)"/><path d="M0 0h100v100H0z" style="fill:#fff" transform="matrix(.16 0 0 .16 672 288)"/><path d="M0 0h100v100H0z" style="fill:#fff" transform="matrix(.16 0 0 .16 688 288)"/><path d="M0 0h100v100H0z" style="fill:#fff" transform="matrix(.16 0 0 .16 704 288)"/><path d="M0 0h100v100H0z" style="fill:#fff" transform="matrix(.16 0 0 .16 752 288)"/><path d="M0 0h100v100H0z" style="fill:#fff" transform="matrix(.16 0 0 .16 768 288)"/><path d="M0 0h100v100H0z" style="fill:#fff" transform="matrix(.16 0 0 .16 0 304)"/><path d="M0 0h100v100H0z" style="fill:#fff" transform="matrix(.16 0 0 .16 48 304)"/><path d="M0 0h100v100H0z" style="fill:#fff" transform="matrix(.16 0 0 .16 80 304)"/><path d="M0 0h100v100H0z" style="fill:#fff" transform="matrix(.16 0 0 .16 112 304)"/><path d="M0 0h100v100H0z" style="fill:#fff" transform="matrix(.16 0 0 .16 208 304)"/><path d="M0 0h100v100H0z" style="fill:#fff" transform="matrix(.16 0 0 .16 240 304)"/><path d="M0 0h100v100H0z" style="fill:#fff" transform="matrix(.16 0 0 .16 528 304)"/><path d="M0 0h100v100H0z" style="fill:#fff" transform="matrix(.16 0 0 .16 560 304)"/><path d="M0 0h100v100H0z" style="fill:#fff" transform="matrix(.16 0 0 .16 576 304)"/><path d="M0 0h100v100H0z" style="fill:#fff" transform="matrix(.16 0 0 .16 672 304)"/><path d="M0 0h100v100H0z" style="fill:#fff" transform="matrix(.16 0 0 .16 720 304)"/><path d="M0 0h100v100H0z" style="fill:#fff" transform="matrix(.16 0 0 .16 768 304)"/><path d="M0 0h100v100H0z" style="fill:#fff" transform="matrix(.16 0 0 .16 0 320)"/><path d="M0 0h100v100H0z" style="fill:#fff" transform="matrix(.16 0 0 .16 80 320)"/><path d="M0 0h100v100H0z" style="fill:#fff" transform="matrix(.16 0 0 .16 96 320)"/><path d="M0 0h100v100H0z" style="fill:#fff" transform="matrix(.16 0 0 .16 112 320)"/><path d="M0 0h100v100H0z" style="fill:#fff" transform="matrix(.16 0 0 .16 128 320)"/><path d="M0 0h100v100H0z" style="fill:#fff" transform="matrix(.16 0 0 .16 224 320)"/><path d="M0 0h100v100H0z" style="fill:#fff" transform="matrix(.16 0 0 .16 240 320)"/><path d="M0 0h100v100H0z" style="fill:#fff" transform="matrix(.16 0 0 .16 512 320)"/><path d="M0 0h100v100H0z" style="fill:#fff" transform="matrix(.16 0 0 .16 544 320)"/><path d="M0 0h100v100H0z" style="fill:#fff" transform="matrix(.16 0 0 .16 560 320)"/><path d="M0 0h100v100H0z" style="fill:#fff" transform="matrix(.16 0 0 .16 592 320)"/><path d="M0 0h100v100H0z" style="fill:#fff" transform="matrix(.16 0 0 .16 608 320)"/><path d="M0 0h100v100H0z" style="fill:#fff" transform="matrix(.16 0 0 .16 624 320)"/><path d="M0 0h100v100H0z" style="fill:#fff" transform="matrix(.16 0 0 .16 752 320)"/><path d="M0 0h100v100H0z" style="fill:#fff" transform="matrix(.16 0 0 .16 16 336)"/><path d="M0 0h100v100H0z" style="fill:#fff" transform="matrix(.16 0 0 .16 112 336)"/><path d="M0 0h100v100H0z" style="fill:#fff" transform="matrix(.16 0 0 .16 128 336)"/><path d="M0 0h100v100H0z" style="fill:#fff" transform="matrix(.16 0 0 .16 144 336)"/><path d="M0 0h100v100H0z" style="fill:#fff" transform="matrix(.16 0 0 .16 176 336)"/><path d="M0 0h100v100H0z" style="fill:#fff" transform="matrix(.16 0 0 .16 208 336)"/><path d="M0 0h100v100H0z" style="fill:#fff" transform="matrix(.16 0 0 .16 512 336)"/><path d="M0 0h100v100H0z" style="fill:#fff" transform="matrix(.16 0 0 .16 592 336)"/><path d="M0 0h100v100H0z" style="fill:#fff" transform="matrix(.16 0 0 .16 624 336)"/><path d="M0 0h100v100H0z" style="fill:#fff" transform="matrix(.16 0 0 .16 640 336)"/><path d="M0 0h100v100H0z" style="fill:#fff" transform="matrix(.16 0 0 .16 656 336)"/><path d="M0 0h100v100H0z" style="fill:#fff" transform="matrix(.16 0 0 .16 672 336)"/><path d="M0 0h100v100H0z" style="fill:#fff" transform="matrix(.16 0 0 .16 688 336)"/><path d="M0 0h100v100H0z" style="fill:#fff" transform="matrix(.16 0 0 .16 16 352)"/><path d="M0 0h100v100H0z" style="fill:#fff" transform="matrix(.16 0 0 .16 64 352)"/><path d="M0 0h100v100H0z" style="fill:#fff" transform="matrix(.16 0 0 .16 80 352)"/><path d="M0 0h100v100H0z" style="fill:#fff" transform="matrix(.16 0 0 .16 96 352)"/><path d="M0 0h100v100H0z" style="fill:#fff" transform="matrix(.16 0 0 .16 112 352)"/><path d="M0 0h100v100H0z" style="fill:#fff" transform="matrix(.16 0 0 .16 128 352)"/><path d="M0 0h100v100H0z" style="fill:#fff" transform="matrix(.16 0 0 .16 144 352)"/><path d="M0 0h100v100H0z" style="fill:#fff" transform="matrix(.16 0 0 .16 160 352)"/><path d="M0 0h100v100H0z" style="fill:#fff" transform="matrix(.16 0 0 .16 192 352)"/><path d="M0 0h100v100H0z" style="fill:#fff" transform="matrix(.16 0 0 .16 224 352)"/><path d="M0 0h100v100H0z" style="fill:#fff" transform="matrix(.16 0 0 .16 240 352)"/><path d="M0 0h100v100H0z" style="fill:#fff" transform="matrix(.16 0 0 .16 512 352)"/><path d="M0 0h100v100H0z" style="fill:#fff" transform="matrix(.16 0 0 .16 544 352)"/><path d="M0 0h100v100H0z" style="fill:#fff" transform="matrix(.16 0 0 .16 560 352)"/><path d="M0 0h100v100H0z" style="fill:#fff" transform="matrix(.16 0 0 .16 576 352)"/><path d="M0 0h100v100H0z" style="fill:#fff" transform="matrix(.16 0 0 .16 640 352)"/><path d="M0 0h100v100H0z" style="fill:#fff" transform="matrix(.16 0 0 .16 656 352)"/><path d="M0 0h100v100H0z" style="fill:#fff" transform="matrix(.16 0 0 .16 672 352)"/><path d="M0 0h100v100H0z" style="fill:#fff" transform="matrix(.16 0 0 .16 688 352)"/><path d="M0 0h100v100H0z" style="fill:#fff" transform="matrix(.16 0 0 .16 704 352)"/><path d="M0 0h100v100H0z" style="fill:#fff" transform="matrix(.16 0 0 .16 32 368)"/><path d="M0 0h100v100H0z" style="fill:#fff" transform="matrix(.16 0 0 .16 64 368)"/><path d="M0 0h100v100H0z" style="fill:#fff" transform="matrix(.16 0 0 .16 128 368)"/><path d="M0 0h100v100H0z" style="fill:#fff" transform="matrix(.16 0 0 .16 144 368)"/><path d="M0 0h100v100H0z" style="fill:#fff" transform="matrix(.16 0 0 .16 208 368)"/><path d="M0 0h100v100H0z" style="fill:#fff" transform="matrix(.16 0 0 .16 224 368)"/><path d="M0 0h100v100H0z" style="fill:#fff" transform="matrix(.16 0 0 .16 256 368)"/><path d="M0 0h100v100H0z" style="fill:#fff" transform="matrix(.16 0 0 .16 528 368)"/><path d="M0 0h100v100H0z" style="fill:#fff" transform="matrix(.16 0 0 .16 576 368)"/><path d="M0 0h100v100H0z" style="fill:#fff" transform="matrix(.16 0 0 .16 592 368)"/><path d="M0 0h100v100H0z" style="fill:#fff" transform="matrix(.16 0 0 .16 640 368)"/><path d="M0 0h100v100H0z" style="fill:#fff" transform="matrix(.16 0 0 .16 704 368)"/><path d="M0 0h100v100H0z" style="fill:#fff" transform="matrix(.16 0 0 .16 720 368)"/><path d="M0 0h100v100H0z" style="fill:#fff" transform="matrix(.16 0 0 .16 736 368)"/><path d="M0 0h100v100H0z" style="fill:#fff" transform="matrix(.16 0 0 .16 768 368)"/><path d="M0 0h100v100H0z" style="fill:#fff" transform="matrix(.16 0 0 .16 64 384)"/><path d="M0 0h100v100H0z" style="fill:#fff" transform="matrix(.16 0 0 .16 96 384)"/><path d="M0 0h100v100H0z" style="fill:#fff" transform="matrix(.16 0 0 .16 128 384)"/><path d="M0 0h100v100H0z" style="fill:#fff" transform="matrix(.16 0 0 .16 144 384)"/><path d="M0 0h100v100H0z" style="fill:#fff" transform="matrix(.16 0 0 .16 160 384)"/><path d="M0 0h100v100H0z" style="fill:#fff" transform="matrix(.16 0 0 .16 192 384)"/><path d="M0 0h100v100H0z" style="fill:#fff" transform="matrix(.16 0 0 .16 224 384)"/><path d="M0 0h100v100H0z" style="fill:#fff" transform="matrix(.16 0 0 .16 240 384)"/><path d="M0 0h100v100H0z" style="fill:#fff" transform="matrix(.16 0 0 .16 560 384)"/><path d="M0 0h100v100H0z" style="fill:#fff" transform="matrix(.16 0 0 .16 576 384)"/><path d="M0 0h100v100H0z" style="fill:#fff" transform="matrix(.16 0 0 .16 592 384)"/><path d="M0 0h100v100H0z" style="fill:#fff" transform="matrix(.16 0 0 .16 608 384)"/><path d="M0 0h100v100H0z" style="fill:#fff" transform="matrix(.16 0 0 .16 640 384)"/><path d="M0 0h100v100H0z" style="fill:#fff" transform="matrix(.16 0 0 .16 672 384)"/><path d="M0 0h100v100H0z" style="fill:#fff" transform="matrix(.16 0 0 .16 704 384)"/><path d="M0 0h100v100H0z" style="fill:#fff" transform="matrix(.16 0 0 .16 720 384)"/><path d="M0 0h100v100H0z" style="fill:#fff" transform="matrix(.16 0 0 .16 736 384)"/><path d="M0 0h100v100H0z" style="fill:#fff" transform="matrix(.16 0 0 .16 768 384)"/><path d="M0 0h100v100H0z" style="fill:#fff" transform="matrix(.16 0 0 .16 32 400)"/><path d="M0 0h100v100H0z" style="fill:#fff" transform="matrix(.16 0 0 .16 64 400)"/><path d="M0 0h100v100H0z" style="fill:#fff" transform="matrix(.16 0 0 .16 128 400)"/><path d="M0 0h100v100H0z" style="fill:#fff" transform="matrix(.16 0 0 .16 176 400)"/><path d="M0 0h100v100H0z" style="fill:#fff" transform="matrix(.16 0 0 .16 240 400)"/><path d="M0 0h100v100H0z" style="fill:#fff" transform="matrix(.16 0 0 .16 512 400)"/><path d="M0 0h100v100H0z" style="fill:#fff" transform="matrix(.16 0 0 .16 528 400)"/><path d="M0 0h100v100H0z" style="fill:#fff" transform="matrix(.16 0 0 .16 560 400)"/><path d="M0 0h100v100H0z" style="fill:#fff" transform="matrix(.16 0 0 .16 592 400)"/><path d="M0 0h100v100H0z" style="fill:#fff" transform="matrix(.16 0 0 .16 608 400)"/><path d="M0 0h100v100H0z" style="fill:#fff" transform="matrix(.16 0 0 .16 624 400)"/><path d="M0 0h100v100H0z" style="fill:#fff" transform="matrix(.16 0 0 .16 640 400)"/><path d="M0 0h100v100H0z" style="fill:#fff" transform="matrix(.16 0 0 .16 704 400)"/><path d="M0 0h100v100H0z" style="fill:#fff" transform="matrix(.16 0 0 .16 720 400)"/><path d="M0 0h100v100H0z" style="fill:#fff" transform="matrix(.16 0 0 .16 736 400)"/><path d="M0 0h100v100H0z" style="fill:#fff" transform="matrix(.16 0 0 .16 0 416)"/><path d="M0 0h100v100H0z" style="fill:#fff" transform="matrix(.16 0 0 .16 16 416)"/><path d="M0 0h100v100H0z" style="fill:#fff" transform="matrix(.16 0 0 .16 64 416)"/><path d="M0 0h100v100H0z" style="fill:#fff" transform="matrix(.16 0 0 .16 80 416)"/><path d="M0 0h100v100H0z" style="fill:#fff" transform="matrix(.16 0 0 .16 96 416)"/><path d="M0 0h100v100H0z" style="fill:#fff" transform="matrix(.16 0 0 .16 112 416)"/><path d="M0 0h100v100H0z" style="fill:#fff" transform="matrix(.16 0 0 .16 128 416)"/><path d="M0 0h100v100H0z" style="fill:#fff" transform="matrix(.16 0 0 .16 144 416)"/><path d="M0 0h100v100H0z" style="fill:#fff" transform="matrix(.16 0 0 .16 160 416)"/><path d="M0 0h100v100H0z" style="fill:#fff" transform="matrix(.16 0 0 .16 224 416)"/><path d="M0 0h100v100H0z" style="fill:#fff" transform="matrix(.16 0 0 .16 592 416)"/><path d="M0 0h100v100H0z" style="fill:#fff" transform="matrix(.16 0 0 .16 608 416)"/><path d="M0 0h100v100H0z" style="fill:#fff" transform="matrix(.16 0 0 .16 624 416)"/><path d="M0 0h100v100H0z" style="fill:#fff" transform="matrix(.16 0 0 .16 640 416)"/><path d="M0 0h100v100H0z" style="fill:#fff" transform="matrix(.16 0 0 .16 656 416)"/><path d="M0 0h100v100H0z" style="fill:#fff" transform="matrix(.16 0 0 .16 672 416)"/><path d="M0 0h100v100H0z" style="fill:#fff" transform="matrix(.16 0 0 .16 688 416)"/><path d="M0 0h100v100H0z" style="fill:#fff" transform="matrix(.16 0 0 .16 704 416)"/><path d="M0 0h100v100H0z" style="fill:#fff" transform="matrix(.16 0 0 .16 0 432)"/><path d="M0 0h100v100H0z" style="fill:#fff" transform="matrix(.16 0 0 .16 64 432)"/><path d="M0 0h100v100H0z" style="fill:#fff" transform="matrix(.16 0 0 .16 80 432)"/><path d="M0 0h100v100H0z" style="fill:#fff" transform="matrix(.16 0 0 .16 112 432)"/><path d="M0 0h100v100H0z" style="fill:#fff" transform="matrix(.16 0 0 .16 160 432)"/><path d="M0 0h100v100H0z" style="fill:#fff" transform="matrix(.16 0 0 .16 208 432)"/><path d="M0 0h100v100H0z" style="fill:#fff" transform="matrix(.16 0 0 .16 240 432)"/><path d="M0 0h100v100H0z" style="fill:#fff" transform="matrix(.16 0 0 .16 528 432)"/><path d="M0 0h100v100H0z" style="fill:#fff" transform="matrix(.16 0 0 .16 592 432)"/><path d="M0 0h100v100H0z" style="fill:#fff" transform="matrix(.16 0 0 .16 656 432)"/><path d="M0 0h100v100H0z" style="fill:#fff" transform="matrix(.16 0 0 .16 704 432)"/><path d="M0 0h100v100H0z" style="fill:#fff" transform="matrix(.16 0 0 .16 752 432)"/><path d="M0 0h100v100H0z" style="fill:#fff" transform="matrix(.16 0 0 .16 768 432)"/><path d="M0 0h100v100H0z" style="fill:#fff" transform="matrix(.16 0 0 .16 0 448)"/><path d="M0 0h100v100H0z" style="fill:#fff" transform="matrix(.16 0 0 .16 32 448)"/><path d="M0 0h100v100H0z" style="fill:#fff" transform="matrix(.16 0 0 .16 64 448)"/><path d="M0 0h100v100H0z" style="fill:#fff" transform="matrix(.16 0 0 .16 80 448)"/><path d="M0 0h100v100H0z" style="fill:#fff" transform="matrix(.16 0 0 .16 96 448)"/><path d="M0 0h100v100H0z" style="fill:#fff" transform="matrix(.16 0 0 .16 112 448)"/><path d="M0 0h100v100H0z" style="fill:#fff" transform="matrix(.16 0 0 .16 144 448)"/><path d="M0 0h100v100H0z" style="fill:#fff" transform="matrix(.16 0 0 .16 160 448)"/><path d="M0 0h100v100H0z" style="fill:#fff" transform="matrix(.16 0 0 .16 176 448)"/><path d="M0 0h100v100H0z" style="fill:#fff" transform="matrix(.16 0 0 .16 208 448)"/><path d="M0 0h100v100H0z" style="fill:#fff" transform="matrix(.16 0 0 .16 224 448)"/><path d="M0 0h100v100H0z" style="fill:#fff" transform="matrix(.16 0 0 .16 256 448)"/><path d="M0 0h100v100H0z" style="fill:#fff" transform="matrix(.16 0 0 .16 528 448)"/><path d="M0 0h100v100H0z" style="fill:#fff" transform="matrix(.16 0 0 .16 544 448)"/><path d="M0 0h100v100H0z" style="fill:#fff" transform="matrix(.16 0 0 .16 592 448)"/><path d="M0 0h100v100H0z" style="fill:#fff" transform="matrix(.16 0 0 .16 608 448)"/><path d="M0 0h100v100H0z" style="fill:#fff" transform="matrix(.16 0 0 .16 624 448)"/><path d="M0 0h100v100H0z" style="fill:#fff" transform="matrix(.16 0 0 .16 640 448)"/><path d="M0 0h100v100H0z" style="fill:#fff" transform="matrix(.16 0 0 .16 656 448)"/><path d="M0 0h100v100H0z" style="fill:#fff" transform="matrix(.16 0 0 .16 704 448)"/><path d="M0 0h100v100H0z" style="fill:#fff" transform="matrix(.16 0 0 .16 736 448)"/><path d="M0 0h100v100H0z" style="fill:#fff" transform="matrix(.16 0 0 .16 752 448)"/><path d="M0 0h100v100H0z" style="fill:#fff" transform="matrix(.16 0 0 .16 0 464)"/><path d="M0 0h100v100H0z" style="fill:#fff" transform="matrix(.16 0 0 .16 32 464)"/><path d="M0 0h100v100H0z" style="fill:#fff" transform="matrix(.16 0 0 .16 64 464)"/><path d="M0 0h100v100H0z" style="fill:#fff" transform="matrix(.16 0 0 .16 80 464)"/><path d="M0 0h100v100H0z" style="fill:#fff" transform="matrix(.16 0 0 .16 112 464)"/><path d="M0 0h100v100H0z" style="fill:#fff" transform="matrix(.16 0 0 .16 128 464)"/><path d="M0 0h100v100H0z" style="fill:#fff" transform="matrix(.16 0 0 .16 144 464)"/><path d="M0 0h100v100H0z" style="fill:#fff" transform="matrix(.16 0 0 .16 176 464)"/><path d="M0 0h100v100H0z" style="fill:#fff" transform="matrix(.16 0 0 .16 208 464)"/><path d="M0 0h100v100H0z" style="fill:#fff" transform="matrix(.16 0 0 .16 240 464)"/><path d="M0 0h100v100H0z" style="fill:#fff" transform="matrix(.16 0 0 .16 256 464)"/><path d="M0 0h100v100H0z" style="fill:#fff" transform="matrix(.16 0 0 .16 512 464)"/><path d="M0 0h100v100H0z" style="fill:#fff" transform="matrix(.16 0 0 .16 528 464)"/><path d="M0 0h100v100H0z" style="fill:#fff" transform="matrix(.16 0 0 .16 544 464)"/><path d="M0 0h100v100H0z" style="fill:#fff" transform="matrix(.16 0 0 .16 560 464)"/><path d="M0 0h100v100H0z" style="fill:#fff" transform="matrix(.16 0 0 .16 624 464)"/><path d="M0 0h100v100H0z" style="fill:#fff" transform="matrix(.16 0 0 .16 640 464)"/><path d="M0 0h100v100H0z" style="fill:#fff" transform="matrix(.16 0 0 .16 672 464)"/><path d="M0 0h100v100H0z" style="fill:#fff" transform="matrix(.16 0 0 .16 704 464)"/><path d="M0 0h100v100H0z" style="fill:#fff" transform="matrix(.16 0 0 .16 752 464)"/><path d="M0 0h100v100H0z" style="fill:#fff" transform="matrix(.16 0 0 .16 0 480)"/><path d="M0 0h100v100H0z" style="fill:#fff" transform="matrix(.16 0 0 .16 16 480)"/><path d="M0 0h100v100H0z" style="fill:#fff" transform="matrix(.16 0 0 .16 32 480)"/><path d="M0 0h100v100H0z" style="fill:#fff" transform="matrix(.16 0 0 .16 64 480)"/><path d="M0 0h100v100H0z" style="fill:#fff" transform="matrix(.16 0 0 .16 96 480)"/><path d="M0 0h100v100H0z" style="fill:#fff" transform="matrix(.16 0 0 .16 112 480)"/><path d="M0 0h100v100H0z" style="fill:#fff" transform="matrix(.16 0 0 .16 224 480)"/><path d="M0 0h100v100H0z" style="fill:#fff" transform="matrix(.16 0 0 .16 512 480)"/><path d="M0 0h100v100H0z" style="fill:#fff" transform="matrix(.16 0 0 .16 544 480)"/><path d="M0 0h100v100H0z" style="fill:#fff" transform="matrix(.16 0 0 .16 608 480)"/><path d="M0 0h100v100H0z" style="fill:#fff" transform="matrix(.16 0 0 .16 640 480)"/><path d="M0 0h100v100H0z" style="fill:#fff" transform="matrix(.16 0 0 .16 656 480)"/><path d="M0 0h100v100H0z" style="fill:#fff" transform="matrix(.16 0 0 .16 672 480)"/><path d="M0 0h100v100H0z" style="fill:#fff" transform="matrix(.16 0 0 .16 704 480)"/><path d="M0 0h100v100H0z" style="fill:#fff" transform="matrix(.16 0 0 .16 736 480)"/><path d="M0 0h100v100H0z" style="fill:#fff" transform="matrix(.16 0 0 .16 32 496)"/><path d="M0 0h100v100H0z" style="fill:#fff" transform="matrix(.16 0 0 .16 80 496)"/><path d="M0 0h100v100H0z" style="fill:#fff" transform="matrix(.16 0 0 .16 160 496)"/><path d="M0 0h100v100H0z" style="fill:#fff" transform="matrix(.16 0 0 .16 224 496)"/><path d="M0 0h100v100H0z" style="fill:#fff" transform="matrix(.16 0 0 .16 240 496)"/><path d="M0 0h100v100H0z" style="fill:#fff" transform="matrix(.16 0 0 .16 512 496)"/><path d="M0 0h100v100H0z" style="fill:#fff" transform="matrix(.16 0 0 .16 528 496)"/><path d="M0 0h100v100H0z" style="fill:#fff" transform="matrix(.16 0 0 .16 560 496)"/><path d="M0 0h100v100H0z" style="fill:#fff" transform="matrix(.16 0 0 .16 624 496)"/><path d="M0 0h100v100H0z" style="fill:#fff" transform="matrix(.16 0 0 .16 640 496)"/><path d="M0 0h100v100H0z" style="fill:#fff" transform="matrix(.16 0 0 .16 656 496)"/><path d="M0 0h100v100H0z" style="fill:#fff" transform="matrix(.16 0 0 .16 672 496)"/><path d="M0 0h100v100H0z" style="fill:#fff" transform="matrix(.16 0 0 .16 688 496)"/><path d="M0 0h100v100H0z" style="fill:#fff" transform="matrix(.16 0 0 .16 736 496)"/><path d="M0 0h100v100H0z" style="fill:#fff" transform="matrix(.16 0 0 .16 768 496)"/><path d="M0 0h100v100H0z" style="fill:#fff" transform="matrix(.16 0 0 .16 0 512)"/><path d="M0 0h100v100H0z" style="fill:#fff" transform="matrix(.16 0 0 .16 16 512)"/><path d="M0 0h100v100H0z" style="fill:#fff" transform="matrix(.16 0 0 .16 32 512)"/><path d="M0 0h100v100H0z" style="fill:#fff" transform="matrix(.16 0 0 .16 48 512)"/><path d="M0 0h100v100H0z" style="fill:#fff" transform="matrix(.16 0 0 .16 64 512)"/><path d="M0 0h100v100H0z" style="fill:#fff" transform="matrix(.16 0 0 .16 96 512)"/><path d="M0 0h100v100H0z" style="fill:#fff" transform="matrix(.16 0 0 .16 112 512)"/><path d="M0 0h100v100H0z" style="fill:#fff" transform="matrix(.16 0 0 .16 160 512)"/><path d="M0 0h100v100H0z" style="fill:#fff" transform="matrix(.16 0 0 .16 192 512)"/><path d="M0 0h100v100H0z" style="fill:#fff" transform="matrix(.16 0 0 .16 208 512)"/><path d="M0 0h100v100H0z" style="fill:#fff" transform="matrix(.16 0 0 .16 224 512)"/><path d="M0 0h100v100H0z" style="fill:#fff" transform="matrix(.16 0 0 .16 240 512)"/><path d="M0 0h100v100H0z" style="fill:#fff" transform="matrix(.16 0 0 .16 256 512)"/><path d="M0 0h100v100H0z" style="fill:#fff" transform="matrix(.16 0 0 .16 288 512)"/><path d="M0 0h100v100H0z" style="fill:#fff" transform="matrix(.16 0 0 .16 320 512)"/><path d="M0 0h100v100H0z" style="fill:#fff" transform="matrix(.16 0 0 .16 400 512)"/><path d="M0 0h100v100H0z" style="fill:#fff" transform="matrix(.16 0 0 .16 512 512)"/><path d="M0 0h100v100H0z" style="fill:#fff" transform="matrix(.16 0 0 .16 560 512)"/><path d="M0 0h100v100H0z" style="fill:#fff" transform="matrix(.16 0 0 .16 576 512)"/><path d="M0 0h100v100H0z" style="fill:#fff" transform="matrix(.16 0 0 .16 608 512)"/><path d="M0 0h100v100H0z" style="fill:#fff" transform="matrix(.16 0 0 .16 656 512)"/><path d="M0 0h100v100H0z" style="fill:#fff" transform="matrix(.16 0 0 .16 672 512)"/><path d="M0 0h100v100H0z" style="fill:#fff" transform="matrix(.16 0 0 .16 720 512)"/><path d="M0 0h100v100H0z" style="fill:#fff" transform="matrix(.16 0 0 .16 768 512)"/><path d="M0 0h100v100H0z" style="fill:#fff" transform="matrix(.16 0 0 .16 0 528)"/><path d="M0 0h100v100H0z" style="fill:#fff" transform="matrix(.16 0 0 .16 16 528)"/><path d="M0 0h100v100H0z" style="fill:#fff" transform="matrix(.16 0 0 .16 32 528)"/><path d="M0 0h100v100H0z" style="fill:#fff" transform="matrix(.16 0 0 .16 48 528)"/><path d="M0 0h100v100H0z" style="fill:#fff" transform="matrix(.16 0 0 .16 64 528)"/><path d="M0 0h100v100H0z" style="fill:#fff" transform="matrix(.16 0 0 .16 80 528)"/><path d="M0 0h100v100H0z" style="fill:#fff" transform="matrix(.16 0 0 .16 112 528)"/><path d="M0 0h100v100H0z" style="fill:#fff" transform="matrix(.16 0 0 .16 144 528)"/><path d="M0 0h100v100H0z" style="fill:#fff" transform="matrix(.16 0 0 .16 208 528)"/><path d="M0 0h100v100H0z" style="fill:#fff" transform="matrix(.16 0 0 .16 288 528)"/><path d="M0 0h100v100H0z" style="fill:#fff" transform="matrix(.16 0 0 .16 304 528)"/><path d="M0 0h100v100H0z" style="fill:#fff" transform="matrix(.16 0 0 .16 320 528)"/><path d="M0 0h100v100H0z" style="fill:#fff" transform="matrix(.16 0 0 .16 336 528)"/><path d="M0 0h100v100H0z" style="fill:#fff" transform="matrix(.16 0 0 .16 416 528)"/><path d="M0 0h100v100H0z" style="fill:#fff" transform="matrix(.16 0 0 .16 432 528)"/><path d="M0 0h100v100H0z" style="fill:#fff" transform="matrix(.16 0 0 .16 448 528)"/><path d="M0 0h100v100H0z" style="fill:#fff" transform="matrix(.16 0 0 .16 512 528)"/><path d="M0 0h100v100H0z" style="fill:#fff" transform="matrix(.16 0 0 .16 528 528)"/><path d="M0 0h100v100H0z" style="fill:#fff" transform="matrix(.16 0 0 .16 544 528)"/><path d="M0 0h100v100H0z" style="fill:#fff" transform="matrix(.16 0 0 .16 608 528)"/><path d="M0 0h100v100H0z" style="fill:#fff" transform="matrix(.16 0 0 .16 640 528)"/><path d="M0 0h100v100H0z" style="fill:#fff" transform="matrix(.16 0 0 .16 656 528)"/><path d="M0 0h100v100H0z" style="fill:#fff" transform="matrix(.16 0 0 .16 672 528)"/><path d="M0 0h100v100H0z" style="fill:#fff" transform="matrix(.16 0 0 .16 688 528)"/><path d="M0 0h100v100H0z" style="fill:#fff" transform="matrix(.16 0 0 .16 736 528)"/><path d="M0 0h100v100H0z" style="fill:#fff" transform="matrix(.16 0 0 .16 752 528)"/><path d="M0 0h100v100H0z" style="fill:#fff" transform="matrix(.16 0 0 .16 768 528)"/><path d="M0 0h100v100H0z" style="fill:#fff" transform="matrix(.16 0 0 .16 0 544)"/><path d="M0 0h100v100H0z" style="fill:#fff" transform="matrix(.16 0 0 .16 32 544)"/><path d="M0 0h100v100H0z" style="fill:#fff" transform="matrix(.16 0 0 .16 80 544)"/><path d="M0 0h100v100H0z" style="fill:#fff" transform="matrix(.16 0 0 .16 96 544)"/><path d="M0 0h100v100H0z" style="fill:#fff" transform="matrix(.16 0 0 .16 112 544)"/><path d="M0 0h100v100H0z" style="fill:#fff" transform="matrix(.16 0 0 .16 128 544)"/><path d="M0 0h100v100H0z" style="fill:#fff" transform="matrix(.16 0 0 .16 144 544)"/><path d="M0 0h100v100H0z" style="fill:#fff" transform="matrix(.16 0 0 .16 240 544)"/><path d="M0 0h100v100H0z" style="fill:#fff" transform="matrix(.16 0 0 .16 288 544)"/><path d="M0 0h100v100H0z" style="fill:#fff" transform="matrix(.16 0 0 .16 320 544)"/><path d="M0 0h100v100H0z" style="fill:#fff" transform="matrix(.16 0 0 .16 336 544)"/><path d="M0 0h100v100H0z" style="fill:#fff" transform="matrix(.16 0 0 .16 368 544)"/><path d="M0 0h100v100H0z" style="fill:#fff" transform="matrix(.16 0 0 .16 384 544)"/><path d="M0 0h100v100H0z" style="fill:#fff" transform="matrix(.16 0 0 .16 448 544)"/><path d="M0 0h100v100H0z" style="fill:#fff" transform="matrix(.16 0 0 .16 480 544)"/><path d="M0 0h100v100H0z" style="fill:#fff" transform="matrix(.16 0 0 .16 496 544)"/><path d="M0 0h100v100H0z" style="fill:#fff" transform="matrix(.16 0 0 .16 528 544)"/><path d="M0 0h100v100H0z" style="fill:#fff" transform="matrix(.16 0 0 .16 544 544)"/><path d="M0 0h100v100H0z" style="fill:#fff" transform="matrix(.16 0 0 .16 576 544)"/><path d="M0 0h100v100H0z" style="fill:#fff" transform="matrix(.16 0 0 .16 608 544)"/><path d="M0 0h100v100H0z" style="fill:#fff" transform="matrix(.16 0 0 .16 624 544)"/><path d="M0 0h100v100H0z" style="fill:#fff" transform="matrix(.16 0 0 .16 656 544)"/><path d="M0 0h100v100H0z" style="fill:#fff" transform="matrix(.16 0 0 .16 688 544)"/><path d="M0 0h100v100H0z" style="fill:#fff" transform="matrix(.16 0 0 .16 704 544)"/><path d="M0 0h100v100H0z" style="fill:#fff" transform="matrix(.16 0 0 .16 720 544)"/><path d="M0 0h100v100H0z" style="fill:#fff" transform="matrix(.16 0 0 .16 32 560)"/><path d="M0 0h100v100H0z" style="fill:#fff" transform="matrix(.16 0 0 .16 112 560)"/><path d="M0 0h100v100H0z" style="fill:#fff" transform="matrix(.16 0 0 .16 128 560)"/><path d="M0 0h100v100H0z" style="fill:#fff" transform="matrix(.16 0 0 .16 160 560)"/><path d="M0 0h100v100H0z" style="fill:#fff" transform="matrix(.16 0 0 .16 176 560)"/><path d="M0 0h100v100H0z" style="fill:#fff" transform="matrix(.16 0 0 .16 192 560)"/><path d="M0 0h100v100H0z" style="fill:#fff" transform="matrix(.16 0 0 .16 224 560)"/><path d="M0 0h100v100H0z" style="fill:#fff" transform="matrix(.16 0 0 .16 256 560)"/><path d="M0 0h100v100H0z" style="fill:#fff" transform="matrix(.16 0 0 .16 272 560)"/><path d="M0 0h100v100H0z" style="fill:#fff" transform="matrix(.16 0 0 .16 336 560)"/><path d="M0 0h100v100H0z" style="fill:#fff" transform="matrix(.16 0 0 .16 352 560)"/><path d="M0 0h100v100H0z" style="fill:#fff" transform="matrix(.16 0 0 .16 368 560)"/><path d="M0 0h100v100H0z" style="fill:#fff" transform="matrix(.16 0 0 .16 432 560)"/><path d="M0 0h100v100H0z" style="fill:#fff" transform="matrix(.16 0 0 .16 464 560)"/><path d="M0 0h100v100H0z" style="fill:#fff" transform="matrix(.16 0 0 .16 528 560)"/><path d="M0 0h100v100H0z" style="fill:#fff" transform="matrix(.16 0 0 .16 560 560)"/><path d="M0 0h100v100H0z" style="fill:#fff" transform="matrix(.16 0 0 .16 608 560)"/><path d="M0 0h100v100H0z" style="fill:#fff" transform="matrix(.16 0 0 .16 624 560)"/><path d="M0 0h100v100H0z" style="fill:#fff" transform="matrix(.16 0 0 .16 656 560)"/><path d="M0 0h100v100H0z" style="fill:#fff" transform="matrix(.16 0 0 .16 672 560)"/><path d="M0 0h100v100H0z" style="fill:#fff" transform="matrix(.16 0 0 .16 704 560)"/><path d="M0 0h100v100H0z" style="fill:#fff" transform="matrix(.16 0 0 .16 720 560)"/><path d="M0 0h100v100H0z" style="fill:#fff" transform="matrix(.16 0 0 .16 736 560)"/><path d="M0 0h100v100H0z" style="fill:#fff" transform="matrix(.16 0 0 .16 752 560)"/><path d="M0 0h100v100H0z" style="fill:#fff" transform="matrix(.16 0 0 .16 16 576)"/><path d="M0 0h100v100H0z" style="fill:#fff" transform="matrix(.16 0 0 .16 32 576)"/><path d="M0 0h100v100H0z" style="fill:#fff" transform="matrix(.16 0 0 .16 48 576)"/><path d="M0 0h100v100H0z" style="fill:#fff" transform="matrix(.16 0 0 .16 64 576)"/><path d="M0 0h100v100H0z" style="fill:#fff" transform="matrix(.16 0 0 .16 96 576)"/><path d="M0 0h100v100H0z" style="fill:#fff" transform="matrix(.16 0 0 .16 128 576)"/><path d="M0 0h100v100H0z" style="fill:#fff" transform="matrix(.16 0 0 .16 160 576)"/><path d="M0 0h100v100H0z" style="fill:#fff" transform="matrix(.16 0 0 .16 176 576)"/><path d="M0 0h100v100H0z" style="fill:#fff" transform="matrix(.16 0 0 .16 224 576)"/><path d="M0 0h100v100H0z" style="fill:#fff" transform="matrix(.16 0 0 .16 272 576)"/><path d="M0 0h100v100H0z" style="fill:#fff" transform="matrix(.16 0 0 .16 288 576)"/><path d="M0 0h100v100H0z" style="fill:#fff" transform="matrix(.16 0 0 .16 352 576)"/><path d="M0 0h100v100H0z" style="fill:#fff" transform="matrix(.16 0 0 .16 368 576)"/><path d="M0 0h100v100H0z" style="fill:#fff" transform="matrix(.16 0 0 .16 400 576)"/><path d="M0 0h100v100H0z" style="fill:#fff" transform="matrix(.16 0 0 .16 416 576)"/><path d="M0 0h100v100H0z" style="fill:#fff" transform="matrix(.16 0 0 .16 432 576)"/><path d="M0 0h100v100H0z" style="fill:#fff" transform="matrix(.16 0 0 .16 464 576)"/><path d="M0 0h100v100H0z" style="fill:#fff" transform="matrix(.16 0 0 .16 528 576)"/><path d="M0 0h100v100H0z" style="fill:#fff" transform="matrix(.16 0 0 .16 544 576)"/><path d="M0 0h100v100H0z" style="fill:#fff" transform="matrix(.16 0 0 .16 624 576)"/><path d="M0 0h100v100H0z" style="fill:#fff" transform="matrix(.16 0 0 .16 752 576)"/><path d="M0 0h100v100H0z" style="fill:#fff" transform="matrix(.16 0 0 .16 16 592)"/><path d="M0 0h100v100H0z" style="fill:#fff" transform="matrix(.16 0 0 .16 32 592)"/><path d="M0 0h100v100H0z" style="fill:#fff" transform="matrix(.16 0 0 .16 48 592)"/><path d="M0 0h100v100H0z" style="fill:#fff" transform="matrix(.16 0 0 .16 112 592)"/><path d="M0 0h100v100H0z" style="fill:#fff" transform="matrix(.16 0 0 .16 128 592)"/><path d="M0 0h100v100H0z" style="fill:#fff" transform="matrix(.16 0 0 .16 176 592)"/><path d="M0 0h100v100H0z" style="fill:#fff" transform="matrix(.16 0 0 .16 192 592)"/><path d="M0 0h100v100H0z" style="fill:#fff" transform="matrix(.16 0 0 .16 256 592)"/><path d="M0 0h100v100H0z" style="fill:#fff" transform="matrix(.16 0 0 .16 320 592)"/><path d="M0 0h100v100H0z" style="fill:#fff" transform="matrix(.16 0 0 .16 384 592)"/><path d="M0 0h100v100H0z" style="fill:#fff" transform="matrix(.16 0 0 .16 432 592)"/><path d="M0 0h100v100H0z" style="fill:#fff" transform="matrix(.16 0 0 .16 496 592)"/><path d="M0 0h100v100H0z" style="fill:#fff" transform="matrix(.16 0 0 .16 512 592)"/><path d="M0 0h100v100H0z" style="fill:#fff" transform="matrix(.16 0 0 .16 528 592)"/><path d="M0 0h100v100H0z" style="fill:#fff" transform="matrix(.16 0 0 .16 544 592)"/><path d="M0 0h100v100H0z" style="fill:#fff" transform="matrix(.16 0 0 .16 640 592)"/><path d="M0 0h100v100H0z" style="fill:#fff" transform="matrix(.16 0 0 .16 672 592)"/><path d="M0 0h100v100H0z" style="fill:#fff" transform="matrix(.16 0 0 .16 752 592)"/><path d="M0 0h100v100H0z" style="fill:#fff" transform="matrix(.16 0 0 .16 768 592)"/><path d="M0 0h100v100H0z" style="fill:#fff" transform="matrix(.16 0 0 .16 16 608)"/><path d="M0 0h100v100H0z" style="fill:#fff" transform="matrix(.16 0 0 .16 80 608)"/><path d="M0 0h100v100H0z" style="fill:#fff" transform="matrix(.16 0 0 .16 96 608)"/><path d="M0 0h100v100H0z" style="fill:#fff" transform="matrix(.16 0 0 .16 128 608)"/><path d="M0 0h100v100H0z" style="fill:#fff" transform="matrix(.16 0 0 .16 176 608)"/><path d="M0 0h100v100H0z" style="fill:#fff" transform="matrix(.16 0 0 .16 208 608)"/><path d="M0 0h100v100H0z" style="fill:#fff" transform="matrix(.16 0 0 .16 288 608)"/><path d="M0 0h100v100H0z" style="fill:#fff" transform="matrix(.16 0 0 .16 304 608)"/><path d="M0 0h100v100H0z" style="fill:#fff" transform="matrix(.16 0 0 .16 320 608)"/><path d="M0 0h100v100H0z" style="fill:#fff" transform="matrix(.16 0 0 .16 352 608)"/><path d="M0 0h100v100H0z" style="fill:#fff" transform="matrix(.16 0 0 .16 368 608)"/><path d="M0 0h100v100H0z" style="fill:#fff" transform="matrix(.16 0 0 .16 400 608)"/><path d="M0 0h100v100H0z" style="fill:#fff" transform="matrix(.16 0 0 .16 432 608)"/><path d="M0 0h100v100H0z" style="fill:#fff" transform="matrix(.16 0 0 .16 448 608)"/><path d="M0 0h100v100H0z" style="fill:#fff" transform="matrix(.16 0 0 .16 464 608)"/><path d="M0 0h100v100H0z" style="fill:#fff" transform="matrix(.16 0 0 .16 496 608)"/><path d="M0 0h100v100H0z" style="fill:#fff" transform="matrix(.16 0 0 .16 544 608)"/><path d="M0 0h100v100H0z" style="fill:#fff" transform="matrix(.16 0 0 .16 560 608)"/><path d="M0 0h100v100H0z" style="fill:#fff" transform="matrix(.16 0 0 .16 576 608)"/><path d="M0 0h100v100H0z" style="fill:#fff" transform="matrix(.16 0 0 .16 624 608)"/><path d="M0 0h100v100H0z" style="fill:#fff" transform="matrix(.16 0 0 .16 640 608)"/><path d="M0 0h100v100H0z" style="fill:#fff" transform="matrix(.16 0 0 .16 672 608)"/><path d="M0 0h100v100H0z" style="fill:#fff" transform="matrix(.16 0 0 .16 688 608)"/><path d="M0 0h100v100H0z" style="fill:#fff" transform="matrix(.16 0 0 .16 720 608)"/><path d="M0 0h100v100H0z" style="fill:#fff" transform="matrix(.16 0 0 .16 736 608)"/><path d="M0 0h100v100H0z" style="fill:#fff" transform="matrix(.16 0 0 .16 752 608)"/><path d="M0 0h100v100H0z" style="fill:#fff" transform="matrix(.16 0 0 .16 16 624)"/><path d="M0 0h100v100H0z" style="fill:#fff" transform="matrix(.16 0 0 .16 32 624)"/><path d="M0 0h100v100H0z" style="fill:#fff" transform="matrix(.16 0 0 .16 48 624)"/><path d="M0 0h100v100H0z" style="fill:#fff" transform="matrix(.16 0 0 .16 144 624)"/><path d="M0 0h100v100H0z" style="fill:#fff" transform="matrix(.16 0 0 .16 176 624)"/><path d="M0 0h100v100H0z" style="fill:#fff" transform="matrix(.16 0 0 .16 192 624)"/><path d="M0 0h100v100H0z" style="fill:#fff" transform="matrix(.16 0 0 .16 208 624)"/><path d="M0 0h100v100H0z" style="fill:#fff" transform="matrix(.16 0 0 .16 240 624)"/><path d="M0 0h100v100H0z" style="fill:#fff" transform="matrix(.16 0 0 .16 256 624)"/><path d="M0 0h100v100H0z" style="fill:#fff" transform="matrix(.16 0 0 .16 288 624)"/><path d="M0 0h100v100H0z" style="fill:#fff" transform="matrix(.16 0 0 .16 304 624)"/><path d="M0 0h100v100H0z" style="fill:#fff" transform="matrix(.16 0 0 .16 320 624)"/><path d="M0 0h100v100H0z" style="fill:#fff" transform="matrix(.16 0 0 .16 352 624)"/><path d="M0 0h100v100H0z" style="fill:#fff" transform="matrix(.16 0 0 .16 384 624)"/><path d="M0 0h100v100H0z" style="fill:#fff" transform="matrix(.16 0 0 .16 464 624)"/><path d="M0 0h100v100H0z" style="fill:#fff" transform="matrix(.16 0 0 .16 512 624)"/><path d="M0 0h100v100H0z" style="fill:#fff" transform="matrix(.16 0 0 .16 528 624)"/><path d="M0 0h100v100H0z" style="fill:#fff" transform="matrix(.16 0 0 .16 576 624)"/><path d="M0 0h100v100H0z" style="fill:#fff" transform="matrix(.16 0 0 .16 640 624)"/><path d="M0 0h100v100H0z" style="fill:#fff" transform="matrix(.16 0 0 .16 672 624)"/><path d="M0 0h100v100H0z" style="fill:#fff" transform="matrix(.16 0 0 .16 720 624)"/><path d="M0 0h100v100H0z" style="fill:#fff" transform="matrix(.16 0 0 .16 752 624)"/><path d="M0 0h100v100H0z" style="fill:#fff" transform="matrix(.16 0 0 .16 768 624)"/><path d="M0 0h100v100H0z" style="fill:#fff" transform="matrix(.16 0 0 .16 0 640)"/><path d="M0 0h100v100H0z" style="fill:#fff" transform="matrix(.16 0 0 .16 16 640)"/><path d="M0 0h100v100H0z" style="fill:#fff" transform="matrix(.16 0 0 .16 32 640)"/><path d="M0 0h100v100H0z" style="fill:#fff" transform="matrix(.16 0 0 .16 96 640)"/><path d="M0 0h100v100H0z" style="fill:#fff" transform="matrix(.16 0 0 .16 112 640)"/><path d="M0 0h100v100H0z" style="fill:#fff" transform="matrix(.16 0 0 .16 128 640)"/><path d="M0 0h100v100H0z" style="fill:#fff" transform="matrix(.16 0 0 .16 144 640)"/><path d="M0 0h100v100H0z" style="fill:#fff" transform="matrix(.16 0 0 .16 208 640)"/><path d="M0 0h100v100H0z" style="fill:#fff" transform="matrix(.16 0 0 .16 320 640)"/><path d="M0 0h100v100H0z" style="fill:#fff" transform="matrix(.16 0 0 .16 336 640)"/><path d="M0 0h100v100H0z" style="fill:#fff" transform="matrix(.16 0 0 .16 352 640)"/><path d="M0 0h100v100H0z" style="fill:#fff" transform="matrix(.16 0 0 .16 368 640)"/><path d="M0 0h100v100H0z" style="fill:#fff" transform="matrix(.16 0 0 .16 384 640)"/><path d="M0 0h100v100H0z" style="fill:#fff" transform="matrix(.16 0 0 .16 400 640)"/><path d="M0 0h100v100H0z" style="fill:#fff" transform="matrix(.16 0 0 .16 416 640)"/><path d="M0 0h100v100H0z" style="fill:#fff" transform="matrix(.16 0 0 .16 480 640)"/><path d="M0 0h100v100H0z" style="fill:#fff" transform="matrix(.16 0 0 .16 496 640)"/><path d="M0 0h100v100H0z" style="fill:#fff" transform="matrix(.16 0 0 .16 528 640)"/><path d="M0 0h100v100H0z" style="fill:#fff" transform="matrix(.16 0 0 .16 560 640)"/><path d="M0 0h100v100H0z" style="fill:#fff" transform="matrix(.16 0 0 .16 576 640)"/><path d="M0 0h100v100H0z" style="fill:#fff" transform="matrix(.16 0 0 .16 592 640)"/><path d="M0 0h100v100H0z" style="fill:#fff" transform="matrix(.16 0 0 .16 608 640)"/><path d="M0 0h100v100H0z" style="fill:#fff" transform="matrix(.16 0 0 .16 640 640)"/><path d="M0 0h100v100H0z" style="fill:#fff" transform="matrix(.16 0 0 .16 656 640)"/><path d="M0 0h100v100H0z" style="fill:#fff" transform="matrix(.16 0 0 .16 672 640)"/><path d="M0 0h100v100H0z" style="fill:#fff" transform="matrix(.16 0 0 .16 688 640)"/><path d="M0 0h100v100H0z" style="fill:#fff" transform="matrix(.16 0 0 .16 704 640)"/><path d="M0 0h100v100H0z" style="fill:#fff" transform="matrix(.16 0 0 .16 720 640)"/><path d="M0 0h100v100H0z" style="fill:#fff" transform="matrix(.16 0 0 .16 752 640)"/><path d="M0 0h100v100H0z" style="fill:#fff" transform="matrix(.16 0 0 .16 768 640)"/><path d="M0 0h100v100H0z" style="fill:#fff" transform="matrix(.16 0 0 .16 128 656)"/><path d="M0 0h100v100H0z" style="fill:#fff" transform="matrix(.16 0 0 .16 192 656)"/><path d="M0 0h100v100H0z" style="fill:#fff" transform="matrix(.16 0 0 .16 224 656)"/><path d="M0 0h100v100H0z" style="fill:#fff" transform="matrix(.16 0 0 .16 240 656)"/><path d="M0 0h100v100H0z" style="fill:#fff" transform="matrix(.16 0 0 .16 272 656)"/><path d="M0 0h100v100H0z" style="fill:#fff" transform="matrix(.16 0 0 .16 304 656)"/><path d="M0 0h100v100H0z" style="fill:#fff" transform="matrix(.16 0 0 .16 352 656)"/><path d="M0 0h100v100H0z" style="fill:#fff" transform="matrix(.16 0 0 .16 416 656)"/><path d="M0 0h100v100H0z" style="fill:#fff" transform="matrix(.16 0 0 .16 480 656)"/><path d="M0 0h100v100H0z" style="fill:#fff" transform="matrix(.16 0 0 .16 496 656)"/><path d="M0 0h100v100H0z" style="fill:#fff" transform="matrix(.16 0 0 .16 544 656)"/><path d="M0 0h100v100H0z" style="fill:#fff" transform="matrix(.16 0 0 .16 560 656)"/><path d="M0 0h100v100H0z" style="fill:#fff" transform="matrix(.16 0 0 .16 576 656)"/><path d="M0 0h100v100H0z" style="fill:#fff" transform="matrix(.16 0 0 .16 592 656)"/><path d="M0 0h100v100H0z" style="fill:#fff" transform="matrix(.16 0 0 .16 640 656)"/><path d="M0 0h100v100H0z" style="fill:#fff" transform="matrix(.16 0 0 .16 704 656)"/><path d="M0 0h100v100H0z" style="fill:#fff" transform="matrix(.16 0 0 .16 736 656)"/><path d="M0 0h100v100H0z" style="fill:#fff" transform="matrix(.16 0 0 .16 768 656)"/><path d="M0 0h100v100H0z" style="fill:#fff" transform="matrix(.16 0 0 .16 128 672)"/><path d="M0 0h100v100H0z" style="fill:#fff" transform="matrix(.16 0 0 .16 160 672)"/><path d="M0 0h100v100H0z" style="fill:#fff" transform="matrix(.16 0 0 .16 176 672)"/><path d="M0 0h100v100H0z" style="fill:#fff" transform="matrix(.16 0 0 .16 208 672)"/><path d="M0 0h100v100H0z" style="fill:#fff" transform="matrix(.16 0 0 .16 240 672)"/><path d="M0 0h100v100H0z" style="fill:#fff" transform="matrix(.16 0 0 .16 256 672)"/><path d="M0 0h100v100H0z" style="fill:#fff" transform="matrix(.16 0 0 .16 272 672)"/><path d="M0 0h100v100H0z" style="fill:#fff" transform="matrix(.16 0 0 .16 288 672)"/><path d="M0 0h100v100H0z" style="fill:#fff" transform="matrix(.16 0 0 .16 304 672)"/><path d="M0 0h100v100H0z" style="fill:#fff" transform="matrix(.16 0 0 .16 320 672)"/><path d="M0 0h100v100H0z" style="fill:#fff" transform="matrix(.16 0 0 .16 336 672)"/><path d="M0 0h100v100H0z" style="fill:#fff" transform="matrix(.16 0 0 .16 352 672)"/><path d="M0 0h100v100H0z" style="fill:#fff" transform="matrix(.16 0 0 .16 384 672)"/><path d="M0 0h100v100H0z" style="fill:#fff" transform="matrix(.16 0 0 .16 416 672)"/><path d="M0 0h100v100H0z" style="fill:#fff" transform="matrix(.16 0 0 .16 464 672)"/><path d="M0 0h100v100H0z" style="fill:#fff" transform="matrix(.16 0 0 .16 496 672)"/><path d="M0 0h100v100H0z" style="fill:#fff" transform="matrix(.16 0 0 .16 560 672)"/><path d="M0 0h100v100H0z" style="fill:#fff" transform="matrix(.16 0 0 .16 592 672)"/><path d="M0 0h100v100H0z" style="fill:#fff" transform="matrix(.16 0 0 .16 624 672)"/><path d="M0 0h100v100H0z" style="fill:#fff" transform="matrix(.16 0 0 .16 640 672)"/><path d="M0 0h100v100H0z" style="fill:#fff" transform="matrix(.16 0 0 .16 672 672)"/><path d="M0 0h100v100H0z" style="fill:#fff" transform="matrix(.16 0 0 .16 704 672)"/><path d="M0 0h100v100H0z" style="fill:#fff" transform="matrix(.16 0 0 .16 752 672)"/><path d="M0 0h100v100H0z" style="fill:#fff" transform="matrix(.16 0 0 .16 768 672)"/><path d="M0 0h100v100H0z" style="fill:#fff" transform="matrix(.16 0 0 .16 144 688)"/><path d="M0 0h100v100H0z" style="fill:#fff" transform="matrix(.16 0 0 .16 176 688)"/><path d="M0 0h100v100H0z" style="fill:#fff" transform="matrix(.16 0 0 .16 240 688)"/><path d="M0 0h100v100H0z" style="fill:#fff" transform="matrix(.16 0 0 .16 256 688)"/><path d="M0 0h100v100H0z" style="fill:#fff" transform="matrix(.16 0 0 .16 272 688)"/><path d="M0 0h100v100H0z" style="fill:#fff" transform="matrix(.16 0 0 .16 288 688)"/><path d="M0 0h100v100H0z" style="fill:#fff" transform="matrix(.16 0 0 .16 304 688)"/><path d="M0 0h100v100H0z" style="fill:#fff" transform="matrix(.16 0 0 .16 336 688)"/><path d="M0 0h100v100H0z" style="fill:#fff" transform="matrix(.16 0 0 .16 352 688)"/><path d="M0 0h100v100H0z" style="fill:#fff" transform="matrix(.16 0 0 .16 416 688)"/><path d="M0 0h100v100H0z" style="fill:#fff" transform="matrix(.16 0 0 .16 448 688)"/><path d="M0 0h100v100H0z" style="fill:#fff" transform="matrix(.16 0 0 .16 480 688)"/><path d="M0 0h100v100H0z" style="fill:#fff" transform="matrix(.16 0 0 .16 496 688)"/><path d="M0 0h100v100H0z" style="fill:#fff" transform="matrix(.16 0 0 .16 560 688)"/><path d="M0 0h100v100H0z" style="fill:#fff" transform="matrix(.16 0 0 .16 576 688)"/><path d="M0 0h100v100H0z" style="fill:#fff" transform="matrix(.16 0 0 .16 592 688)"/><path d="M0 0h100v100H0z" style="fill:#fff" transform="matrix(.16 0 0 .16 624 688)"/><path d="M0 0h100v100H0z" style="fill:#fff" transform="matrix(.16 0 0 .16 640 688)"/><path d="M0 0h100v100H0z" style="fill:#fff" transform="matrix(.16 0 0 .16 704 688)"/><path d="M0 0h100v100H0z" style="fill:#fff" transform="matrix(.16 0 0 .16 720 688)"/><path d="M0 0h100v100H0z" style="fill:#fff" transform="matrix(.16 0 0 .16 752 688)"/><path d="M0 0h100v100H0z" style="fill:#fff" transform="matrix(.16 0 0 .16 768 688)"/><path d="M0 0h100v100H0z" style="fill:#fff" transform="matrix(.16 0 0 .16 176 704)"/><path d="M0 0h100v100H0z" style="fill:#fff" transform="matrix(.16 0 0 .16 208 704)"/><path d="M0 0h100v100H0z" style="fill:#fff" transform="matrix(.16 0 0 .16 240 704)"/><path d="M0 0h100v100H0z" style="fill:#fff" transform="matrix(.16 0 0 .16 256 704)"/><path d="M0 0h100v100H0z" style="fill:#fff" transform="matrix(.16 0 0 .16 352 704)"/><path d="M0 0h100v100H0z" style="fill:#fff" transform="matrix(.16 0 0 .16 368 704)"/><path d="M0 0h100v100H0z" style="fill:#fff" transform="matrix(.16 0 0 .16 384 704)"/><path d="M0 0h100v100H0z" style="fill:#fff" transform="matrix(.16 0 0 .16 400 704)"/><path d="M0 0h100v100H0z" style="fill:#fff" transform="matrix(.16 0 0 .16 416 704)"/><path d="M0 0h100v100H0z" style="fill:#fff" transform="matrix(.16 0 0 .16 432 704)"/><path d="M0 0h100v100H0z" style="fill:#fff" transform="matrix(.16 0 0 .16 448 704)"/><path d="M0 0h100v100H0z" style="fill:#fff" transform="matrix(.16 0 0 .16 464 704)"/><path d="M0 0h100v100H0z" style="fill:#fff" transform="matrix(.16 0 0 .16 496 704)"/><path d="M0 0h100v100H0z" style="fill:#fff" transform="matrix(.16 0 0 .16 528 704)"/><path d="M0 0h100v100H0z" style="fill:#fff" transform="matrix(.16 0 0 .16 544 704)"/><path d="M0 0h100v100H0z" style="fill:#fff" transform="matrix(.16 0 0 .16 560 704)"/><path d="M0 0h100v100H0z" style="fill:#fff" transform="matrix(.16 0 0 .16 640 704)"/><path d="M0 0h100v100H0z" style="fill:#fff" transform="matrix(.16 0 0 .16 656 704)"/><path d="M0 0h100v100H0z" style="fill:#fff" transform="matrix(.16 0 0 .16 672 704)"/><path d="M0 0h100v100H0z" style="fill:#fff" transform="matrix(.16 0 0 .16 688 704)"/><path d="M0 0h100v100H0z" style="fill:#fff" transform="matrix(.16 0 0 .16 704 704)"/><path d="M0 0h100v100H0z" style="fill:#fff" transform="matrix(.16 0 0 .16 752 704)"/><path d="M0 0h100v100H0z" style="fill:#fff" transform="matrix(.16 0 0 .16 768 704)"/><path d="M0 0h100v100H0z" style="fill:#fff" transform="matrix(.16 0 0 .16 128 720)"/><path d="M0 0h100v100H0z" style="fill:#fff" transform="matrix(.16 0 0 .16 144 720)"/><path d="M0 0h100v100H0z" style="fill:#fff" transform="matrix(.16 0 0 .16 176 720)"/><path d="M0 0h100v100H0z" style="fill:#fff" transform="matrix(.16 0 0 .16 192 720)"/><path d="M0 0h100v100H0z" style="fill:#fff" transform="matrix(.16 0 0 .16 208 720)"/><path d="M0 0h100v100H0z" style="fill:#fff" transform="matrix(.16 0 0 .16 240 720)"/><path d="M0 0h100v100H0z" style="fill:#fff" transform="matrix(.16 0 0 .16 320 720)"/><path d="M0 0h100v100H0z" style="fill:#fff" transform="matrix(.16 0 0 .16 352 720)"/><path d="M0 0h100v100H0z" style="fill:#fff" transform="matrix(.16 0 0 .16 400 720)"/><path d="M0 0h100v100H0z" style="fill:#fff" transform="matrix(.16 0 0 .16 432 720)"/><path d="M0 0h100v100H0z" style="fill:#fff" transform="matrix(.16 0 0 .16 464 720)"/><path d="M0 0h100v100H0z" style="fill:#fff" transform="matrix(.16 0 0 .16 592 720)"/><path d="M0 0h100v100H0z" style="fill:#fff" transform="matrix(.16 0 0 .16 624 720)"/><path d="M0 0h100v100H0z" style="fill:#fff" transform="matrix(.16 0 0 .16 704 720)"/><path d="M0 0h100v100H0z" style="fill:#fff" transform="matrix(.16 0 0 .16 736 720)"/><path d="M0 0h100v100H0z" style="fill:#fff" transform="matrix(.16 0 0 .16 768 720)"/><path d="M0 0h100v100H0z" style="fill:#fff" transform="matrix(.16 0 0 .16 128 736)"/><path d="M0 0h100v100H0z" style="fill:#fff" transform="matrix(.16 0 0 .16 144 736)"/><path d="M0 0h100v100H0z" style="fill:#fff" transform="matrix(.16 0 0 .16 160 736)"/><path d="M0 0h100v100H0z" style="fill:#fff" transform="matrix(.16 0 0 .16 208 736)"/><path d="M0 0h100v100H0z" style="fill:#fff" transform="matrix(.16 0 0 .16 224 736)"/><path d="M0 0h100v100H0z" style="fill:#fff" transform="matrix(.16 0 0 .16 256 736)"/><path d="M0 0h100v100H0z" style="fill:#fff" transform="matrix(.16 0 0 .16 272 736)"/><path d="M0 0h100v100H0z" style="fill:#fff" transform="matrix(.16 0 0 .16 304 736)"/><path d="M0 0h100v100H0z" style="fill:#fff" transform="matrix(.16 0 0 .16 336 736)"/><path d="M0 0h100v100H0z" style="fill:#fff" transform="matrix(.16 0 0 .16 352 736)"/><path d="M0 0h100v100H0z" style="fill:#fff" transform="matrix(.16 0 0 .16 368 736)"/><path d="M0 0h100v100H0z" style="fill:#fff" transform="matrix(.16 0 0 .16 400 736)"/><path d="M0 0h100v100H0z" style="fill:#fff" transform="matrix(.16 0 0 .16 416 736)"/><path d="M0 0h100v100H0z" style="fill:#fff" transform="matrix(.16 0 0 .16 448 736)"/><path d="M0 0h100v100H0z" style="fill:#fff" transform="matrix(.16 0 0 .16 496 736)"/><path d="M0 0h100v100H0z" style="fill:#fff" transform="matrix(.16 0 0 .16 512 736)"/><path d="M0 0h100v100H0z" style="fill:#fff" transform="matrix(.16 0 0 .16 544 736)"/><path d="M0 0h100v100H0z" style="fill:#fff" transform="matrix(.16 0 0 .16 560 736)"/><path d="M0 0h100v100H0z" style="fill:#fff" transform="matrix(.16 0 0 .16 624 736)"/><path d="M0 0h100v100H0z" style="fill:#fff" transform="matrix(.16 0 0 .16 640 736)"/><path d="M0 0h100v100H0z" style="fill:#fff" transform="matrix(.16 0 0 .16 672 736)"/><path d="M0 0h100v100H0z" style="fill:#fff" transform="matrix(.16 0 0 .16 688 736)"/><path d="M0 0h100v100H0z" style="fill:#fff" transform="matrix(.16 0 0 .16 704 736)"/><path d="M0 0h100v100H0z" style="fill:#fff" transform="matrix(.16 0 0 .16 720 736)"/><path d="M0 0h100v100H0z" style="fill:#fff" transform="matrix(.16 0 0 .16 736 736)"/><path d="M0 0h100v100H0z" style="fill:#fff" transform="matrix(.16 0 0 .16 144 752)"/><path d="M0 0h100v100H0z" style="fill:#fff" transform="matrix(.16 0 0 .16 160 752)"/><path d="M0 0h100v100H0z" style="fill:#fff" transform="matrix(.16 0 0 .16 176 752)"/><path d="M0 0h100v100H0z" style="fill:#fff" transform="matrix(.16 0 0 .16 192 752)"/><path d="M0 0h100v100H0z" style="fill:#fff" transform="matrix(.16 0 0 .16 208 752)"/><path d="M0 0h100v100H0z" style="fill:#fff" transform="matrix(.16 0 0 .16 224 752)"/><path d="M0 0h100v100H0z" style="fill:#fff" transform="matrix(.16 0 0 .16 272 752)"/><path d="M0 0h100v100H0z" style="fill:#fff" transform="matrix(.16 0 0 .16 304 752)"/><path d="M0 0h100v100H0z" style="fill:#fff" transform="matrix(.16 0 0 .16 320 752)"/><path d="M0 0h100v100H0z" style="fill:#fff" transform="matrix(.16 0 0 .16 336 752)"/><path d="M0 0h100v100H0z" style="fill:#fff" transform="matrix(.16 0 0 .16 352 752)"/><path d="M0 0h100v100H0z" style="fill:#fff" transform="matrix(.16 0 0 .16 368 752)"/><path d="M0 0h100v100H0z" style="fill:#fff" transform="matrix(.16 0 0 .16 464 752)"/><path d="M0 0h100v100H0z" style="fill:#fff" transform="matrix(.16 0 0 .16 496 752)"/><path d="M0 0h100v100H0z" style="fill:#fff" transform="matrix(.16 0 0 .16 512 752)"/><path d="M0 0h100v100H0z" style="fill:#fff" transform="matrix(.16 0 0 .16 544 752)"/><path d="M0 0h100v100H0z" style="fill:#fff" transform="matrix(.16 0 0 .16 592 752)"/><path d="M0 0h100v100H0z" style="fill:#fff" transform="matrix(.16 0 0 .16 608 752)"/><path d="M0 0h100v100H0z" style="fill:#fff" transform="matrix(.16 0 0 .16 672 752)"/><path d="M0 0h100v100H0z" style="fill:#fff" transform="matrix(.16 0 0 .16 704 752)"/><path d="M0 0h100v100H0z" style="fill:#fff" transform="matrix(.16 0 0 .16 720 752)"/><path d="M0 0h100v100H0z" style="fill:#fff" transform="matrix(.16 0 0 .16 736 752)"/><path d="M0 0h100v100H0z" style="fill:#fff" transform="matrix(.16 0 0 .16 160 768)"/><path d="M0 0h100v100H0z" style="fill:#fff" transform="matrix(.16 0 0 .16 192 768)"/><path d="M0 0h100v100H0z" style="fill:#fff" transform="matrix(.16 0 0 .16 240 768)"/><path d="M0 0h100v100H0z" style="fill:#fff" transform="matrix(.16 0 0 .16 272 768)"/><path d="M0 0h100v100H0z" style="fill:#fff" transform="matrix(.16 0 0 .16 288 768)"/><path d="M0 0h100v100H0z" style="fill:#fff" transform="matrix(.16 0 0 .16 320 768)"/><path d="M0 0h100v100H0z" style="fill:#fff" transform="matrix(.16 0 0 .16 336 768)"/><path d="M0 0h100v100H0z" style="fill:#fff" transform="matrix(.16 0 0 .16 352 768)"/><path d="M0 0h100v100H0z" style="fill:#fff" transform="matrix(.16 0 0 .16 400 768)"/><path d="M0 0h100v100H0z" style="fill:#fff" transform="matrix(.16 0 0 .16 416 768)"/><path d="M0 0h100v100H0z" style="fill:#fff" transform="matrix(.16 0 0 .16 448 768)"/><path d="M0 0h100v100H0z" style="fill:#fff" transform="matrix(.16 0 0 .16 464 768)"/><path d="M0 0h100v100H0z" style="fill:#fff" transform="matrix(.16 0 0 .16 480 768)"/><path d="M0 0h100v100H0z" style="fill:#fff" transform="matrix(.16 0 0 .16 496 768)"/><path d="M0 0h100v100H0z" style="fill:#fff" transform="matrix(.16 0 0 .16 560 768)"/><path d="M0 0h100v100H0z" style="fill:#fff" transform="matrix(.16 0 0 .16 576 768)"/><path d="M0 0h100v100H0z" style="fill:#fff" transform="matrix(.16 0 0 .16 592 768)"/><path d="M0 0h100v100H0z" style="fill:#fff" transform="matrix(.16 0 0 .16 608 768)"/><path d="M0 0h100v100H0z" style="fill:#fff" transform="matrix(.16 0 0 .16 640 768)"/><path d="M0 0h100v100H0z" style="fill:#fff" transform="matrix(.16 0 0 .16 720 768)"/><path d="M0 0h100v100H0z" style="fill:#fff" transform="matrix(.16 0 0 .16 736 768)"/><path d="M0 0h100v100H0z" style="fill:#fff" transform="matrix(.16 0 0 .16 752 768)"/><path d="M0 0h100v100H0z" style="fill:#fff" transform="matrix(.16 0 0 .16 768 768)"/><g style="fill:#fff"><path d="M15 15h70v70H15z" style="fill:none" transform="scale(1.12)"/><path d="M95.2 0H0v112h112V0zm0 95.2H16.8V16.8h78.4z"/></g><g style="fill:#fff"><path d="M15 15h70v70H15z" style="fill:none" transform="translate(672)scale(1.12)"/><path d="M767.2 0H672v112h112V0zm0 95.2h-78.4V16.8h78.4z"/></g><g style="fill:#fff"><path d="M15 15h70v70H15z" style="fill:none" transform="translate(0 672)scale(1.12)"/><path d="M95.2 672H0v112h112V672zm0 95.2H16.8v-78.4h78.4z"/></g><path d="M0 0h100v100H0z" style="fill:#fff" transform="matrix(.48 0 0 .48 32 32)"/><path d="M0 0h100v100H0z" style="fill:#fff" transform="matrix(.48 0 0 .48 704 32)"/><path d="M0 0h100v100H0z" style="fill:#fff" transform="matrix(.48 0 0 .48 32 704)"/></mask></defs><path fill="url(#a)" d="M0 0h784v784H0z" mask="url(#b)" transform="translate(32 32)"/><svg xmlns="http://www.w3.org/2000/svg" width="16" height="16" fill="currentColor" class="bi bi-envelope-at-fill" transform="matrix(15 0 0 15 304 304)" viewBox="0 0 16 16"><path d="M2 2A2 2 0 0 0 .05 3.555L8 8.414l7.95-4.859A2 2 0 0 0 14 2zm-2 9.8V4.698l5.803 3.546zm6.761-2.97-6.57 4.026A2 2 0 0 0 2 14h6.256A4.5 4.5 0 0 1 8 12.5a4.49 4.49 0 0 1 1.606-3.446l-.367-.225L8 9.586zM16 9.671V4.697l-5.803 3.546.338.208A4.5 4.5 0 0 1 12.5 8c1.414 0 2.675.652 3.5 1.671"/><path d="M15.834 12.244c0 1.168-.577 2.025-1.587 2.025-.503 0-1.002-.228-1.12-.648h-.043c-.118.416-.543.643-1.015.643-.77 0-1.259-.542-1.259-1.434v-.529c0-.844.481-1.4 1.26-1.4.585 0 .87.333.953.63h.03v-.568h.905v2.19c0 .272.18.42.411.42.315 0 .639-.415.639-1.39v-.118c0-1.277-.95-2.326-2.484-2.326h-.04c-1.582 0-2.64 1.067-2.64 2.724v.157c0 1.867 1.237 2.654 2.57 2.654h.045c.507 0 .935-.07 1.18-.18v.731c-.219.1-.643.175-1.237.175h-.044C10.438 16 9 14.82 9 12.646v-.214C9 10.36 10.421 9 12.485 9h.035c2.12 0 3.314 1.43 3.314 3.034zm-4.04.21v.227c0 .586.227.8.581.8.31 0 .564-.17.564-.743v-.367c0-.516-.275-.708-.572-.708-.346 0-.573.245-.573.791"/></svg></svg>