<svg xmlns="http://www.w3.org/2000/svg" xml:space="preserve" width="1113" height="1113"><path fill="#FFF" d="M0 0h1113v1113H0z"/><defs transform="translate(42 42)"><linearGradient id="a" gradientTransform="rotate(90)"><stop offset="5%"/><stop offset="95%" stop-color="#0277BD"/></linearGradient><mask id="b"><circle cx="50" cy="50" r="30" style="fill:#fff" transform="translate(210)scale(.21)"/><circle cx="50" cy="50" r="30" style="fill:#fff" transform="translate(231)scale(.21)"/><circle cx="50" cy="50" r="30" style="fill:#fff" transform="translate(273)scale(.21)"/><circle cx="50" cy="50" r="30" style="fill:#fff" transform="translate(336)scale(.21)"/><circle cx="50" cy="50" r="30" style="fill:#fff" transform="translate(399)scale(.21)"/><circle cx="50" cy="50" r="30" style="fill:#fff" transform="translate(441)scale(.21)"/><circle cx="50" cy="50" r="30" style="fill:#fff" transform="translate(462)scale(.21)"/><circle cx="50" cy="50" r="30" style="fill:#fff" transform="translate(483)scale(.21)"/><circle cx="50" cy="50" r="30" style="fill:#fff" transform="translate(504)scale(.21)"/><circle cx="50" cy="50" r="30" style="fill:#fff" transform="translate(546)scale(.21)"/><circle cx="50" cy="50" r="30" style="fill:#fff" transform="translate(588)scale(.21)"/><circle cx="50" cy="50" r="30" style="fill:#fff" transform="translate(651)scale(.21)"/><circle cx="50" cy="50" r="30" style="fill:#fff" transform="translate(672)scale(.21)"/><circle cx="50" cy="50" r="30" style="fill:#fff" transform="translate(735)scale(.21)"/><circle cx="50" cy="50" r="30" style="fill:#fff" transform="translate(777)scale(.21)"/><circle cx="50" cy="50" r="30" style="fill:#fff" transform="translate(840)scale(.21)"/><circle cx="50" cy="50" r="30" style="fill:#fff" transform="matrix(.21 0 0 .21 189 21)"/><circle cx="50" cy="50" r="30" style="fill:#fff" transform="matrix(.21 0 0 .21 210 21)"/><circle cx="50" cy="50" r="30" style="fill:#fff" transform="matrix(.21 0 0 .21 273 21)"/><circle cx="50" cy="50" r="30" style="fill:#fff" transform="matrix(.21 0 0 .21 294 21)"/><circle cx="50" cy="50" r="30" style="fill:#fff" transform="matrix(.21 0 0 .21 315 21)"/><circle cx="50" cy="50" r="30" style="fill:#fff" transform="matrix(.21 0 0 .21 336 21)"/><circle cx="50" cy="50" r="30" style="fill:#fff" transform="matrix(.21 0 0 .21 420 21)"/><circle cx="50" cy="50" r="30" style="fill:#fff" transform="matrix(.21 0 0 .21 462 21)"/><circle cx="50" cy="50" r="30" style="fill:#fff" transform="matrix(.21 0 0 .21 483 21)"/><circle cx="50" cy="50" r="30" style="fill:#fff" transform="matrix(.21 0 0 .21 525 21)"/><circle cx="50" cy="50" r="30" style="fill:#fff" transform="matrix(.21 0 0 .21 546 21)"/><circle cx="50" cy="50" r="30" style="fill:#fff" transform="matrix(.21 0 0 .21 588 21)"/><circle cx="50" cy="50" r="30" style="fill:#fff" transform="matrix(.21 0 0 .21 651 21)"/><circle cx="50" cy="50" r="30" style="fill:#fff" transform="matrix(.21 0 0 .21 672 21)"/><circle cx="50" cy="50" r="30" style="fill:#fff" transform="matrix(.21 0 0 .21 714 21)"/><circle cx="50" cy="50" r="30" style="fill:#fff" transform="matrix(.21 0 0 .21 777 21)"/><circle cx="50" cy="50" r="30" style="fill:#fff" transform="matrix(.21 0 0 .21 798 21)"/><circle cx="50" cy="50" r="30" style="fill:#fff" transform="matrix(.21 0 0 .21 819 21)"/><circle cx="50" cy="50" r="30" style="fill:#fff" transform="matrix(.21 0 0 .21 840 21)"/><circle cx="50" cy="50" r="30" style="fill:#fff" transform="matrix(.21 0 0 .21 189 42)"/><circle cx="50" cy="50" r="30" style="fill:#fff" transform="matrix(.21 0 0 .21 231 42)"/><circle cx="50" cy="50" r="30" style="fill:#fff" transform="matrix(.21 0 0 .21 252 42)"/><circle cx="50" cy="50" r="30" style="fill:#fff" transform="matrix(.21 0 0 .21 273 42)"/><circle cx="50" cy="50" r="30" style="fill:#fff" transform="matrix(.21 0 0 .21 294 42)"/><circle cx="50" cy="50" r="30" style="fill:#fff" transform="matrix(.21 0 0 .21 315 42)"/><circle cx="50" cy="50" r="30" style="fill:#fff" transform="matrix(.21 0 0 .21 336 42)"/><circle cx="50" cy="50" r="30" style="fill:#fff" transform="matrix(.21 0 0 .21 357 42)"/><circle cx="50" cy="50" r="30" style="fill:#fff" transform="matrix(.21 0 0 .21 378 42)"/><circle cx="50" cy="50" r="30" style="fill:#fff" transform="matrix(.21 0 0 .21 399 42)"/><circle cx="50" cy="50" r="30" style="fill:#fff" transform="matrix(.21 0 0 .21 441 42)"/><circle cx="50" cy="50" r="30" style="fill:#fff" transform="matrix(.21 0 0 .21 504 42)"/><circle cx="50" cy="50" r="30" style="fill:#fff" transform="matrix(.21 0 0 .21 525 42)"/><circle cx="50" cy="50" r="30" style="fill:#fff" transform="matrix(.21 0 0 .21 567 42)"/><circle cx="50" cy="50" r="30" style="fill:#fff" transform="matrix(.21 0 0 .21 588 42)"/><circle cx="50" cy="50" r="30" style="fill:#fff" transform="matrix(.21 0 0 .21 609 42)"/><circle cx="50" cy="50" r="30" style="fill:#fff" transform="matrix(.21 0 0 .21 693 42)"/><circle cx="50" cy="50" r="30" style="fill:#fff" transform="matrix(.21 0 0 .21 714 42)"/><circle cx="50" cy="50" r="30" style="fill:#fff" transform="matrix(.21 0 0 .21 756 42)"/><circle cx="50" cy="50" r="30" style="fill:#fff" transform="matrix(.21 0 0 .21 777 42)"/><circle cx="50" cy="50" r="30" style="fill:#fff" transform="matrix(.21 0 0 .21 819 42)"/><circle cx="50" cy="50" r="30" style="fill:#fff" transform="matrix(.21 0 0 .21 840 42)"/><circle cx="50" cy="50" r="30" style="fill:#fff" transform="matrix(.21 0 0 .21 189 63)"/><circle cx="50" cy="50" r="30" style="fill:#fff" transform="matrix(.21 0 0 .21 273 63)"/><circle cx="50" cy="50" r="30" style="fill:#fff" transform="matrix(.21 0 0 .21 294 63)"/><circle cx="50" cy="50" r="30" style="fill:#fff" transform="matrix(.21 0 0 .21 357 63)"/><circle cx="50" cy="50" r="30" style="fill:#fff" transform="matrix(.21 0 0 .21 378 63)"/><circle cx="50" cy="50" r="30" style="fill:#fff" transform="matrix(.21 0 0 .21 399 63)"/><circle cx="50" cy="50" r="30" style="fill:#fff" transform="matrix(.21 0 0 .21 420 63)"/><circle cx="50" cy="50" r="30" style="fill:#fff" transform="matrix(.21 0 0 .21 462 63)"/><circle cx="50" cy="50" r="30" style="fill:#fff" transform="matrix(.21 0 0 .21 525 63)"/><circle cx="50" cy="50" r="30" style="fill:#fff" transform="matrix(.21 0 0 .21 567 63)"/><circle cx="50" cy="50" r="30" style="fill:#fff" transform="matrix(.21 0 0 .21 588 63)"/><circle cx="50" cy="50" r="30" style="fill:#fff" transform="matrix(.21 0 0 .21 651 63)"/><circle cx="50" cy="50" r="30" style="fill:#fff" transform="matrix(.21 0 0 .21 672 63)"/><circle cx="50" cy="50" r="30" style="fill:#fff" transform="matrix(.21 0 0 .21 735 63)"/><circle cx="50" cy="50" r="30" style="fill:#fff" transform="matrix(.21 0 0 .21 756 63)"/><circle cx="50" cy="50" r="30" style="fill:#fff" transform="matrix(.21 0 0 .21 777 63)"/><circle cx="50" cy="50" r="30" style="fill:#fff" transform="matrix(.21 0 0 .21 819 63)"/><circle cx="50" cy="50" r="30" style="fill:#fff" transform="matrix(.21 0 0 .21 168 84)"/><circle cx="50" cy="50" r="30" style="fill:#fff" transform="matrix(.21 0 0 .21 189 84)"/><circle cx="50" cy="50" r="30" style="fill:#fff" transform="matrix(.21 0 0 .21 210 84)"/><circle cx="50" cy="50" r="30" style="fill:#fff" transform="matrix(.21 0 0 .21 231 84)"/><circle cx="50" cy="50" r="30" style="fill:#fff" transform="matrix(.21 0 0 .21 357 84)"/><circle cx="50" cy="50" r="30" style="fill:#fff" transform="matrix(.21 0 0 .21 399 84)"/><circle cx="50" cy="50" r="30" style="fill:#fff" transform="matrix(.21 0 0 .21 441 84)"/><circle cx="50" cy="50" r="30" style="fill:#fff" transform="matrix(.21 0 0 .21 462 84)"/><circle cx="50" cy="50" r="30" style="fill:#fff" transform="matrix(.21 0 0 .21 483 84)"/><circle cx="50" cy="50" r="30" style="fill:#fff" transform="matrix(.21 0 0 .21 504 84)"/><circle cx="50" cy="50" r="30" style="fill:#fff" transform="matrix(.21 0 0 .21 525 84)"/><circle cx="50" cy="50" r="30" style="fill:#fff" transform="matrix(.21 0 0 .21 546 84)"/><circle cx="50" cy="50" r="30" style="fill:#fff" transform="matrix(.21 0 0 .21 567 84)"/><circle cx="50" cy="50" r="30" style="fill:#fff" transform="matrix(.21 0 0 .21 609 84)"/><circle cx="50" cy="50" r="30" style="fill:#fff" transform="matrix(.21 0 0 .21 630 84)"/><circle cx="50" cy="50" r="30" style="fill:#fff" transform="matrix(.21 0 0 .21 651 84)"/><circle cx="50" cy="50" r="30" style="fill:#fff" transform="matrix(.21 0 0 .21 672 84)"/><circle cx="50" cy="50" r="30" style="fill:#fff" transform="matrix(.21 0 0 .21 693 84)"/><circle cx="50" cy="50" r="30" style="fill:#fff" transform="matrix(.21 0 0 .21 735 84)"/><circle cx="50" cy="50" r="30" style="fill:#fff" transform="matrix(.21 0 0 .21 777 84)"/><circle cx="50" cy="50" r="30" style="fill:#fff" transform="matrix(.21 0 0 .21 189 105)"/><circle cx="50" cy="50" r="30" style="fill:#fff" transform="matrix(.21 0 0 .21 252 105)"/><circle cx="50" cy="50" r="30" style="fill:#fff" transform="matrix(.21 0 0 .21 273 105)"/><circle cx="50" cy="50" r="30" style="fill:#fff" transform="matrix(.21 0 0 .21 315 105)"/><circle cx="50" cy="50" r="30" style="fill:#fff" transform="matrix(.21 0 0 .21 378 105)"/><circle cx="50" cy="50" r="30" style="fill:#fff" transform="matrix(.21 0 0 .21 441 105)"/><circle cx="50" cy="50" r="30" style="fill:#fff" transform="matrix(.21 0 0 .21 462 105)"/><circle cx="50" cy="50" r="30" style="fill:#fff" transform="matrix(.21 0 0 .21 546 105)"/><circle cx="50" cy="50" r="30" style="fill:#fff" transform="matrix(.21 0 0 .21 567 105)"/><circle cx="50" cy="50" r="30" style="fill:#fff" transform="matrix(.21 0 0 .21 609 105)"/><circle cx="50" cy="50" r="30" style="fill:#fff" transform="matrix(.21 0 0 .21 672 105)"/><circle cx="50" cy="50" r="30" style="fill:#fff" transform="matrix(.21 0 0 .21 735 105)"/><circle cx="50" cy="50" r="30" style="fill:#fff" transform="matrix(.21 0 0 .21 756 105)"/><circle cx="50" cy="50" r="30" style="fill:#fff" transform="matrix(.21 0 0 .21 798 105)"/><circle cx="50" cy="50" r="30" style="fill:#fff" transform="matrix(.21 0 0 .21 168 126)"/><circle cx="50" cy="50" r="30" style="fill:#fff" transform="matrix(.21 0 0 .21 210 126)"/><circle cx="50" cy="50" r="30" style="fill:#fff" transform="matrix(.21 0 0 .21 252 126)"/><circle cx="50" cy="50" r="30" style="fill:#fff" transform="matrix(.21 0 0 .21 294 126)"/><circle cx="50" cy="50" r="30" style="fill:#fff" transform="matrix(.21 0 0 .21 336 126)"/><circle cx="50" cy="50" r="30" style="fill:#fff" transform="matrix(.21 0 0 .21 378 126)"/><circle cx="50" cy="50" r="30" style="fill:#fff" transform="matrix(.21 0 0 .21 420 126)"/><circle cx="50" cy="50" r="30" style="fill:#fff" transform="matrix(.21 0 0 .21 462 126)"/><circle cx="50" cy="50" r="30" style="fill:#fff" transform="matrix(.21 0 0 .21 504 126)"/><circle cx="50" cy="50" r="30" style="fill:#fff" transform="matrix(.21 0 0 .21 546 126)"/><circle cx="50" cy="50" r="30" style="fill:#fff" transform="matrix(.21 0 0 .21 588 126)"/><circle cx="50" cy="50" r="30" style="fill:#fff" transform="matrix(.21 0 0 .21 630 126)"/><circle cx="50" cy="50" r="30" style="fill:#fff" transform="matrix(.21 0 0 .21 672 126)"/><circle cx="50" cy="50" r="30" style="fill:#fff" transform="matrix(.21 0 0 .21 714 126)"/><circle cx="50" cy="50" r="30" style="fill:#fff" transform="matrix(.21 0 0 .21 756 126)"/><circle cx="50" cy="50" r="30" style="fill:#fff" transform="matrix(.21 0 0 .21 798 126)"/><circle cx="50" cy="50" r="30" style="fill:#fff" transform="matrix(.21 0 0 .21 840 126)"/><circle cx="50" cy="50" r="30" style="fill:#fff" transform="matrix(.21 0 0 .21 168 147)"/><circle cx="50" cy="50" r="30" style="fill:#fff" transform="matrix(.21 0 0 .21 189 147)"/><circle cx="50" cy="50" r="30" style="fill:#fff" transform="matrix(.21 0 0 .21 294 147)"/><circle cx="50" cy="50" r="30" style="fill:#fff" transform="matrix(.21 0 0 .21 315 147)"/><circle cx="50" cy="50" r="30" style="fill:#fff" transform="matrix(.21 0 0 .21 336 147)"/><circle cx="50" cy="50" r="30" style="fill:#fff" transform="matrix(.21 0 0 .21 357 147)"/><circle cx="50" cy="50" r="30" style="fill:#fff" transform="matrix(.21 0 0 .21 378 147)"/><circle cx="50" cy="50" r="30" style="fill:#fff" transform="matrix(.21 0 0 .21 399 147)"/><circle cx="50" cy="50" r="30" style="fill:#fff" transform="matrix(.21 0 0 .21 462 147)"/><circle cx="50" cy="50" r="30" style="fill:#fff" transform="matrix(.21 0 0 .21 546 147)"/><circle cx="50" cy="50" r="30" style="fill:#fff" transform="matrix(.21 0 0 .21 567 147)"/><circle cx="50" cy="50" r="30" style="fill:#fff" transform="matrix(.21 0 0 .21 588 147)"/><circle cx="50" cy="50" r="30" style="fill:#fff" transform="matrix(.21 0 0 .21 672 147)"/><circle cx="50" cy="50" r="30" style="fill:#fff" transform="matrix(.21 0 0 .21 693 147)"/><circle cx="50" cy="50" r="30" style="fill:#fff" transform="matrix(.21 0 0 .21 714 147)"/><circle cx="50" cy="50" r="30" style="fill:#fff" transform="matrix(.21 0 0 .21 42 168)"/><circle cx="50" cy="50" r="30" style="fill:#fff" transform="matrix(.21 0 0 .21 63 168)"/><circle cx="50" cy="50" r="30" style="fill:#fff" transform="matrix(.21 0 0 .21 126 168)"/><circle cx="50" cy="50" r="30" style="fill:#fff" transform="matrix(.21 0 0 .21 147 168)"/><circle cx="50" cy="50" r="30" style="fill:#fff" transform="matrix(.21 0 0 .21 168 168)"/><circle cx="50" cy="50" r="30" style="fill:#fff" transform="matrix(.21 0 0 .21 231 168)"/><circle cx="50" cy="50" r="30" style="fill:#fff" transform="matrix(.21 0 0 .21 252 168)"/><circle cx="50" cy="50" r="30" style="fill:#fff" transform="matrix(.21 0 0 .21 294 168)"/><circle cx="50" cy="50" r="30" style="fill:#fff" transform="matrix(.21 0 0 .21 357 168)"/><circle cx="50" cy="50" r="30" style="fill:#fff" transform="matrix(.21 0 0 .21 378 168)"/><circle cx="50" cy="50" r="30" style="fill:#fff" transform="matrix(.21 0 0 .21 399 168)"/><circle cx="50" cy="50" r="30" style="fill:#fff" transform="matrix(.21 0 0 .21 462 168)"/><circle cx="50" cy="50" r="30" style="fill:#fff" transform="matrix(.21 0 0 .21 483 168)"/><circle cx="50" cy="50" r="30" style="fill:#fff" transform="matrix(.21 0 0 .21 504 168)"/><circle cx="50" cy="50" r="30" style="fill:#fff" transform="matrix(.21 0 0 .21 525 168)"/><circle cx="50" cy="50" r="30" style="fill:#fff" transform="matrix(.21 0 0 .21 546 168)"/><circle cx="50" cy="50" r="30" style="fill:#fff" transform="matrix(.21 0 0 .21 588 168)"/><circle cx="50" cy="50" r="30" style="fill:#fff" transform="matrix(.21 0 0 .21 630 168)"/><circle cx="50" cy="50" r="30" style="fill:#fff" transform="matrix(.21 0 0 .21 651 168)"/><circle cx="50" cy="50" r="30" style="fill:#fff" transform="matrix(.21 0 0 .21 714 168)"/><circle cx="50" cy="50" r="30" style="fill:#fff" transform="matrix(.21 0 0 .21 861 168)"/><circle cx="50" cy="50" r="30" style="fill:#fff" transform="matrix(.21 0 0 .21 882 168)"/><circle cx="50" cy="50" r="30" style="fill:#fff" transform="matrix(.21 0 0 .21 924 168)"/><circle cx="50" cy="50" r="30" style="fill:#fff" transform="matrix(.21 0 0 .21 0 189)"/><circle cx="50" cy="50" r="30" style="fill:#fff" transform="matrix(.21 0 0 .21 84 189)"/><circle cx="50" cy="50" r="30" style="fill:#fff" transform="matrix(.21 0 0 .21 105 189)"/><circle cx="50" cy="50" r="30" style="fill:#fff" transform="matrix(.21 0 0 .21 210 189)"/><circle cx="50" cy="50" r="30" style="fill:#fff" transform="matrix(.21 0 0 .21 231 189)"/><circle cx="50" cy="50" r="30" style="fill:#fff" transform="matrix(.21 0 0 .21 252 189)"/><circle cx="50" cy="50" r="30" style="fill:#fff" transform="matrix(.21 0 0 .21 315 189)"/><circle cx="50" cy="50" r="30" style="fill:#fff" transform="matrix(.21 0 0 .21 336 189)"/><circle cx="50" cy="50" r="30" style="fill:#fff" transform="matrix(.21 0 0 .21 357 189)"/><circle cx="50" cy="50" r="30" style="fill:#fff" transform="matrix(.21 0 0 .21 378 189)"/><circle cx="50" cy="50" r="30" style="fill:#fff" transform="matrix(.21 0 0 .21 399 189)"/><circle cx="50" cy="50" r="30" style="fill:#fff" transform="matrix(.21 0 0 .21 462 189)"/><circle cx="50" cy="50" r="30" style="fill:#fff" transform="matrix(.21 0 0 .21 483 189)"/><circle cx="50" cy="50" r="30" style="fill:#fff" transform="matrix(.21 0 0 .21 525 189)"/><circle cx="50" cy="50" r="30" style="fill:#fff" transform="matrix(.21 0 0 .21 546 189)"/><circle cx="50" cy="50" r="30" style="fill:#fff" transform="matrix(.21 0 0 .21 588 189)"/><circle cx="50" cy="50" r="30" style="fill:#fff" transform="matrix(.21 0 0 .21 609 189)"/><circle cx="50" cy="50" r="30" style="fill:#fff" transform="matrix(.21 0 0 .21 672 189)"/><circle cx="50" cy="50" r="30" style="fill:#fff" transform="matrix(.21 0 0 .21 693 189)"/><circle cx="50" cy="50" r="30" style="fill:#fff" transform="matrix(.21 0 0 .21 714 189)"/><circle cx="50" cy="50" r="30" style="fill:#fff" transform="matrix(.21 0 0 .21 735 189)"/><circle cx="50" cy="50" r="30" style="fill:#fff" transform="matrix(.21 0 0 .21 756 189)"/><circle cx="50" cy="50" r="30" style="fill:#fff" transform="matrix(.21 0 0 .21 777 189)"/><circle cx="50" cy="50" r="30" style="fill:#fff" transform="matrix(.21 0 0 .21 798 189)"/><circle cx="50" cy="50" r="30" style="fill:#fff" transform="matrix(.21 0 0 .21 861 189)"/><circle cx="50" cy="50" r="30" style="fill:#fff" transform="matrix(.21 0 0 .21 966 189)"/><circle cx="50" cy="50" r="30" style="fill:#fff" transform="matrix(.21 0 0 .21 0 210)"/><circle cx="50" cy="50" r="30" style="fill:#fff" transform="matrix(.21 0 0 .21 21 210)"/><circle cx="50" cy="50" r="30" style="fill:#fff" transform="matrix(.21 0 0 .21 42 210)"/><circle cx="50" cy="50" r="30" style="fill:#fff" transform="matrix(.21 0 0 .21 63 210)"/><circle cx="50" cy="50" r="30" style="fill:#fff" transform="matrix(.21 0 0 .21 84 210)"/><circle cx="50" cy="50" r="30" style="fill:#fff" transform="matrix(.21 0 0 .21 105 210)"/><circle cx="50" cy="50" r="30" style="fill:#fff" transform="matrix(.21 0 0 .21 126 210)"/><circle cx="50" cy="50" r="30" style="fill:#fff" transform="matrix(.21 0 0 .21 168 210)"/><circle cx="50" cy="50" r="30" style="fill:#fff" transform="matrix(.21 0 0 .21 210 210)"/><circle cx="50" cy="50" r="30" style="fill:#fff" transform="matrix(.21 0 0 .21 273 210)"/><circle cx="50" cy="50" r="30" style="fill:#fff" transform="matrix(.21 0 0 .21 294 210)"/><circle cx="50" cy="50" r="30" style="fill:#fff" transform="matrix(.21 0 0 .21 315 210)"/><circle cx="50" cy="50" r="30" style="fill:#fff" transform="matrix(.21 0 0 .21 336 210)"/><circle cx="50" cy="50" r="30" style="fill:#fff" transform="matrix(.21 0 0 .21 378 210)"/><circle cx="50" cy="50" r="30" style="fill:#fff" transform="matrix(.21 0 0 .21 399 210)"/><circle cx="50" cy="50" r="30" style="fill:#fff" transform="matrix(.21 0 0 .21 420 210)"/><circle cx="50" cy="50" r="30" style="fill:#fff" transform="matrix(.21 0 0 .21 462 210)"/><circle cx="50" cy="50" r="30" style="fill:#fff" transform="matrix(.21 0 0 .21 483 210)"/><circle cx="50" cy="50" r="30" style="fill:#fff" transform="matrix(.21 0 0 .21 504 210)"/><circle cx="50" cy="50" r="30" style="fill:#fff" transform="matrix(.21 0 0 .21 525 210)"/><circle cx="50" cy="50" r="30" style="fill:#fff" transform="matrix(.21 0 0 .21 567 210)"/><circle cx="50" cy="50" r="30" style="fill:#fff" transform="matrix(.21 0 0 .21 588 210)"/><circle cx="50" cy="50" r="30" style="fill:#fff" transform="matrix(.21 0 0 .21 630 210)"/><circle cx="50" cy="50" r="30" style="fill:#fff" transform="matrix(.21 0 0 .21 651 210)"/><circle cx="50" cy="50" r="30" style="fill:#fff" transform="matrix(.21 0 0 .21 693 210)"/><circle cx="50" cy="50" r="30" style="fill:#fff" transform="matrix(.21 0 0 .21 735 210)"/><circle cx="50" cy="50" r="30" style="fill:#fff" transform="matrix(.21 0 0 .21 819 210)"/><circle cx="50" cy="50" r="30" style="fill:#fff" transform="matrix(.21 0 0 .21 840 210)"/><circle cx="50" cy="50" r="30" style="fill:#fff" transform="matrix(.21 0 0 .21 861 210)"/><circle cx="50" cy="50" r="30" style="fill:#fff" transform="matrix(.21 0 0 .21 882 210)"/><circle cx="50" cy="50" r="30" style="fill:#fff" transform="matrix(.21 0 0 .21 924 210)"/><circle cx="50" cy="50" r="30" style="fill:#fff" transform="matrix(.21 0 0 .21 945 210)"/><circle cx="50" cy="50" r="30" style="fill:#fff" transform="matrix(.21 0 0 .21 1008 210)"/><circle cx="50" cy="50" r="30" style="fill:#fff" transform="matrix(.21 0 0 .21 0 231)"/><circle cx="50" cy="50" r="30" style="fill:#fff" transform="matrix(.21 0 0 .21 63 231)"/><circle cx="50" cy="50" r="30" style="fill:#fff" transform="matrix(.21 0 0 .21 84 231)"/><circle cx="50" cy="50" r="30" style="fill:#fff" transform="matrix(.21 0 0 .21 147 231)"/><circle cx="50" cy="50" r="30" style="fill:#fff" transform="matrix(.21 0 0 .21 168 231)"/><circle cx="50" cy="50" r="30" style="fill:#fff" transform="matrix(.21 0 0 .21 189 231)"/><circle cx="50" cy="50" r="30" style="fill:#fff" transform="matrix(.21 0 0 .21 231 231)"/><circle cx="50" cy="50" r="30" style="fill:#fff" transform="matrix(.21 0 0 .21 357 231)"/><circle cx="50" cy="50" r="30" style="fill:#fff" transform="matrix(.21 0 0 .21 399 231)"/><circle cx="50" cy="50" r="30" style="fill:#fff" transform="matrix(.21 0 0 .21 525 231)"/><circle cx="50" cy="50" r="30" style="fill:#fff" transform="matrix(.21 0 0 .21 546 231)"/><circle cx="50" cy="50" r="30" style="fill:#fff" transform="matrix(.21 0 0 .21 567 231)"/><circle cx="50" cy="50" r="30" style="fill:#fff" transform="matrix(.21 0 0 .21 693 231)"/><circle cx="50" cy="50" r="30" style="fill:#fff" transform="matrix(.21 0 0 .21 735 231)"/><circle cx="50" cy="50" r="30" style="fill:#fff" transform="matrix(.21 0 0 .21 777 231)"/><circle cx="50" cy="50" r="30" style="fill:#fff" transform="matrix(.21 0 0 .21 798 231)"/><circle cx="50" cy="50" r="30" style="fill:#fff" transform="matrix(.21 0 0 .21 819 231)"/><circle cx="50" cy="50" r="30" style="fill:#fff" transform="matrix(.21 0 0 .21 882 231)"/><circle cx="50" cy="50" r="30" style="fill:#fff" transform="matrix(.21 0 0 .21 903 231)"/><circle cx="50" cy="50" r="30" style="fill:#fff" transform="matrix(.21 0 0 .21 924 231)"/><circle cx="50" cy="50" r="30" style="fill:#fff" transform="matrix(.21 0 0 .21 987 231)"/><circle cx="50" cy="50" r="30" style="fill:#fff" transform="matrix(.21 0 0 .21 1008 231)"/><circle cx="50" cy="50" r="30" style="fill:#fff" transform="matrix(.21 0 0 .21 0 252)"/><circle cx="50" cy="50" r="30" style="fill:#fff" transform="matrix(.21 0 0 .21 126 252)"/><circle cx="50" cy="50" r="30" style="fill:#fff" transform="matrix(.21 0 0 .21 189 252)"/><circle cx="50" cy="50" r="30" style="fill:#fff" transform="matrix(.21 0 0 .21 273 252)"/><circle cx="50" cy="50" r="30" style="fill:#fff" transform="matrix(.21 0 0 .21 294 252)"/><circle cx="50" cy="50" r="30" style="fill:#fff" transform="matrix(.21 0 0 .21 336 252)"/><circle cx="50" cy="50" r="30" style="fill:#fff" transform="matrix(.21 0 0 .21 378 252)"/><circle cx="50" cy="50" r="30" style="fill:#fff" transform="matrix(.21 0 0 .21 420 252)"/><circle cx="50" cy="50" r="30" style="fill:#fff" transform="matrix(.21 0 0 .21 483 252)"/><circle cx="50" cy="50" r="30" style="fill:#fff" transform="matrix(.21 0 0 .21 504 252)"/><circle cx="50" cy="50" r="30" style="fill:#fff" transform="matrix(.21 0 0 .21 546 252)"/><circle cx="50" cy="50" r="30" style="fill:#fff" transform="matrix(.21 0 0 .21 630 252)"/><circle cx="50" cy="50" r="30" style="fill:#fff" transform="matrix(.21 0 0 .21 651 252)"/><circle cx="50" cy="50" r="30" style="fill:#fff" transform="matrix(.21 0 0 .21 735 252)"/><circle cx="50" cy="50" r="30" style="fill:#fff" transform="matrix(.21 0 0 .21 756 252)"/><circle cx="50" cy="50" r="30" style="fill:#fff" transform="matrix(.21 0 0 .21 840 252)"/><circle cx="50" cy="50" r="30" style="fill:#fff" transform="matrix(.21 0 0 .21 861 252)"/><circle cx="50" cy="50" r="30" style="fill:#fff" transform="matrix(.21 0 0 .21 903 252)"/><circle cx="50" cy="50" r="30" style="fill:#fff" transform="matrix(.21 0 0 .21 966 252)"/><circle cx="50" cy="50" r="30" style="fill:#fff" transform="matrix(.21 0 0 .21 0 273)"/><circle cx="50" cy="50" r="30" style="fill:#fff" transform="matrix(.21 0 0 .21 21 273)"/><circle cx="50" cy="50" r="30" style="fill:#fff" transform="matrix(.21 0 0 .21 42 273)"/><circle cx="50" cy="50" r="30" style="fill:#fff" transform="matrix(.21 0 0 .21 168 273)"/><circle cx="50" cy="50" r="30" style="fill:#fff" transform="matrix(.21 0 0 .21 210 273)"/><circle cx="50" cy="50" r="30" style="fill:#fff" transform="matrix(.21 0 0 .21 294 273)"/><circle cx="50" cy="50" r="30" style="fill:#fff" transform="matrix(.21 0 0 .21 336 273)"/><circle cx="50" cy="50" r="30" style="fill:#fff" transform="matrix(.21 0 0 .21 378 273)"/><circle cx="50" cy="50" r="30" style="fill:#fff" transform="matrix(.21 0 0 .21 399 273)"/><circle cx="50" cy="50" r="30" style="fill:#fff" transform="matrix(.21 0 0 .21 462 273)"/><circle cx="50" cy="50" r="30" style="fill:#fff" transform="matrix(.21 0 0 .21 483 273)"/><circle cx="50" cy="50" r="30" style="fill:#fff" transform="matrix(.21 0 0 .21 546 273)"/><circle cx="50" cy="50" r="30" style="fill:#fff" transform="matrix(.21 0 0 .21 735 273)"/><circle cx="50" cy="50" r="30" style="fill:#fff" transform="matrix(.21 0 0 .21 777 273)"/><circle cx="50" cy="50" r="30" style="fill:#fff" transform="matrix(.21 0 0 .21 882 273)"/><circle cx="50" cy="50" r="30" style="fill:#fff" transform="matrix(.21 0 0 .21 903 273)"/><circle cx="50" cy="50" r="30" style="fill:#fff" transform="matrix(.21 0 0 .21 945 273)"/><circle cx="50" cy="50" r="30" style="fill:#fff" transform="matrix(.21 0 0 .21 966 273)"/><circle cx="50" cy="50" r="30" style="fill:#fff" transform="matrix(.21 0 0 .21 987 273)"/><circle cx="50" cy="50" r="30" style="fill:#fff" transform="matrix(.21 0 0 .21 1008 273)"/><circle cx="50" cy="50" r="30" style="fill:#fff" transform="matrix(.21 0 0 .21 0 294)"/><circle cx="50" cy="50" r="30" style="fill:#fff" transform="matrix(.21 0 0 .21 21 294)"/><circle cx="50" cy="50" r="30" style="fill:#fff" transform="matrix(.21 0 0 .21 42 294)"/><circle cx="50" cy="50" r="30" style="fill:#fff" transform="matrix(.21 0 0 .21 84 294)"/><circle cx="50" cy="50" r="30" style="fill:#fff" transform="matrix(.21 0 0 .21 126 294)"/><circle cx="50" cy="50" r="30" style="fill:#fff" transform="matrix(.21 0 0 .21 168 294)"/><circle cx="50" cy="50" r="30" style="fill:#fff" transform="matrix(.21 0 0 .21 252 294)"/><circle cx="50" cy="50" r="30" style="fill:#fff" transform="matrix(.21 0 0 .21 336 294)"/><circle cx="50" cy="50" r="30" style="fill:#fff" transform="matrix(.21 0 0 .21 378 294)"/><circle cx="50" cy="50" r="30" style="fill:#fff" transform="matrix(.21 0 0 .21 420 294)"/><circle cx="50" cy="50" r="30" style="fill:#fff" transform="matrix(.21 0 0 .21 441 294)"/><circle cx="50" cy="50" r="30" style="fill:#fff" transform="matrix(.21 0 0 .21 483 294)"/><circle cx="50" cy="50" r="30" style="fill:#fff" transform="matrix(.21 0 0 .21 504 294)"/><circle cx="50" cy="50" r="30" style="fill:#fff" transform="matrix(.21 0 0 .21 525 294)"/><circle cx="50" cy="50" r="30" style="fill:#fff" transform="matrix(.21 0 0 .21 546 294)"/><circle cx="50" cy="50" r="30" style="fill:#fff" transform="matrix(.21 0 0 .21 588 294)"/><circle cx="50" cy="50" r="30" style="fill:#fff" transform="matrix(.21 0 0 .21 609 294)"/><circle cx="50" cy="50" r="30" style="fill:#fff" transform="matrix(.21 0 0 .21 630 294)"/><circle cx="50" cy="50" r="30" style="fill:#fff" transform="matrix(.21 0 0 .21 672 294)"/><circle cx="50" cy="50" r="30" style="fill:#fff" transform="matrix(.21 0 0 .21 714 294)"/><circle cx="50" cy="50" r="30" style="fill:#fff" transform="matrix(.21 0 0 .21 756 294)"/><circle cx="50" cy="50" r="30" style="fill:#fff" transform="matrix(.21 0 0 .21 777 294)"/><circle cx="50" cy="50" r="30" style="fill:#fff" transform="matrix(.21 0 0 .21 798 294)"/><circle cx="50" cy="50" r="30" style="fill:#fff" transform="matrix(.21 0 0 .21 819 294)"/><circle cx="50" cy="50" r="30" style="fill:#fff" transform="matrix(.21 0 0 .21 882 294)"/><circle cx="50" cy="50" r="30" style="fill:#fff" transform="matrix(.21 0 0 .21 924 294)"/><circle cx="50" cy="50" r="30" style="fill:#fff" transform="matrix(.21 0 0 .21 0 315)"/><circle cx="50" cy="50" r="30" style="fill:#fff" transform="matrix(.21 0 0 .21 84 315)"/><circle cx="50" cy="50" r="30" style="fill:#fff" transform="matrix(.21 0 0 .21 105 315)"/><circle cx="50" cy="50" r="30" style="fill:#fff" transform="matrix(.21 0 0 .21 147 315)"/><circle cx="50" cy="50" r="30" style="fill:#fff" transform="matrix(.21 0 0 .21 168 315)"/><circle cx="50" cy="50" r="30" style="fill:#fff" transform="matrix(.21 0 0 .21 231 315)"/><circle cx="50" cy="50" r="30" style="fill:#fff" transform="matrix(.21 0 0 .21 294 315)"/><circle cx="50" cy="50" r="30" style="fill:#fff" transform="matrix(.21 0 0 .21 315 315)"/><circle cx="50" cy="50" r="30" style="fill:#fff" transform="matrix(.21 0 0 .21 336 315)"/><circle cx="50" cy="50" r="30" style="fill:#fff" transform="matrix(.21 0 0 .21 399 315)"/><circle cx="50" cy="50" r="30" style="fill:#fff" transform="matrix(.21 0 0 .21 420 315)"/><circle cx="50" cy="50" r="30" style="fill:#fff" transform="matrix(.21 0 0 .21 441 315)"/><circle cx="50" cy="50" r="30" style="fill:#fff" transform="matrix(.21 0 0 .21 462 315)"/><circle cx="50" cy="50" r="30" style="fill:#fff" transform="matrix(.21 0 0 .21 483 315)"/><circle cx="50" cy="50" r="30" style="fill:#fff" transform="matrix(.21 0 0 .21 504 315)"/><circle cx="50" cy="50" r="30" style="fill:#fff" transform="matrix(.21 0 0 .21 546 315)"/><circle cx="50" cy="50" r="30" style="fill:#fff" transform="matrix(.21 0 0 .21 567 315)"/><circle cx="50" cy="50" r="30" style="fill:#fff" transform="matrix(.21 0 0 .21 588 315)"/><circle cx="50" cy="50" r="30" style="fill:#fff" transform="matrix(.21 0 0 .21 609 315)"/><circle cx="50" cy="50" r="30" style="fill:#fff" transform="matrix(.21 0 0 .21 672 315)"/><circle cx="50" cy="50" r="30" style="fill:#fff" transform="matrix(.21 0 0 .21 714 315)"/><circle cx="50" cy="50" r="30" style="fill:#fff" transform="matrix(.21 0 0 .21 777 315)"/><circle cx="50" cy="50" r="30" style="fill:#fff" transform="matrix(.21 0 0 .21 798 315)"/><circle cx="50" cy="50" r="30" style="fill:#fff" transform="matrix(.21 0 0 .21 840 315)"/><circle cx="50" cy="50" r="30" style="fill:#fff" transform="matrix(.21 0 0 .21 882 315)"/><circle cx="50" cy="50" r="30" style="fill:#fff" transform="matrix(.21 0 0 .21 903 315)"/><circle cx="50" cy="50" r="30" style="fill:#fff" transform="matrix(.21 0 0 .21 924 315)"/><circle cx="50" cy="50" r="30" style="fill:#fff" transform="matrix(.21 0 0 .21 966 315)"/><circle cx="50" cy="50" r="30" style="fill:#fff" transform="matrix(.21 0 0 .21 1008 315)"/><circle cx="50" cy="50" r="30" style="fill:#fff" transform="matrix(.21 0 0 .21 42 336)"/><circle cx="50" cy="50" r="30" style="fill:#fff" transform="matrix(.21 0 0 .21 84 336)"/><circle cx="50" cy="50" r="30" style="fill:#fff" transform="matrix(.21 0 0 .21 105 336)"/><circle cx="50" cy="50" r="30" style="fill:#fff" transform="matrix(.21 0 0 .21 126 336)"/><circle cx="50" cy="50" r="30" style="fill:#fff" transform="matrix(.21 0 0 .21 147 336)"/><circle cx="50" cy="50" r="30" style="fill:#fff" transform="matrix(.21 0 0 .21 168 336)"/><circle cx="50" cy="50" r="30" style="fill:#fff" transform="matrix(.21 0 0 .21 189 336)"/><circle cx="50" cy="50" r="30" style="fill:#fff" transform="matrix(.21 0 0 .21 252 336)"/><circle cx="50" cy="50" r="30" style="fill:#fff" transform="matrix(.21 0 0 .21 273 336)"/><circle cx="50" cy="50" r="30" style="fill:#fff" transform="matrix(.21 0 0 .21 294 336)"/><circle cx="50" cy="50" r="30" style="fill:#fff" transform="matrix(.21 0 0 .21 315 336)"/><circle cx="50" cy="50" r="30" style="fill:#fff" transform="matrix(.21 0 0 .21 357 336)"/><circle cx="50" cy="50" r="30" style="fill:#fff" transform="matrix(.21 0 0 .21 399 336)"/><circle cx="50" cy="50" r="30" style="fill:#fff" transform="matrix(.21 0 0 .21 420 336)"/><circle cx="50" cy="50" r="30" style="fill:#fff" transform="matrix(.21 0 0 .21 441 336)"/><circle cx="50" cy="50" r="30" style="fill:#fff" transform="matrix(.21 0 0 .21 567 336)"/><circle cx="50" cy="50" r="30" style="fill:#fff" transform="matrix(.21 0 0 .21 588 336)"/><circle cx="50" cy="50" r="30" style="fill:#fff" transform="matrix(.21 0 0 .21 651 336)"/><circle cx="50" cy="50" r="30" style="fill:#fff" transform="matrix(.21 0 0 .21 672 336)"/><circle cx="50" cy="50" r="30" style="fill:#fff" transform="matrix(.21 0 0 .21 714 336)"/><circle cx="50" cy="50" r="30" style="fill:#fff" transform="matrix(.21 0 0 .21 756 336)"/><circle cx="50" cy="50" r="30" style="fill:#fff" transform="matrix(.21 0 0 .21 819 336)"/><circle cx="50" cy="50" r="30" style="fill:#fff" transform="matrix(.21 0 0 .21 903 336)"/><circle cx="50" cy="50" r="30" style="fill:#fff" transform="matrix(.21 0 0 .21 924 336)"/><circle cx="50" cy="50" r="30" style="fill:#fff" transform="matrix(.21 0 0 .21 1008 336)"/><circle cx="50" cy="50" r="30" style="fill:#fff" transform="matrix(.21 0 0 .21 0 357)"/><circle cx="50" cy="50" r="30" style="fill:#fff" transform="matrix(.21 0 0 .21 21 357)"/><circle cx="50" cy="50" r="30" style="fill:#fff" transform="matrix(.21 0 0 .21 42 357)"/><circle cx="50" cy="50" r="30" style="fill:#fff" transform="matrix(.21 0 0 .21 63 357)"/><circle cx="50" cy="50" r="30" style="fill:#fff" transform="matrix(.21 0 0 .21 84 357)"/><circle cx="50" cy="50" r="30" style="fill:#fff" transform="matrix(.21 0 0 .21 105 357)"/><circle cx="50" cy="50" r="30" style="fill:#fff" transform="matrix(.21 0 0 .21 210 357)"/><circle cx="50" cy="50" r="30" style="fill:#fff" transform="matrix(.21 0 0 .21 252 357)"/><circle cx="50" cy="50" r="30" style="fill:#fff" transform="matrix(.21 0 0 .21 273 357)"/><circle cx="50" cy="50" r="30" style="fill:#fff" transform="matrix(.21 0 0 .21 294 357)"/><circle cx="50" cy="50" r="30" style="fill:#fff" transform="matrix(.21 0 0 .21 693 357)"/><circle cx="50" cy="50" r="30" style="fill:#fff" transform="matrix(.21 0 0 .21 798 357)"/><circle cx="50" cy="50" r="30" style="fill:#fff" transform="matrix(.21 0 0 .21 840 357)"/><circle cx="50" cy="50" r="30" style="fill:#fff" transform="matrix(.21 0 0 .21 924 357)"/><circle cx="50" cy="50" r="30" style="fill:#fff" transform="matrix(.21 0 0 .21 945 357)"/><circle cx="50" cy="50" r="30" style="fill:#fff" transform="matrix(.21 0 0 .21 1008 357)"/><circle cx="50" cy="50" r="30" style="fill:#fff" transform="matrix(.21 0 0 .21 42 378)"/><circle cx="50" cy="50" r="30" style="fill:#fff" transform="matrix(.21 0 0 .21 105 378)"/><circle cx="50" cy="50" r="30" style="fill:#fff" transform="matrix(.21 0 0 .21 126 378)"/><circle cx="50" cy="50" r="30" style="fill:#fff" transform="matrix(.21 0 0 .21 189 378)"/><circle cx="50" cy="50" r="30" style="fill:#fff" transform="matrix(.21 0 0 .21 231 378)"/><circle cx="50" cy="50" r="30" style="fill:#fff" transform="matrix(.21 0 0 .21 294 378)"/><circle cx="50" cy="50" r="30" style="fill:#fff" transform="matrix(.21 0 0 .21 315 378)"/><circle cx="50" cy="50" r="30" style="fill:#fff" transform="matrix(.21 0 0 .21 693 378)"/><circle cx="50" cy="50" r="30" style="fill:#fff" transform="matrix(.21 0 0 .21 735 378)"/><circle cx="50" cy="50" r="30" style="fill:#fff" transform="matrix(.21 0 0 .21 756 378)"/><circle cx="50" cy="50" r="30" style="fill:#fff" transform="matrix(.21 0 0 .21 861 378)"/><circle cx="50" cy="50" r="30" style="fill:#fff" transform="matrix(.21 0 0 .21 882 378)"/><circle cx="50" cy="50" r="30" style="fill:#fff" transform="matrix(.21 0 0 .21 903 378)"/><circle cx="50" cy="50" r="30" style="fill:#fff" transform="matrix(.21 0 0 .21 924 378)"/><circle cx="50" cy="50" r="30" style="fill:#fff" transform="matrix(.21 0 0 .21 987 378)"/><circle cx="50" cy="50" r="30" style="fill:#fff" transform="matrix(.21 0 0 .21 1008 378)"/><circle cx="50" cy="50" r="30" style="fill:#fff" transform="matrix(.21 0 0 .21 0 399)"/><circle cx="50" cy="50" r="30" style="fill:#fff" transform="matrix(.21 0 0 .21 63 399)"/><circle cx="50" cy="50" r="30" style="fill:#fff" transform="matrix(.21 0 0 .21 105 399)"/><circle cx="50" cy="50" r="30" style="fill:#fff" transform="matrix(.21 0 0 .21 147 399)"/><circle cx="50" cy="50" r="30" style="fill:#fff" transform="matrix(.21 0 0 .21 273 399)"/><circle cx="50" cy="50" r="30" style="fill:#fff" transform="matrix(.21 0 0 .21 315 399)"/><circle cx="50" cy="50" r="30" style="fill:#fff" transform="matrix(.21 0 0 .21 693 399)"/><circle cx="50" cy="50" r="30" style="fill:#fff" transform="matrix(.21 0 0 .21 735 399)"/><circle cx="50" cy="50" r="30" style="fill:#fff" transform="matrix(.21 0 0 .21 756 399)"/><circle cx="50" cy="50" r="30" style="fill:#fff" transform="matrix(.21 0 0 .21 882 399)"/><circle cx="50" cy="50" r="30" style="fill:#fff" transform="matrix(.21 0 0 .21 945 399)"/><circle cx="50" cy="50" r="30" style="fill:#fff" transform="matrix(.21 0 0 .21 1008 399)"/><circle cx="50" cy="50" r="30" style="fill:#fff" transform="matrix(.21 0 0 .21 0 420)"/><circle cx="50" cy="50" r="30" style="fill:#fff" transform="matrix(.21 0 0 .21 105 420)"/><circle cx="50" cy="50" r="30" style="fill:#fff" transform="matrix(.21 0 0 .21 126 420)"/><circle cx="50" cy="50" r="30" style="fill:#fff" transform="matrix(.21 0 0 .21 147 420)"/><circle cx="50" cy="50" r="30" style="fill:#fff" transform="matrix(.21 0 0 .21 168 420)"/><circle cx="50" cy="50" r="30" style="fill:#fff" transform="matrix(.21 0 0 .21 294 420)"/><circle cx="50" cy="50" r="30" style="fill:#fff" transform="matrix(.21 0 0 .21 315 420)"/><circle cx="50" cy="50" r="30" style="fill:#fff" transform="matrix(.21 0 0 .21 672 420)"/><circle cx="50" cy="50" r="30" style="fill:#fff" transform="matrix(.21 0 0 .21 714 420)"/><circle cx="50" cy="50" r="30" style="fill:#fff" transform="matrix(.21 0 0 .21 735 420)"/><circle cx="50" cy="50" r="30" style="fill:#fff" transform="matrix(.21 0 0 .21 777 420)"/><circle cx="50" cy="50" r="30" style="fill:#fff" transform="matrix(.21 0 0 .21 798 420)"/><circle cx="50" cy="50" r="30" style="fill:#fff" transform="matrix(.21 0 0 .21 819 420)"/><circle cx="50" cy="50" r="30" style="fill:#fff" transform="matrix(.21 0 0 .21 987 420)"/><circle cx="50" cy="50" r="30" style="fill:#fff" transform="matrix(.21 0 0 .21 21 441)"/><circle cx="50" cy="50" r="30" style="fill:#fff" transform="matrix(.21 0 0 .21 147 441)"/><circle cx="50" cy="50" r="30" style="fill:#fff" transform="matrix(.21 0 0 .21 168 441)"/><circle cx="50" cy="50" r="30" style="fill:#fff" transform="matrix(.21 0 0 .21 189 441)"/><circle cx="50" cy="50" r="30" style="fill:#fff" transform="matrix(.21 0 0 .21 231 441)"/><circle cx="50" cy="50" r="30" style="fill:#fff" transform="matrix(.21 0 0 .21 273 441)"/><circle cx="50" cy="50" r="30" style="fill:#fff" transform="matrix(.21 0 0 .21 672 441)"/><circle cx="50" cy="50" r="30" style="fill:#fff" transform="matrix(.21 0 0 .21 777 441)"/><circle cx="50" cy="50" r="30" style="fill:#fff" transform="matrix(.21 0 0 .21 819 441)"/><circle cx="50" cy="50" r="30" style="fill:#fff" transform="matrix(.21 0 0 .21 840 441)"/><circle cx="50" cy="50" r="30" style="fill:#fff" transform="matrix(.21 0 0 .21 861 441)"/><circle cx="50" cy="50" r="30" style="fill:#fff" transform="matrix(.21 0 0 .21 882 441)"/><circle cx="50" cy="50" r="30" style="fill:#fff" transform="matrix(.21 0 0 .21 903 441)"/><circle cx="50" cy="50" r="30" style="fill:#fff" transform="matrix(.21 0 0 .21 21 462)"/><circle cx="50" cy="50" r="30" style="fill:#fff" transform="matrix(.21 0 0 .21 84 462)"/><circle cx="50" cy="50" r="30" style="fill:#fff" transform="matrix(.21 0 0 .21 105 462)"/><circle cx="50" cy="50" r="30" style="fill:#fff" transform="matrix(.21 0 0 .21 126 462)"/><circle cx="50" cy="50" r="30" style="fill:#fff" transform="matrix(.21 0 0 .21 147 462)"/><circle cx="50" cy="50" r="30" style="fill:#fff" transform="matrix(.21 0 0 .21 168 462)"/><circle cx="50" cy="50" r="30" style="fill:#fff" transform="matrix(.21 0 0 .21 189 462)"/><circle cx="50" cy="50" r="30" style="fill:#fff" transform="matrix(.21 0 0 .21 210 462)"/><circle cx="50" cy="50" r="30" style="fill:#fff" transform="matrix(.21 0 0 .21 252 462)"/><circle cx="50" cy="50" r="30" style="fill:#fff" transform="matrix(.21 0 0 .21 294 462)"/><circle cx="50" cy="50" r="30" style="fill:#fff" transform="matrix(.21 0 0 .21 315 462)"/><circle cx="50" cy="50" r="30" style="fill:#fff" transform="matrix(.21 0 0 .21 672 462)"/><circle cx="50" cy="50" r="30" style="fill:#fff" transform="matrix(.21 0 0 .21 714 462)"/><circle cx="50" cy="50" r="30" style="fill:#fff" transform="matrix(.21 0 0 .21 735 462)"/><circle cx="50" cy="50" r="30" style="fill:#fff" transform="matrix(.21 0 0 .21 756 462)"/><circle cx="50" cy="50" r="30" style="fill:#fff" transform="matrix(.21 0 0 .21 840 462)"/><circle cx="50" cy="50" r="30" style="fill:#fff" transform="matrix(.21 0 0 .21 861 462)"/><circle cx="50" cy="50" r="30" style="fill:#fff" transform="matrix(.21 0 0 .21 882 462)"/><circle cx="50" cy="50" r="30" style="fill:#fff" transform="matrix(.21 0 0 .21 903 462)"/><circle cx="50" cy="50" r="30" style="fill:#fff" transform="matrix(.21 0 0 .21 924 462)"/><circle cx="50" cy="50" r="30" style="fill:#fff" transform="matrix(.21 0 0 .21 42 483)"/><circle cx="50" cy="50" r="30" style="fill:#fff" transform="matrix(.21 0 0 .21 84 483)"/><circle cx="50" cy="50" r="30" style="fill:#fff" transform="matrix(.21 0 0 .21 168 483)"/><circle cx="50" cy="50" r="30" style="fill:#fff" transform="matrix(.21 0 0 .21 189 483)"/><circle cx="50" cy="50" r="30" style="fill:#fff" transform="matrix(.21 0 0 .21 273 483)"/><circle cx="50" cy="50" r="30" style="fill:#fff" transform="matrix(.21 0 0 .21 294 483)"/><circle cx="50" cy="50" r="30" style="fill:#fff" transform="matrix(.21 0 0 .21 336 483)"/><circle cx="50" cy="50" r="30" style="fill:#fff" transform="matrix(.21 0 0 .21 693 483)"/><circle cx="50" cy="50" r="30" style="fill:#fff" transform="matrix(.21 0 0 .21 756 483)"/><circle cx="50" cy="50" r="30" style="fill:#fff" transform="matrix(.21 0 0 .21 777 483)"/><circle cx="50" cy="50" r="30" style="fill:#fff" transform="matrix(.21 0 0 .21 840 483)"/><circle cx="50" cy="50" r="30" style="fill:#fff" transform="matrix(.21 0 0 .21 924 483)"/><circle cx="50" cy="50" r="30" style="fill:#fff" transform="matrix(.21 0 0 .21 945 483)"/><circle cx="50" cy="50" r="30" style="fill:#fff" transform="matrix(.21 0 0 .21 966 483)"/><circle cx="50" cy="50" r="30" style="fill:#fff" transform="matrix(.21 0 0 .21 1008 483)"/><circle cx="50" cy="50" r="30" style="fill:#fff" transform="matrix(.21 0 0 .21 84 504)"/><circle cx="50" cy="50" r="30" style="fill:#fff" transform="matrix(.21 0 0 .21 126 504)"/><circle cx="50" cy="50" r="30" style="fill:#fff" transform="matrix(.21 0 0 .21 168 504)"/><circle cx="50" cy="50" r="30" style="fill:#fff" transform="matrix(.21 0 0 .21 189 504)"/><circle cx="50" cy="50" r="30" style="fill:#fff" transform="matrix(.21 0 0 .21 210 504)"/><circle cx="50" cy="50" r="30" style="fill:#fff" transform="matrix(.21 0 0 .21 252 504)"/><circle cx="50" cy="50" r="30" style="fill:#fff" transform="matrix(.21 0 0 .21 294 504)"/><circle cx="50" cy="50" r="30" style="fill:#fff" transform="matrix(.21 0 0 .21 315 504)"/><circle cx="50" cy="50" r="30" style="fill:#fff" transform="matrix(.21 0 0 .21 735 504)"/><circle cx="50" cy="50" r="30" style="fill:#fff" transform="matrix(.21 0 0 .21 756 504)"/><circle cx="50" cy="50" r="30" style="fill:#fff" transform="matrix(.21 0 0 .21 777 504)"/><circle cx="50" cy="50" r="30" style="fill:#fff" transform="matrix(.21 0 0 .21 798 504)"/><circle cx="50" cy="50" r="30" style="fill:#fff" transform="matrix(.21 0 0 .21 840 504)"/><circle cx="50" cy="50" r="30" style="fill:#fff" transform="matrix(.21 0 0 .21 882 504)"/><circle cx="50" cy="50" r="30" style="fill:#fff" transform="matrix(.21 0 0 .21 924 504)"/><circle cx="50" cy="50" r="30" style="fill:#fff" transform="matrix(.21 0 0 .21 945 504)"/><circle cx="50" cy="50" r="30" style="fill:#fff" transform="matrix(.21 0 0 .21 966 504)"/><circle cx="50" cy="50" r="30" style="fill:#fff" transform="matrix(.21 0 0 .21 1008 504)"/><circle cx="50" cy="50" r="30" style="fill:#fff" transform="matrix(.21 0 0 .21 42 525)"/><circle cx="50" cy="50" r="30" style="fill:#fff" transform="matrix(.21 0 0 .21 84 525)"/><circle cx="50" cy="50" r="30" style="fill:#fff" transform="matrix(.21 0 0 .21 168 525)"/><circle cx="50" cy="50" r="30" style="fill:#fff" transform="matrix(.21 0 0 .21 231 525)"/><circle cx="50" cy="50" r="30" style="fill:#fff" transform="matrix(.21 0 0 .21 315 525)"/><circle cx="50" cy="50" r="30" style="fill:#fff" transform="matrix(.21 0 0 .21 672 525)"/><circle cx="50" cy="50" r="30" style="fill:#fff" transform="matrix(.21 0 0 .21 693 525)"/><circle cx="50" cy="50" r="30" style="fill:#fff" transform="matrix(.21 0 0 .21 735 525)"/><circle cx="50" cy="50" r="30" style="fill:#fff" transform="matrix(.21 0 0 .21 777 525)"/><circle cx="50" cy="50" r="30" style="fill:#fff" transform="matrix(.21 0 0 .21 798 525)"/><circle cx="50" cy="50" r="30" style="fill:#fff" transform="matrix(.21 0 0 .21 819 525)"/><circle cx="50" cy="50" r="30" style="fill:#fff" transform="matrix(.21 0 0 .21 840 525)"/><circle cx="50" cy="50" r="30" style="fill:#fff" transform="matrix(.21 0 0 .21 924 525)"/><circle cx="50" cy="50" r="30" style="fill:#fff" transform="matrix(.21 0 0 .21 945 525)"/><circle cx="50" cy="50" r="30" style="fill:#fff" transform="matrix(.21 0 0 .21 966 525)"/><circle cx="50" cy="50" r="30" style="fill:#fff" transform="matrix(.21 0 0 .21 0 546)"/><circle cx="50" cy="50" r="30" style="fill:#fff" transform="matrix(.21 0 0 .21 21 546)"/><circle cx="50" cy="50" r="30" style="fill:#fff" transform="matrix(.21 0 0 .21 84 546)"/><circle cx="50" cy="50" r="30" style="fill:#fff" transform="matrix(.21 0 0 .21 105 546)"/><circle cx="50" cy="50" r="30" style="fill:#fff" transform="matrix(.21 0 0 .21 126 546)"/><circle cx="50" cy="50" r="30" style="fill:#fff" transform="matrix(.21 0 0 .21 147 546)"/><circle cx="50" cy="50" r="30" style="fill:#fff" transform="matrix(.21 0 0 .21 168 546)"/><circle cx="50" cy="50" r="30" style="fill:#fff" transform="matrix(.21 0 0 .21 189 546)"/><circle cx="50" cy="50" r="30" style="fill:#fff" transform="matrix(.21 0 0 .21 210 546)"/><circle cx="50" cy="50" r="30" style="fill:#fff" transform="matrix(.21 0 0 .21 294 546)"/><circle cx="50" cy="50" r="30" style="fill:#fff" transform="matrix(.21 0 0 .21 777 546)"/><circle cx="50" cy="50" r="30" style="fill:#fff" transform="matrix(.21 0 0 .21 798 546)"/><circle cx="50" cy="50" r="30" style="fill:#fff" transform="matrix(.21 0 0 .21 819 546)"/><circle cx="50" cy="50" r="30" style="fill:#fff" transform="matrix(.21 0 0 .21 840 546)"/><circle cx="50" cy="50" r="30" style="fill:#fff" transform="matrix(.21 0 0 .21 861 546)"/><circle cx="50" cy="50" r="30" style="fill:#fff" transform="matrix(.21 0 0 .21 882 546)"/><circle cx="50" cy="50" r="30" style="fill:#fff" transform="matrix(.21 0 0 .21 903 546)"/><circle cx="50" cy="50" r="30" style="fill:#fff" transform="matrix(.21 0 0 .21 924 546)"/><circle cx="50" cy="50" r="30" style="fill:#fff" transform="matrix(.21 0 0 .21 0 567)"/><circle cx="50" cy="50" r="30" style="fill:#fff" transform="matrix(.21 0 0 .21 84 567)"/><circle cx="50" cy="50" r="30" style="fill:#fff" transform="matrix(.21 0 0 .21 105 567)"/><circle cx="50" cy="50" r="30" style="fill:#fff" transform="matrix(.21 0 0 .21 147 567)"/><circle cx="50" cy="50" r="30" style="fill:#fff" transform="matrix(.21 0 0 .21 210 567)"/><circle cx="50" cy="50" r="30" style="fill:#fff" transform="matrix(.21 0 0 .21 273 567)"/><circle cx="50" cy="50" r="30" style="fill:#fff" transform="matrix(.21 0 0 .21 315 567)"/><circle cx="50" cy="50" r="30" style="fill:#fff" transform="matrix(.21 0 0 .21 693 567)"/><circle cx="50" cy="50" r="30" style="fill:#fff" transform="matrix(.21 0 0 .21 777 567)"/><circle cx="50" cy="50" r="30" style="fill:#fff" transform="matrix(.21 0 0 .21 861 567)"/><circle cx="50" cy="50" r="30" style="fill:#fff" transform="matrix(.21 0 0 .21 924 567)"/><circle cx="50" cy="50" r="30" style="fill:#fff" transform="matrix(.21 0 0 .21 987 567)"/><circle cx="50" cy="50" r="30" style="fill:#fff" transform="matrix(.21 0 0 .21 1008 567)"/><circle cx="50" cy="50" r="30" style="fill:#fff" transform="matrix(.21 0 0 .21 0 588)"/><circle cx="50" cy="50" r="30" style="fill:#fff" transform="matrix(.21 0 0 .21 42 588)"/><circle cx="50" cy="50" r="30" style="fill:#fff" transform="matrix(.21 0 0 .21 84 588)"/><circle cx="50" cy="50" r="30" style="fill:#fff" transform="matrix(.21 0 0 .21 105 588)"/><circle cx="50" cy="50" r="30" style="fill:#fff" transform="matrix(.21 0 0 .21 126 588)"/><circle cx="50" cy="50" r="30" style="fill:#fff" transform="matrix(.21 0 0 .21 147 588)"/><circle cx="50" cy="50" r="30" style="fill:#fff" transform="matrix(.21 0 0 .21 189 588)"/><circle cx="50" cy="50" r="30" style="fill:#fff" transform="matrix(.21 0 0 .21 210 588)"/><circle cx="50" cy="50" r="30" style="fill:#fff" transform="matrix(.21 0 0 .21 231 588)"/><circle cx="50" cy="50" r="30" style="fill:#fff" transform="matrix(.21 0 0 .21 273 588)"/><circle cx="50" cy="50" r="30" style="fill:#fff" transform="matrix(.21 0 0 .21 294 588)"/><circle cx="50" cy="50" r="30" style="fill:#fff" transform="matrix(.21 0 0 .21 336 588)"/><circle cx="50" cy="50" r="30" style="fill:#fff" transform="matrix(.21 0 0 .21 693 588)"/><circle cx="50" cy="50" r="30" style="fill:#fff" transform="matrix(.21 0 0 .21 714 588)"/><circle cx="50" cy="50" r="30" style="fill:#fff" transform="matrix(.21 0 0 .21 777 588)"/><circle cx="50" cy="50" r="30" style="fill:#fff" transform="matrix(.21 0 0 .21 798 588)"/><circle cx="50" cy="50" r="30" style="fill:#fff" transform="matrix(.21 0 0 .21 819 588)"/><circle cx="50" cy="50" r="30" style="fill:#fff" transform="matrix(.21 0 0 .21 840 588)"/><circle cx="50" cy="50" r="30" style="fill:#fff" transform="matrix(.21 0 0 .21 861 588)"/><circle cx="50" cy="50" r="30" style="fill:#fff" transform="matrix(.21 0 0 .21 924 588)"/><circle cx="50" cy="50" r="30" style="fill:#fff" transform="matrix(.21 0 0 .21 966 588)"/><circle cx="50" cy="50" r="30" style="fill:#fff" transform="matrix(.21 0 0 .21 987 588)"/><circle cx="50" cy="50" r="30" style="fill:#fff" transform="matrix(.21 0 0 .21 0 609)"/><circle cx="50" cy="50" r="30" style="fill:#fff" transform="matrix(.21 0 0 .21 42 609)"/><circle cx="50" cy="50" r="30" style="fill:#fff" transform="matrix(.21 0 0 .21 84 609)"/><circle cx="50" cy="50" r="30" style="fill:#fff" transform="matrix(.21 0 0 .21 105 609)"/><circle cx="50" cy="50" r="30" style="fill:#fff" transform="matrix(.21 0 0 .21 147 609)"/><circle cx="50" cy="50" r="30" style="fill:#fff" transform="matrix(.21 0 0 .21 168 609)"/><circle cx="50" cy="50" r="30" style="fill:#fff" transform="matrix(.21 0 0 .21 189 609)"/><circle cx="50" cy="50" r="30" style="fill:#fff" transform="matrix(.21 0 0 .21 231 609)"/><circle cx="50" cy="50" r="30" style="fill:#fff" transform="matrix(.21 0 0 .21 273 609)"/><circle cx="50" cy="50" r="30" style="fill:#fff" transform="matrix(.21 0 0 .21 315 609)"/><circle cx="50" cy="50" r="30" style="fill:#fff" transform="matrix(.21 0 0 .21 336 609)"/><circle cx="50" cy="50" r="30" style="fill:#fff" transform="matrix(.21 0 0 .21 672 609)"/><circle cx="50" cy="50" r="30" style="fill:#fff" transform="matrix(.21 0 0 .21 693 609)"/><circle cx="50" cy="50" r="30" style="fill:#fff" transform="matrix(.21 0 0 .21 714 609)"/><circle cx="50" cy="50" r="30" style="fill:#fff" transform="matrix(.21 0 0 .21 735 609)"/><circle cx="50" cy="50" r="30" style="fill:#fff" transform="matrix(.21 0 0 .21 819 609)"/><circle cx="50" cy="50" r="30" style="fill:#fff" transform="matrix(.21 0 0 .21 840 609)"/><circle cx="50" cy="50" r="30" style="fill:#fff" transform="matrix(.21 0 0 .21 882 609)"/><circle cx="50" cy="50" r="30" style="fill:#fff" transform="matrix(.21 0 0 .21 924 609)"/><circle cx="50" cy="50" r="30" style="fill:#fff" transform="matrix(.21 0 0 .21 987 609)"/><circle cx="50" cy="50" r="30" style="fill:#fff" transform="matrix(.21 0 0 .21 0 630)"/><circle cx="50" cy="50" r="30" style="fill:#fff" transform="matrix(.21 0 0 .21 21 630)"/><circle cx="50" cy="50" r="30" style="fill:#fff" transform="matrix(.21 0 0 .21 42 630)"/><circle cx="50" cy="50" r="30" style="fill:#fff" transform="matrix(.21 0 0 .21 84 630)"/><circle cx="50" cy="50" r="30" style="fill:#fff" transform="matrix(.21 0 0 .21 126 630)"/><circle cx="50" cy="50" r="30" style="fill:#fff" transform="matrix(.21 0 0 .21 147 630)"/><circle cx="50" cy="50" r="30" style="fill:#fff" transform="matrix(.21 0 0 .21 294 630)"/><circle cx="50" cy="50" r="30" style="fill:#fff" transform="matrix(.21 0 0 .21 672 630)"/><circle cx="50" cy="50" r="30" style="fill:#fff" transform="matrix(.21 0 0 .21 714 630)"/><circle cx="50" cy="50" r="30" style="fill:#fff" transform="matrix(.21 0 0 .21 798 630)"/><circle cx="50" cy="50" r="30" style="fill:#fff" transform="matrix(.21 0 0 .21 840 630)"/><circle cx="50" cy="50" r="30" style="fill:#fff" transform="matrix(.21 0 0 .21 861 630)"/><circle cx="50" cy="50" r="30" style="fill:#fff" transform="matrix(.21 0 0 .21 882 630)"/><circle cx="50" cy="50" r="30" style="fill:#fff" transform="matrix(.21 0 0 .21 924 630)"/><circle cx="50" cy="50" r="30" style="fill:#fff" transform="matrix(.21 0 0 .21 966 630)"/><circle cx="50" cy="50" r="30" style="fill:#fff" transform="matrix(.21 0 0 .21 42 651)"/><circle cx="50" cy="50" r="30" style="fill:#fff" transform="matrix(.21 0 0 .21 105 651)"/><circle cx="50" cy="50" r="30" style="fill:#fff" transform="matrix(.21 0 0 .21 210 651)"/><circle cx="50" cy="50" r="30" style="fill:#fff" transform="matrix(.21 0 0 .21 294 651)"/><circle cx="50" cy="50" r="30" style="fill:#fff" transform="matrix(.21 0 0 .21 315 651)"/><circle cx="50" cy="50" r="30" style="fill:#fff" transform="matrix(.21 0 0 .21 672 651)"/><circle cx="50" cy="50" r="30" style="fill:#fff" transform="matrix(.21 0 0 .21 693 651)"/><circle cx="50" cy="50" r="30" style="fill:#fff" transform="matrix(.21 0 0 .21 735 651)"/><circle cx="50" cy="50" r="30" style="fill:#fff" transform="matrix(.21 0 0 .21 819 651)"/><circle cx="50" cy="50" r="30" style="fill:#fff" transform="matrix(.21 0 0 .21 840 651)"/><circle cx="50" cy="50" r="30" style="fill:#fff" transform="matrix(.21 0 0 .21 861 651)"/><circle cx="50" cy="50" r="30" style="fill:#fff" transform="matrix(.21 0 0 .21 882 651)"/><circle cx="50" cy="50" r="30" style="fill:#fff" transform="matrix(.21 0 0 .21 903 651)"/><circle cx="50" cy="50" r="30" style="fill:#fff" transform="matrix(.21 0 0 .21 966 651)"/><circle cx="50" cy="50" r="30" style="fill:#fff" transform="matrix(.21 0 0 .21 1008 651)"/><circle cx="50" cy="50" r="30" style="fill:#fff" transform="matrix(.21 0 0 .21 0 672)"/><circle cx="50" cy="50" r="30" style="fill:#fff" transform="matrix(.21 0 0 .21 21 672)"/><circle cx="50" cy="50" r="30" style="fill:#fff" transform="matrix(.21 0 0 .21 42 672)"/><circle cx="50" cy="50" r="30" style="fill:#fff" transform="matrix(.21 0 0 .21 63 672)"/><circle cx="50" cy="50" r="30" style="fill:#fff" transform="matrix(.21 0 0 .21 84 672)"/><circle cx="50" cy="50" r="30" style="fill:#fff" transform="matrix(.21 0 0 .21 126 672)"/><circle cx="50" cy="50" r="30" style="fill:#fff" transform="matrix(.21 0 0 .21 147 672)"/><circle cx="50" cy="50" r="30" style="fill:#fff" transform="matrix(.21 0 0 .21 210 672)"/><circle cx="50" cy="50" r="30" style="fill:#fff" transform="matrix(.21 0 0 .21 252 672)"/><circle cx="50" cy="50" r="30" style="fill:#fff" transform="matrix(.21 0 0 .21 273 672)"/><circle cx="50" cy="50" r="30" style="fill:#fff" transform="matrix(.21 0 0 .21 294 672)"/><circle cx="50" cy="50" r="30" style="fill:#fff" transform="matrix(.21 0 0 .21 315 672)"/><circle cx="50" cy="50" r="30" style="fill:#fff" transform="matrix(.21 0 0 .21 336 672)"/><circle cx="50" cy="50" r="30" style="fill:#fff" transform="matrix(.21 0 0 .21 378 672)"/><circle cx="50" cy="50" r="30" style="fill:#fff" transform="matrix(.21 0 0 .21 420 672)"/><circle cx="50" cy="50" r="30" style="fill:#fff" transform="matrix(.21 0 0 .21 525 672)"/><circle cx="50" cy="50" r="30" style="fill:#fff" transform="matrix(.21 0 0 .21 672 672)"/><circle cx="50" cy="50" r="30" style="fill:#fff" transform="matrix(.21 0 0 .21 735 672)"/><circle cx="50" cy="50" r="30" style="fill:#fff" transform="matrix(.21 0 0 .21 756 672)"/><circle cx="50" cy="50" r="30" style="fill:#fff" transform="matrix(.21 0 0 .21 798 672)"/><circle cx="50" cy="50" r="30" style="fill:#fff" transform="matrix(.21 0 0 .21 861 672)"/><circle cx="50" cy="50" r="30" style="fill:#fff" transform="matrix(.21 0 0 .21 882 672)"/><circle cx="50" cy="50" r="30" style="fill:#fff" transform="matrix(.21 0 0 .21 945 672)"/><circle cx="50" cy="50" r="30" style="fill:#fff" transform="matrix(.21 0 0 .21 1008 672)"/><circle cx="50" cy="50" r="30" style="fill:#fff" transform="matrix(.21 0 0 .21 0 693)"/><circle cx="50" cy="50" r="30" style="fill:#fff" transform="matrix(.21 0 0 .21 21 693)"/><circle cx="50" cy="50" r="30" style="fill:#fff" transform="matrix(.21 0 0 .21 42 693)"/><circle cx="50" cy="50" r="30" style="fill:#fff" transform="matrix(.21 0 0 .21 63 693)"/><circle cx="50" cy="50" r="30" style="fill:#fff" transform="matrix(.21 0 0 .21 84 693)"/><circle cx="50" cy="50" r="30" style="fill:#fff" transform="matrix(.21 0 0 .21 105 693)"/><circle cx="50" cy="50" r="30" style="fill:#fff" transform="matrix(.21 0 0 .21 147 693)"/><circle cx="50" cy="50" r="30" style="fill:#fff" transform="matrix(.21 0 0 .21 189 693)"/><circle cx="50" cy="50" r="30" style="fill:#fff" transform="matrix(.21 0 0 .21 273 693)"/><circle cx="50" cy="50" r="30" style="fill:#fff" transform="matrix(.21 0 0 .21 378 693)"/><circle cx="50" cy="50" r="30" style="fill:#fff" transform="matrix(.21 0 0 .21 399 693)"/><circle cx="50" cy="50" r="30" style="fill:#fff" transform="matrix(.21 0 0 .21 420 693)"/><circle cx="50" cy="50" r="30" style="fill:#fff" transform="matrix(.21 0 0 .21 441 693)"/><circle cx="50" cy="50" r="30" style="fill:#fff" transform="matrix(.21 0 0 .21 546 693)"/><circle cx="50" cy="50" r="30" style="fill:#fff" transform="matrix(.21 0 0 .21 567 693)"/><circle cx="50" cy="50" r="30" style="fill:#fff" transform="matrix(.21 0 0 .21 588 693)"/><circle cx="50" cy="50" r="30" style="fill:#fff" transform="matrix(.21 0 0 .21 672 693)"/><circle cx="50" cy="50" r="30" style="fill:#fff" transform="matrix(.21 0 0 .21 693 693)"/><circle cx="50" cy="50" r="30" style="fill:#fff" transform="matrix(.21 0 0 .21 714 693)"/><circle cx="50" cy="50" r="30" style="fill:#fff" transform="matrix(.21 0 0 .21 798 693)"/><circle cx="50" cy="50" r="30" style="fill:#fff" transform="matrix(.21 0 0 .21 840 693)"/><circle cx="50" cy="50" r="30" style="fill:#fff" transform="matrix(.21 0 0 .21 861 693)"/><circle cx="50" cy="50" r="30" style="fill:#fff" transform="matrix(.21 0 0 .21 882 693)"/><circle cx="50" cy="50" r="30" style="fill:#fff" transform="matrix(.21 0 0 .21 903 693)"/><circle cx="50" cy="50" r="30" style="fill:#fff" transform="matrix(.21 0 0 .21 966 693)"/><circle cx="50" cy="50" r="30" style="fill:#fff" transform="matrix(.21 0 0 .21 987 693)"/><circle cx="50" cy="50" r="30" style="fill:#fff" transform="matrix(.21 0 0 .21 1008 693)"/><circle cx="50" cy="50" r="30" style="fill:#fff" transform="matrix(.21 0 0 .21 0 714)"/><circle cx="50" cy="50" r="30" style="fill:#fff" transform="matrix(.21 0 0 .21 42 714)"/><circle cx="50" cy="50" r="30" style="fill:#fff" transform="matrix(.21 0 0 .21 105 714)"/><circle cx="50" cy="50" r="30" style="fill:#fff" transform="matrix(.21 0 0 .21 126 714)"/><circle cx="50" cy="50" r="30" style="fill:#fff" transform="matrix(.21 0 0 .21 147 714)"/><circle cx="50" cy="50" r="30" style="fill:#fff" transform="matrix(.21 0 0 .21 168 714)"/><circle cx="50" cy="50" r="30" style="fill:#fff" transform="matrix(.21 0 0 .21 189 714)"/><circle cx="50" cy="50" r="30" style="fill:#fff" transform="matrix(.21 0 0 .21 315 714)"/><circle cx="50" cy="50" r="30" style="fill:#fff" transform="matrix(.21 0 0 .21 378 714)"/><circle cx="50" cy="50" r="30" style="fill:#fff" transform="matrix(.21 0 0 .21 420 714)"/><circle cx="50" cy="50" r="30" style="fill:#fff" transform="matrix(.21 0 0 .21 441 714)"/><circle cx="50" cy="50" r="30" style="fill:#fff" transform="matrix(.21 0 0 .21 483 714)"/><circle cx="50" cy="50" r="30" style="fill:#fff" transform="matrix(.21 0 0 .21 504 714)"/><circle cx="50" cy="50" r="30" style="fill:#fff" transform="matrix(.21 0 0 .21 588 714)"/><circle cx="50" cy="50" r="30" style="fill:#fff" transform="matrix(.21 0 0 .21 630 714)"/><circle cx="50" cy="50" r="30" style="fill:#fff" transform="matrix(.21 0 0 .21 651 714)"/><circle cx="50" cy="50" r="30" style="fill:#fff" transform="matrix(.21 0 0 .21 693 714)"/><circle cx="50" cy="50" r="30" style="fill:#fff" transform="matrix(.21 0 0 .21 714 714)"/><circle cx="50" cy="50" r="30" style="fill:#fff" transform="matrix(.21 0 0 .21 756 714)"/><circle cx="50" cy="50" r="30" style="fill:#fff" transform="matrix(.21 0 0 .21 798 714)"/><circle cx="50" cy="50" r="30" style="fill:#fff" transform="matrix(.21 0 0 .21 819 714)"/><circle cx="50" cy="50" r="30" style="fill:#fff" transform="matrix(.21 0 0 .21 861 714)"/><circle cx="50" cy="50" r="30" style="fill:#fff" transform="matrix(.21 0 0 .21 903 714)"/><circle cx="50" cy="50" r="30" style="fill:#fff" transform="matrix(.21 0 0 .21 924 714)"/><circle cx="50" cy="50" r="30" style="fill:#fff" transform="matrix(.21 0 0 .21 945 714)"/><circle cx="50" cy="50" r="30" style="fill:#fff" transform="matrix(.21 0 0 .21 42 735)"/><circle cx="50" cy="50" r="30" style="fill:#fff" transform="matrix(.21 0 0 .21 147 735)"/><circle cx="50" cy="50" r="30" style="fill:#fff" transform="matrix(.21 0 0 .21 168 735)"/><circle cx="50" cy="50" r="30" style="fill:#fff" transform="matrix(.21 0 0 .21 210 735)"/><circle cx="50" cy="50" r="30" style="fill:#fff" transform="matrix(.21 0 0 .21 231 735)"/><circle cx="50" cy="50" r="30" style="fill:#fff" transform="matrix(.21 0 0 .21 252 735)"/><circle cx="50" cy="50" r="30" style="fill:#fff" transform="matrix(.21 0 0 .21 294 735)"/><circle cx="50" cy="50" r="30" style="fill:#fff" transform="matrix(.21 0 0 .21 336 735)"/><circle cx="50" cy="50" r="30" style="fill:#fff" transform="matrix(.21 0 0 .21 357 735)"/><circle cx="50" cy="50" r="30" style="fill:#fff" transform="matrix(.21 0 0 .21 441 735)"/><circle cx="50" cy="50" r="30" style="fill:#fff" transform="matrix(.21 0 0 .21 462 735)"/><circle cx="50" cy="50" r="30" style="fill:#fff" transform="matrix(.21 0 0 .21 483 735)"/><circle cx="50" cy="50" r="30" style="fill:#fff" transform="matrix(.21 0 0 .21 567 735)"/><circle cx="50" cy="50" r="30" style="fill:#fff" transform="matrix(.21 0 0 .21 609 735)"/><circle cx="50" cy="50" r="30" style="fill:#fff" transform="matrix(.21 0 0 .21 693 735)"/><circle cx="50" cy="50" r="30" style="fill:#fff" transform="matrix(.21 0 0 .21 735 735)"/><circle cx="50" cy="50" r="30" style="fill:#fff" transform="matrix(.21 0 0 .21 798 735)"/><circle cx="50" cy="50" r="30" style="fill:#fff" transform="matrix(.21 0 0 .21 819 735)"/><circle cx="50" cy="50" r="30" style="fill:#fff" transform="matrix(.21 0 0 .21 861 735)"/><circle cx="50" cy="50" r="30" style="fill:#fff" transform="matrix(.21 0 0 .21 882 735)"/><circle cx="50" cy="50" r="30" style="fill:#fff" transform="matrix(.21 0 0 .21 924 735)"/><circle cx="50" cy="50" r="30" style="fill:#fff" transform="matrix(.21 0 0 .21 945 735)"/><circle cx="50" cy="50" r="30" style="fill:#fff" transform="matrix(.21 0 0 .21 966 735)"/><circle cx="50" cy="50" r="30" style="fill:#fff" transform="matrix(.21 0 0 .21 987 735)"/><circle cx="50" cy="50" r="30" style="fill:#fff" transform="matrix(.21 0 0 .21 21 756)"/><circle cx="50" cy="50" r="30" style="fill:#fff" transform="matrix(.21 0 0 .21 42 756)"/><circle cx="50" cy="50" r="30" style="fill:#fff" transform="matrix(.21 0 0 .21 63 756)"/><circle cx="50" cy="50" r="30" style="fill:#fff" transform="matrix(.21 0 0 .21 84 756)"/><circle cx="50" cy="50" r="30" style="fill:#fff" transform="matrix(.21 0 0 .21 126 756)"/><circle cx="50" cy="50" r="30" style="fill:#fff" transform="matrix(.21 0 0 .21 168 756)"/><circle cx="50" cy="50" r="30" style="fill:#fff" transform="matrix(.21 0 0 .21 210 756)"/><circle cx="50" cy="50" r="30" style="fill:#fff" transform="matrix(.21 0 0 .21 231 756)"/><circle cx="50" cy="50" r="30" style="fill:#fff" transform="matrix(.21 0 0 .21 294 756)"/><circle cx="50" cy="50" r="30" style="fill:#fff" transform="matrix(.21 0 0 .21 357 756)"/><circle cx="50" cy="50" r="30" style="fill:#fff" transform="matrix(.21 0 0 .21 378 756)"/><circle cx="50" cy="50" r="30" style="fill:#fff" transform="matrix(.21 0 0 .21 462 756)"/><circle cx="50" cy="50" r="30" style="fill:#fff" transform="matrix(.21 0 0 .21 483 756)"/><circle cx="50" cy="50" r="30" style="fill:#fff" transform="matrix(.21 0 0 .21 525 756)"/><circle cx="50" cy="50" r="30" style="fill:#fff" transform="matrix(.21 0 0 .21 546 756)"/><circle cx="50" cy="50" r="30" style="fill:#fff" transform="matrix(.21 0 0 .21 567 756)"/><circle cx="50" cy="50" r="30" style="fill:#fff" transform="matrix(.21 0 0 .21 609 756)"/><circle cx="50" cy="50" r="30" style="fill:#fff" transform="matrix(.21 0 0 .21 693 756)"/><circle cx="50" cy="50" r="30" style="fill:#fff" transform="matrix(.21 0 0 .21 714 756)"/><circle cx="50" cy="50" r="30" style="fill:#fff" transform="matrix(.21 0 0 .21 819 756)"/><circle cx="50" cy="50" r="30" style="fill:#fff" transform="matrix(.21 0 0 .21 987 756)"/><circle cx="50" cy="50" r="30" style="fill:#fff" transform="matrix(.21 0 0 .21 21 777)"/><circle cx="50" cy="50" r="30" style="fill:#fff" transform="matrix(.21 0 0 .21 42 777)"/><circle cx="50" cy="50" r="30" style="fill:#fff" transform="matrix(.21 0 0 .21 63 777)"/><circle cx="50" cy="50" r="30" style="fill:#fff" transform="matrix(.21 0 0 .21 147 777)"/><circle cx="50" cy="50" r="30" style="fill:#fff" transform="matrix(.21 0 0 .21 168 777)"/><circle cx="50" cy="50" r="30" style="fill:#fff" transform="matrix(.21 0 0 .21 231 777)"/><circle cx="50" cy="50" r="30" style="fill:#fff" transform="matrix(.21 0 0 .21 252 777)"/><circle cx="50" cy="50" r="30" style="fill:#fff" transform="matrix(.21 0 0 .21 336 777)"/><circle cx="50" cy="50" r="30" style="fill:#fff" transform="matrix(.21 0 0 .21 420 777)"/><circle cx="50" cy="50" r="30" style="fill:#fff" transform="matrix(.21 0 0 .21 504 777)"/><circle cx="50" cy="50" r="30" style="fill:#fff" transform="matrix(.21 0 0 .21 567 777)"/><circle cx="50" cy="50" r="30" style="fill:#fff" transform="matrix(.21 0 0 .21 651 777)"/><circle cx="50" cy="50" r="30" style="fill:#fff" transform="matrix(.21 0 0 .21 672 777)"/><circle cx="50" cy="50" r="30" style="fill:#fff" transform="matrix(.21 0 0 .21 693 777)"/><circle cx="50" cy="50" r="30" style="fill:#fff" transform="matrix(.21 0 0 .21 714 777)"/><circle cx="50" cy="50" r="30" style="fill:#fff" transform="matrix(.21 0 0 .21 840 777)"/><circle cx="50" cy="50" r="30" style="fill:#fff" transform="matrix(.21 0 0 .21 882 777)"/><circle cx="50" cy="50" r="30" style="fill:#fff" transform="matrix(.21 0 0 .21 987 777)"/><circle cx="50" cy="50" r="30" style="fill:#fff" transform="matrix(.21 0 0 .21 1008 777)"/><circle cx="50" cy="50" r="30" style="fill:#fff" transform="matrix(.21 0 0 .21 21 798)"/><circle cx="50" cy="50" r="30" style="fill:#fff" transform="matrix(.21 0 0 .21 105 798)"/><circle cx="50" cy="50" r="30" style="fill:#fff" transform="matrix(.21 0 0 .21 126 798)"/><circle cx="50" cy="50" r="30" style="fill:#fff" transform="matrix(.21 0 0 .21 168 798)"/><circle cx="50" cy="50" r="30" style="fill:#fff" transform="matrix(.21 0 0 .21 231 798)"/><circle cx="50" cy="50" r="30" style="fill:#fff" transform="matrix(.21 0 0 .21 273 798)"/><circle cx="50" cy="50" r="30" style="fill:#fff" transform="matrix(.21 0 0 .21 378 798)"/><circle cx="50" cy="50" r="30" style="fill:#fff" transform="matrix(.21 0 0 .21 399 798)"/><circle cx="50" cy="50" r="30" style="fill:#fff" transform="matrix(.21 0 0 .21 420 798)"/><circle cx="50" cy="50" r="30" style="fill:#fff" transform="matrix(.21 0 0 .21 462 798)"/><circle cx="50" cy="50" r="30" style="fill:#fff" transform="matrix(.21 0 0 .21 483 798)"/><circle cx="50" cy="50" r="30" style="fill:#fff" transform="matrix(.21 0 0 .21 525 798)"/><circle cx="50" cy="50" r="30" style="fill:#fff" transform="matrix(.21 0 0 .21 567 798)"/><circle cx="50" cy="50" r="30" style="fill:#fff" transform="matrix(.21 0 0 .21 588 798)"/><circle cx="50" cy="50" r="30" style="fill:#fff" transform="matrix(.21 0 0 .21 609 798)"/><circle cx="50" cy="50" r="30" style="fill:#fff" transform="matrix(.21 0 0 .21 651 798)"/><circle cx="50" cy="50" r="30" style="fill:#fff" transform="matrix(.21 0 0 .21 714 798)"/><circle cx="50" cy="50" r="30" style="fill:#fff" transform="matrix(.21 0 0 .21 735 798)"/><circle cx="50" cy="50" r="30" style="fill:#fff" transform="matrix(.21 0 0 .21 756 798)"/><circle cx="50" cy="50" r="30" style="fill:#fff" transform="matrix(.21 0 0 .21 819 798)"/><circle cx="50" cy="50" r="30" style="fill:#fff" transform="matrix(.21 0 0 .21 840 798)"/><circle cx="50" cy="50" r="30" style="fill:#fff" transform="matrix(.21 0 0 .21 882 798)"/><circle cx="50" cy="50" r="30" style="fill:#fff" transform="matrix(.21 0 0 .21 903 798)"/><circle cx="50" cy="50" r="30" style="fill:#fff" transform="matrix(.21 0 0 .21 945 798)"/><circle cx="50" cy="50" r="30" style="fill:#fff" transform="matrix(.21 0 0 .21 966 798)"/><circle cx="50" cy="50" r="30" style="fill:#fff" transform="matrix(.21 0 0 .21 987 798)"/><circle cx="50" cy="50" r="30" style="fill:#fff" transform="matrix(.21 0 0 .21 21 819)"/><circle cx="50" cy="50" r="30" style="fill:#fff" transform="matrix(.21 0 0 .21 42 819)"/><circle cx="50" cy="50" r="30" style="fill:#fff" transform="matrix(.21 0 0 .21 63 819)"/><circle cx="50" cy="50" r="30" style="fill:#fff" transform="matrix(.21 0 0 .21 189 819)"/><circle cx="50" cy="50" r="30" style="fill:#fff" transform="matrix(.21 0 0 .21 231 819)"/><circle cx="50" cy="50" r="30" style="fill:#fff" transform="matrix(.21 0 0 .21 252 819)"/><circle cx="50" cy="50" r="30" style="fill:#fff" transform="matrix(.21 0 0 .21 273 819)"/><circle cx="50" cy="50" r="30" style="fill:#fff" transform="matrix(.21 0 0 .21 315 819)"/><circle cx="50" cy="50" r="30" style="fill:#fff" transform="matrix(.21 0 0 .21 336 819)"/><circle cx="50" cy="50" r="30" style="fill:#fff" transform="matrix(.21 0 0 .21 378 819)"/><circle cx="50" cy="50" r="30" style="fill:#fff" transform="matrix(.21 0 0 .21 399 819)"/><circle cx="50" cy="50" r="30" style="fill:#fff" transform="matrix(.21 0 0 .21 420 819)"/><circle cx="50" cy="50" r="30" style="fill:#fff" transform="matrix(.21 0 0 .21 462 819)"/><circle cx="50" cy="50" r="30" style="fill:#fff" transform="matrix(.21 0 0 .21 504 819)"/><circle cx="50" cy="50" r="30" style="fill:#fff" transform="matrix(.21 0 0 .21 609 819)"/><circle cx="50" cy="50" r="30" style="fill:#fff" transform="matrix(.21 0 0 .21 672 819)"/><circle cx="50" cy="50" r="30" style="fill:#fff" transform="matrix(.21 0 0 .21 693 819)"/><circle cx="50" cy="50" r="30" style="fill:#fff" transform="matrix(.21 0 0 .21 756 819)"/><circle cx="50" cy="50" r="30" style="fill:#fff" transform="matrix(.21 0 0 .21 840 819)"/><circle cx="50" cy="50" r="30" style="fill:#fff" transform="matrix(.21 0 0 .21 882 819)"/><circle cx="50" cy="50" r="30" style="fill:#fff" transform="matrix(.21 0 0 .21 945 819)"/><circle cx="50" cy="50" r="30" style="fill:#fff" transform="matrix(.21 0 0 .21 987 819)"/><circle cx="50" cy="50" r="30" style="fill:#fff" transform="matrix(.21 0 0 .21 1008 819)"/><circle cx="50" cy="50" r="30" style="fill:#fff" transform="matrix(.21 0 0 .21 0 840)"/><circle cx="50" cy="50" r="30" style="fill:#fff" transform="matrix(.21 0 0 .21 21 840)"/><circle cx="50" cy="50" r="30" style="fill:#fff" transform="matrix(.21 0 0 .21 42 840)"/><circle cx="50" cy="50" r="30" style="fill:#fff" transform="matrix(.21 0 0 .21 126 840)"/><circle cx="50" cy="50" r="30" style="fill:#fff" transform="matrix(.21 0 0 .21 147 840)"/><circle cx="50" cy="50" r="30" style="fill:#fff" transform="matrix(.21 0 0 .21 168 840)"/><circle cx="50" cy="50" r="30" style="fill:#fff" transform="matrix(.21 0 0 .21 189 840)"/><circle cx="50" cy="50" r="30" style="fill:#fff" transform="matrix(.21 0 0 .21 273 840)"/><circle cx="50" cy="50" r="30" style="fill:#fff" transform="matrix(.21 0 0 .21 420 840)"/><circle cx="50" cy="50" r="30" style="fill:#fff" transform="matrix(.21 0 0 .21 441 840)"/><circle cx="50" cy="50" r="30" style="fill:#fff" transform="matrix(.21 0 0 .21 462 840)"/><circle cx="50" cy="50" r="30" style="fill:#fff" transform="matrix(.21 0 0 .21 483 840)"/><circle cx="50" cy="50" r="30" style="fill:#fff" transform="matrix(.21 0 0 .21 504 840)"/><circle cx="50" cy="50" r="30" style="fill:#fff" transform="matrix(.21 0 0 .21 525 840)"/><circle cx="50" cy="50" r="30" style="fill:#fff" transform="matrix(.21 0 0 .21 546 840)"/><circle cx="50" cy="50" r="30" style="fill:#fff" transform="matrix(.21 0 0 .21 630 840)"/><circle cx="50" cy="50" r="30" style="fill:#fff" transform="matrix(.21 0 0 .21 651 840)"/><circle cx="50" cy="50" r="30" style="fill:#fff" transform="matrix(.21 0 0 .21 693 840)"/><circle cx="50" cy="50" r="30" style="fill:#fff" transform="matrix(.21 0 0 .21 735 840)"/><circle cx="50" cy="50" r="30" style="fill:#fff" transform="matrix(.21 0 0 .21 756 840)"/><circle cx="50" cy="50" r="30" style="fill:#fff" transform="matrix(.21 0 0 .21 777 840)"/><circle cx="50" cy="50" r="30" style="fill:#fff" transform="matrix(.21 0 0 .21 798 840)"/><circle cx="50" cy="50" r="30" style="fill:#fff" transform="matrix(.21 0 0 .21 840 840)"/><circle cx="50" cy="50" r="30" style="fill:#fff" transform="matrix(.21 0 0 .21 861 840)"/><circle cx="50" cy="50" r="30" style="fill:#fff" transform="matrix(.21 0 0 .21 882 840)"/><circle cx="50" cy="50" r="30" style="fill:#fff" transform="matrix(.21 0 0 .21 903 840)"/><circle cx="50" cy="50" r="30" style="fill:#fff" transform="matrix(.21 0 0 .21 924 840)"/><circle cx="50" cy="50" r="30" style="fill:#fff" transform="matrix(.21 0 0 .21 945 840)"/><circle cx="50" cy="50" r="30" style="fill:#fff" transform="matrix(.21 0 0 .21 987 840)"/><circle cx="50" cy="50" r="30" style="fill:#fff" transform="matrix(.21 0 0 .21 1008 840)"/><circle cx="50" cy="50" r="30" style="fill:#fff" transform="matrix(.21 0 0 .21 168 861)"/><circle cx="50" cy="50" r="30" style="fill:#fff" transform="matrix(.21 0 0 .21 252 861)"/><circle cx="50" cy="50" r="30" style="fill:#fff" transform="matrix(.21 0 0 .21 294 861)"/><circle cx="50" cy="50" r="30" style="fill:#fff" transform="matrix(.21 0 0 .21 315 861)"/><circle cx="50" cy="50" r="30" style="fill:#fff" transform="matrix(.21 0 0 .21 357 861)"/><circle cx="50" cy="50" r="30" style="fill:#fff" transform="matrix(.21 0 0 .21 399 861)"/><circle cx="50" cy="50" r="30" style="fill:#fff" transform="matrix(.21 0 0 .21 462 861)"/><circle cx="50" cy="50" r="30" style="fill:#fff" transform="matrix(.21 0 0 .21 546 861)"/><circle cx="50" cy="50" r="30" style="fill:#fff" transform="matrix(.21 0 0 .21 630 861)"/><circle cx="50" cy="50" r="30" style="fill:#fff" transform="matrix(.21 0 0 .21 651 861)"/><circle cx="50" cy="50" r="30" style="fill:#fff" transform="matrix(.21 0 0 .21 714 861)"/><circle cx="50" cy="50" r="30" style="fill:#fff" transform="matrix(.21 0 0 .21 735 861)"/><circle cx="50" cy="50" r="30" style="fill:#fff" transform="matrix(.21 0 0 .21 756 861)"/><circle cx="50" cy="50" r="30" style="fill:#fff" transform="matrix(.21 0 0 .21 777 861)"/><circle cx="50" cy="50" r="30" style="fill:#fff" transform="matrix(.21 0 0 .21 840 861)"/><circle cx="50" cy="50" r="30" style="fill:#fff" transform="matrix(.21 0 0 .21 924 861)"/><circle cx="50" cy="50" r="30" style="fill:#fff" transform="matrix(.21 0 0 .21 966 861)"/><circle cx="50" cy="50" r="30" style="fill:#fff" transform="matrix(.21 0 0 .21 1008 861)"/><circle cx="50" cy="50" r="30" style="fill:#fff" transform="matrix(.21 0 0 .21 168 882)"/><circle cx="50" cy="50" r="30" style="fill:#fff" transform="matrix(.21 0 0 .21 210 882)"/><circle cx="50" cy="50" r="30" style="fill:#fff" transform="matrix(.21 0 0 .21 231 882)"/><circle cx="50" cy="50" r="30" style="fill:#fff" transform="matrix(.21 0 0 .21 273 882)"/><circle cx="50" cy="50" r="30" style="fill:#fff" transform="matrix(.21 0 0 .21 315 882)"/><circle cx="50" cy="50" r="30" style="fill:#fff" transform="matrix(.21 0 0 .21 336 882)"/><circle cx="50" cy="50" r="30" style="fill:#fff" transform="matrix(.21 0 0 .21 357 882)"/><circle cx="50" cy="50" r="30" style="fill:#fff" transform="matrix(.21 0 0 .21 378 882)"/><circle cx="50" cy="50" r="30" style="fill:#fff" transform="matrix(.21 0 0 .21 399 882)"/><circle cx="50" cy="50" r="30" style="fill:#fff" transform="matrix(.21 0 0 .21 420 882)"/><circle cx="50" cy="50" r="30" style="fill:#fff" transform="matrix(.21 0 0 .21 441 882)"/><circle cx="50" cy="50" r="30" style="fill:#fff" transform="matrix(.21 0 0 .21 462 882)"/><circle cx="50" cy="50" r="30" style="fill:#fff" transform="matrix(.21 0 0 .21 504 882)"/><circle cx="50" cy="50" r="30" style="fill:#fff" transform="matrix(.21 0 0 .21 546 882)"/><circle cx="50" cy="50" r="30" style="fill:#fff" transform="matrix(.21 0 0 .21 609 882)"/><circle cx="50" cy="50" r="30" style="fill:#fff" transform="matrix(.21 0 0 .21 651 882)"/><circle cx="50" cy="50" r="30" style="fill:#fff" transform="matrix(.21 0 0 .21 735 882)"/><circle cx="50" cy="50" r="30" style="fill:#fff" transform="matrix(.21 0 0 .21 777 882)"/><circle cx="50" cy="50" r="30" style="fill:#fff" transform="matrix(.21 0 0 .21 819 882)"/><circle cx="50" cy="50" r="30" style="fill:#fff" transform="matrix(.21 0 0 .21 840 882)"/><circle cx="50" cy="50" r="30" style="fill:#fff" transform="matrix(.21 0 0 .21 882 882)"/><circle cx="50" cy="50" r="30" style="fill:#fff" transform="matrix(.21 0 0 .21 924 882)"/><circle cx="50" cy="50" r="30" style="fill:#fff" transform="matrix(.21 0 0 .21 987 882)"/><circle cx="50" cy="50" r="30" style="fill:#fff" transform="matrix(.21 0 0 .21 1008 882)"/><circle cx="50" cy="50" r="30" style="fill:#fff" transform="matrix(.21 0 0 .21 189 903)"/><circle cx="50" cy="50" r="30" style="fill:#fff" transform="matrix(.21 0 0 .21 231 903)"/><circle cx="50" cy="50" r="30" style="fill:#fff" transform="matrix(.21 0 0 .21 315 903)"/><circle cx="50" cy="50" r="30" style="fill:#fff" transform="matrix(.21 0 0 .21 336 903)"/><circle cx="50" cy="50" r="30" style="fill:#fff" transform="matrix(.21 0 0 .21 357 903)"/><circle cx="50" cy="50" r="30" style="fill:#fff" transform="matrix(.21 0 0 .21 378 903)"/><circle cx="50" cy="50" r="30" style="fill:#fff" transform="matrix(.21 0 0 .21 399 903)"/><circle cx="50" cy="50" r="30" style="fill:#fff" transform="matrix(.21 0 0 .21 441 903)"/><circle cx="50" cy="50" r="30" style="fill:#fff" transform="matrix(.21 0 0 .21 462 903)"/><circle cx="50" cy="50" r="30" style="fill:#fff" transform="matrix(.21 0 0 .21 546 903)"/><circle cx="50" cy="50" r="30" style="fill:#fff" transform="matrix(.21 0 0 .21 588 903)"/><circle cx="50" cy="50" r="30" style="fill:#fff" transform="matrix(.21 0 0 .21 630 903)"/><circle cx="50" cy="50" r="30" style="fill:#fff" transform="matrix(.21 0 0 .21 651 903)"/><circle cx="50" cy="50" r="30" style="fill:#fff" transform="matrix(.21 0 0 .21 735 903)"/><circle cx="50" cy="50" r="30" style="fill:#fff" transform="matrix(.21 0 0 .21 756 903)"/><circle cx="50" cy="50" r="30" style="fill:#fff" transform="matrix(.21 0 0 .21 777 903)"/><circle cx="50" cy="50" r="30" style="fill:#fff" transform="matrix(.21 0 0 .21 819 903)"/><circle cx="50" cy="50" r="30" style="fill:#fff" transform="matrix(.21 0 0 .21 840 903)"/><circle cx="50" cy="50" r="30" style="fill:#fff" transform="matrix(.21 0 0 .21 924 903)"/><circle cx="50" cy="50" r="30" style="fill:#fff" transform="matrix(.21 0 0 .21 945 903)"/><circle cx="50" cy="50" r="30" style="fill:#fff" transform="matrix(.21 0 0 .21 987 903)"/><circle cx="50" cy="50" r="30" style="fill:#fff" transform="matrix(.21 0 0 .21 1008 903)"/><circle cx="50" cy="50" r="30" style="fill:#fff" transform="matrix(.21 0 0 .21 231 924)"/><circle cx="50" cy="50" r="30" style="fill:#fff" transform="matrix(.21 0 0 .21 273 924)"/><circle cx="50" cy="50" r="30" style="fill:#fff" transform="matrix(.21 0 0 .21 315 924)"/><circle cx="50" cy="50" r="30" style="fill:#fff" transform="matrix(.21 0 0 .21 336 924)"/><circle cx="50" cy="50" r="30" style="fill:#fff" transform="matrix(.21 0 0 .21 462 924)"/><circle cx="50" cy="50" r="30" style="fill:#fff" transform="matrix(.21 0 0 .21 483 924)"/><circle cx="50" cy="50" r="30" style="fill:#fff" transform="matrix(.21 0 0 .21 504 924)"/><circle cx="50" cy="50" r="30" style="fill:#fff" transform="matrix(.21 0 0 .21 525 924)"/><circle cx="50" cy="50" r="30" style="fill:#fff" transform="matrix(.21 0 0 .21 546 924)"/><circle cx="50" cy="50" r="30" style="fill:#fff" transform="matrix(.21 0 0 .21 567 924)"/><circle cx="50" cy="50" r="30" style="fill:#fff" transform="matrix(.21 0 0 .21 588 924)"/><circle cx="50" cy="50" r="30" style="fill:#fff" transform="matrix(.21 0 0 .21 609 924)"/><circle cx="50" cy="50" r="30" style="fill:#fff" transform="matrix(.21 0 0 .21 651 924)"/><circle cx="50" cy="50" r="30" style="fill:#fff" transform="matrix(.21 0 0 .21 693 924)"/><circle cx="50" cy="50" r="30" style="fill:#fff" transform="matrix(.21 0 0 .21 714 924)"/><circle cx="50" cy="50" r="30" style="fill:#fff" transform="matrix(.21 0 0 .21 735 924)"/><circle cx="50" cy="50" r="30" style="fill:#fff" transform="matrix(.21 0 0 .21 840 924)"/><circle cx="50" cy="50" r="30" style="fill:#fff" transform="matrix(.21 0 0 .21 861 924)"/><circle cx="50" cy="50" r="30" style="fill:#fff" transform="matrix(.21 0 0 .21 882 924)"/><circle cx="50" cy="50" r="30" style="fill:#fff" transform="matrix(.21 0 0 .21 903 924)"/><circle cx="50" cy="50" r="30" style="fill:#fff" transform="matrix(.21 0 0 .21 924 924)"/><circle cx="50" cy="50" r="30" style="fill:#fff" transform="matrix(.21 0 0 .21 987 924)"/><circle cx="50" cy="50" r="30" style="fill:#fff" transform="matrix(.21 0 0 .21 1008 924)"/><circle cx="50" cy="50" r="30" style="fill:#fff" transform="matrix(.21 0 0 .21 168 945)"/><circle cx="50" cy="50" r="30" style="fill:#fff" transform="matrix(.21 0 0 .21 189 945)"/><circle cx="50" cy="50" r="30" style="fill:#fff" transform="matrix(.21 0 0 .21 231 945)"/><circle cx="50" cy="50" r="30" style="fill:#fff" transform="matrix(.21 0 0 .21 252 945)"/><circle cx="50" cy="50" r="30" style="fill:#fff" transform="matrix(.21 0 0 .21 273 945)"/><circle cx="50" cy="50" r="30" style="fill:#fff" transform="matrix(.21 0 0 .21 315 945)"/><circle cx="50" cy="50" r="30" style="fill:#fff" transform="matrix(.21 0 0 .21 420 945)"/><circle cx="50" cy="50" r="30" style="fill:#fff" transform="matrix(.21 0 0 .21 462 945)"/><circle cx="50" cy="50" r="30" style="fill:#fff" transform="matrix(.21 0 0 .21 525 945)"/><circle cx="50" cy="50" r="30" style="fill:#fff" transform="matrix(.21 0 0 .21 567 945)"/><circle cx="50" cy="50" r="30" style="fill:#fff" transform="matrix(.21 0 0 .21 609 945)"/><circle cx="50" cy="50" r="30" style="fill:#fff" transform="matrix(.21 0 0 .21 777 945)"/><circle cx="50" cy="50" r="30" style="fill:#fff" transform="matrix(.21 0 0 .21 819 945)"/><circle cx="50" cy="50" r="30" style="fill:#fff" transform="matrix(.21 0 0 .21 924 945)"/><circle cx="50" cy="50" r="30" style="fill:#fff" transform="matrix(.21 0 0 .21 966 945)"/><circle cx="50" cy="50" r="30" style="fill:#fff" transform="matrix(.21 0 0 .21 1008 945)"/><circle cx="50" cy="50" r="30" style="fill:#fff" transform="matrix(.21 0 0 .21 168 966)"/><circle cx="50" cy="50" r="30" style="fill:#fff" transform="matrix(.21 0 0 .21 189 966)"/><circle cx="50" cy="50" r="30" style="fill:#fff" transform="matrix(.21 0 0 .21 210 966)"/><circle cx="50" cy="50" r="30" style="fill:#fff" transform="matrix(.21 0 0 .21 273 966)"/><circle cx="50" cy="50" r="30" style="fill:#fff" transform="matrix(.21 0 0 .21 294 966)"/><circle cx="50" cy="50" r="30" style="fill:#fff" transform="matrix(.21 0 0 .21 336 966)"/><circle cx="50" cy="50" r="30" style="fill:#fff" transform="matrix(.21 0 0 .21 357 966)"/><circle cx="50" cy="50" r="30" style="fill:#fff" transform="matrix(.21 0 0 .21 399 966)"/><circle cx="50" cy="50" r="30" style="fill:#fff" transform="matrix(.21 0 0 .21 441 966)"/><circle cx="50" cy="50" r="30" style="fill:#fff" transform="matrix(.21 0 0 .21 462 966)"/><circle cx="50" cy="50" r="30" style="fill:#fff" transform="matrix(.21 0 0 .21 483 966)"/><circle cx="50" cy="50" r="30" style="fill:#fff" transform="matrix(.21 0 0 .21 525 966)"/><circle cx="50" cy="50" r="30" style="fill:#fff" transform="matrix(.21 0 0 .21 546 966)"/><circle cx="50" cy="50" r="30" style="fill:#fff" transform="matrix(.21 0 0 .21 588 966)"/><circle cx="50" cy="50" r="30" style="fill:#fff" transform="matrix(.21 0 0 .21 651 966)"/><circle cx="50" cy="50" r="30" style="fill:#fff" transform="matrix(.21 0 0 .21 672 966)"/><circle cx="50" cy="50" r="30" style="fill:#fff" transform="matrix(.21 0 0 .21 714 966)"/><circle cx="50" cy="50" r="30" style="fill:#fff" transform="matrix(.21 0 0 .21 735 966)"/><circle cx="50" cy="50" r="30" style="fill:#fff" transform="matrix(.21 0 0 .21 819 966)"/><circle cx="50" cy="50" r="30" style="fill:#fff" transform="matrix(.21 0 0 .21 840 966)"/><circle cx="50" cy="50" r="30" style="fill:#fff" transform="matrix(.21 0 0 .21 882 966)"/><circle cx="50" cy="50" r="30" style="fill:#fff" transform="matrix(.21 0 0 .21 903 966)"/><circle cx="50" cy="50" r="30" style="fill:#fff" transform="matrix(.21 0 0 .21 924 966)"/><circle cx="50" cy="50" r="30" style="fill:#fff" transform="matrix(.21 0 0 .21 945 966)"/><circle cx="50" cy="50" r="30" style="fill:#fff" transform="matrix(.21 0 0 .21 966 966)"/><circle cx="50" cy="50" r="30" style="fill:#fff" transform="matrix(.21 0 0 .21 189 987)"/><circle cx="50" cy="50" r="30" style="fill:#fff" transform="matrix(.21 0 0 .21 210 987)"/><circle cx="50" cy="50" r="30" style="fill:#fff" transform="matrix(.21 0 0 .21 231 987)"/><circle cx="50" cy="50" r="30" style="fill:#fff" transform="matrix(.21 0 0 .21 252 987)"/><circle cx="50" cy="50" r="30" style="fill:#fff" transform="matrix(.21 0 0 .21 273 987)"/><circle cx="50" cy="50" r="30" style="fill:#fff" transform="matrix(.21 0 0 .21 294 987)"/><circle cx="50" cy="50" r="30" style="fill:#fff" transform="matrix(.21 0 0 .21 357 987)"/><circle cx="50" cy="50" r="30" style="fill:#fff" transform="matrix(.21 0 0 .21 399 987)"/><circle cx="50" cy="50" r="30" style="fill:#fff" transform="matrix(.21 0 0 .21 420 987)"/><circle cx="50" cy="50" r="30" style="fill:#fff" transform="matrix(.21 0 0 .21 441 987)"/><circle cx="50" cy="50" r="30" style="fill:#fff" transform="matrix(.21 0 0 .21 462 987)"/><circle cx="50" cy="50" r="30" style="fill:#fff" transform="matrix(.21 0 0 .21 483 987)"/><circle cx="50" cy="50" r="30" style="fill:#fff" transform="matrix(.21 0 0 .21 609 987)"/><circle cx="50" cy="50" r="30" style="fill:#fff" transform="matrix(.21 0 0 .21 651 987)"/><circle cx="50" cy="50" r="30" style="fill:#fff" transform="matrix(.21 0 0 .21 672 987)"/><circle cx="50" cy="50" r="30" style="fill:#fff" transform="matrix(.21 0 0 .21 714 987)"/><circle cx="50" cy="50" r="30" style="fill:#fff" transform="matrix(.21 0 0 .21 777 987)"/><circle cx="50" cy="50" r="30" style="fill:#fff" transform="matrix(.21 0 0 .21 798 987)"/><circle cx="50" cy="50" r="30" style="fill:#fff" transform="matrix(.21 0 0 .21 882 987)"/><circle cx="50" cy="50" r="30" style="fill:#fff" transform="matrix(.21 0 0 .21 924 987)"/><circle cx="50" cy="50" r="30" style="fill:#fff" transform="matrix(.21 0 0 .21 945 987)"/><circle cx="50" cy="50" r="30" style="fill:#fff" transform="matrix(.21 0 0 .21 966 987)"/><circle cx="50" cy="50" r="30" style="fill:#fff" transform="matrix(.21 0 0 .21 210 1008)"/><circle cx="50" cy="50" r="30" style="fill:#fff" transform="matrix(.21 0 0 .21 252 1008)"/><circle cx="50" cy="50" r="30" style="fill:#fff" transform="matrix(.21 0 0 .21 315 1008)"/><circle cx="50" cy="50" r="30" style="fill:#fff" transform="matrix(.21 0 0 .21 357 1008)"/><circle cx="50" cy="50" r="30" style="fill:#fff" transform="matrix(.21 0 0 .21 378 1008)"/><circle cx="50" cy="50" r="30" style="fill:#fff" transform="matrix(.21 0 0 .21 420 1008)"/><circle cx="50" cy="50" r="30" style="fill:#fff" transform="matrix(.21 0 0 .21 441 1008)"/><circle cx="50" cy="50" r="30" style="fill:#fff" transform="matrix(.21 0 0 .21 462 1008)"/><circle cx="50" cy="50" r="30" style="fill:#fff" transform="matrix(.21 0 0 .21 525 1008)"/><circle cx="50" cy="50" r="30" style="fill:#fff" transform="matrix(.21 0 0 .21 546 1008)"/><circle cx="50" cy="50" r="30" style="fill:#fff" transform="matrix(.21 0 0 .21 588 1008)"/><circle cx="50" cy="50" r="30" style="fill:#fff" transform="matrix(.21 0 0 .21 609 1008)"/><circle cx="50" cy="50" r="30" style="fill:#fff" transform="matrix(.21 0 0 .21 630 1008)"/><circle cx="50" cy="50" r="30" style="fill:#fff" transform="matrix(.21 0 0 .21 651 1008)"/><circle cx="50" cy="50" r="30" style="fill:#fff" transform="matrix(.21 0 0 .21 735 1008)"/><circle cx="50" cy="50" r="30" style="fill:#fff" transform="matrix(.21 0 0 .21 756 1008)"/><circle cx="50" cy="50" r="30" style="fill:#fff" transform="matrix(.21 0 0 .21 777 1008)"/><circle cx="50" cy="50" r="30" style="fill:#fff" transform="matrix(.21 0 0 .21 798 1008)"/><circle cx="50" cy="50" r="30" style="fill:#fff" transform="matrix(.21 0 0 .21 840 1008)"/><circle cx="50" cy="50" r="30" style="fill:#fff" transform="matrix(.21 0 0 .21 945 1008)"/><circle cx="50" cy="50" r="30" style="fill:#fff" transform="matrix(.21 0 0 .21 966 1008)"/><circle cx="50" cy="50" r="30" style="fill:#fff" transform="matrix(.21 0 0 .21 987 1008)"/><circle cx="50" cy="50" r="30" style="fill:#fff" transform="matrix(.21 0 0 .21 1008 1008)"/><g style="fill:#fff"><path d="M65.859 15.008H34.141a19.3 19.3 0 0 0-10.979 3.398 19 19 0 0 0-5.848 6.421A18.3 18.3 0 0 0 15 33.758v32.471c0 10.344 8.586 18.76 19.145 18.76L50 84.992l15.855-.004C76.414 84.988 85 76.572 85 66.229V33.758c0-10.339-8.586-18.75-19.141-18.75" style="fill:none" transform="scale(1.47)"/><path d="M96.813.012H50.187C27.464.012 8.213 15.025 2.058 35.545a49 49 0 0 0-1.479 6.534C.2 44.539 0 47.059 0 49.624v47.733c0 27.37 22.52 49.627 50.187 49.627l23.313.004 23.313-.006c27.665 0 50.187-22.257 50.187-49.627v-47.73C147 22.267 124.48.011 96.813.011m28.137 97.345c0 15.205-12.621 27.577-28.143 27.577l-23.307.004-23.307-.006c-15.522 0-28.143-12.371-28.143-27.575V49.624c0-4.75 1.232-9.221 3.4-13.128a28 28 0 0 1 8.597-9.44 28.4 28.4 0 0 1 16.139-4.994h46.627c15.516 0 28.137 12.364 28.137 27.562z"/></g><g style="fill:#fff"><path d="M65.859 15.008H34.141a19.3 19.3 0 0 0-10.979 3.398 19 19 0 0 0-5.848 6.421A18.3 18.3 0 0 0 15 33.758v32.471c0 10.344 8.586 18.76 19.145 18.76L50 84.992l15.855-.004C76.414 84.988 85 76.572 85 66.229V33.758c0-10.339-8.586-18.75-19.141-18.75" style="fill:none" transform="translate(882)scale(1.47)"/><path d="M978.813.012h-46.626c-22.723 0-41.974 15.013-48.129 35.533a49 49 0 0 0-1.479 6.534c-.38 2.46-.579 4.98-.579 7.545v47.733c0 27.37 22.52 49.627 50.187 49.627l23.313.004 23.313-.006c27.665 0 50.187-22.257 50.187-49.627v-47.73c0-27.357-22.52-49.613-50.187-49.613m28.137 97.345c0 15.205-12.621 27.577-28.143 27.577l-23.307.004-23.307-.006c-15.522 0-28.143-12.371-28.143-27.575V49.624c0-4.75 1.232-9.221 3.4-13.128a28 28 0 0 1 8.597-9.44 28.4 28.4 0 0 1 16.139-4.994h46.627c15.516 0 28.137 12.364 28.137 27.562z"/></g><g style="fill:#fff"><path d="M65.859 15.008H34.141a19.3 19.3 0 0 0-10.979 3.398 19 19 0 0 0-5.848 6.421A18.3 18.3 0 0 0 15 33.758v32.471c0 10.344 8.586 18.76 19.145 18.76L50 84.992l15.855-.004C76.414 84.988 85 76.572 85 66.229V33.758c0-10.339-8.586-18.75-19.141-18.75" style="fill:none" transform="translate(0 882)scale(1.47)"/><path d="M96.813 882.012H50.187c-22.723 0-41.974 15.013-48.129 35.533a49 49 0 0 0-1.479 6.534c-.38 2.46-.579 4.98-.579 7.545v47.733c0 27.37 22.52 49.627 50.187 49.627l23.313.004 23.313-.006c27.665 0 50.187-22.257 50.187-49.627v-47.73c0-27.357-22.52-49.613-50.187-49.613m28.137 97.345c0 15.205-12.621 27.577-28.143 27.577l-23.307.004-23.307-.006c-15.522 0-28.143-12.371-28.143-27.575v-47.733c0-4.75 1.232-9.221 3.4-13.128a28 28 0 0 1 8.597-9.44 28.4 28.4 0 0 1 16.139-4.994h46.627c15.516 0 28.137 12.364 28.137 27.562z"/></g><g style="fill:#fff"><path d="M59.231 105c-9.507 0-17.24-7.58-17.24-16.889v-29.23c0-2.909.756-5.646 2.08-8.04a17.05 17.05 0 0 1 5.267-5.78A17.4 17.4 0 0 1 59.222 42h28.556c9.498 0 17.23 7.571 17.23 16.88v29.23c0 9.309-7.732 16.89-17.23 16.89H59.23z"/></g><g style="fill:#fff"><path d="M941.231 105c-9.507 0-17.24-7.58-17.24-16.889v-29.23c0-2.909.756-5.646 2.08-8.04a17.05 17.05 0 0 1 5.267-5.78A17.4 17.4 0 0 1 941.222 42h28.556c9.498 0 17.23 7.571 17.23 16.88v29.23c0 9.309-7.732 16.89-17.23 16.89H941.23z"/></g><g style="fill:#fff"><path d="M59.231 987c-9.507 0-17.24-7.58-17.24-16.889v-29.23c0-2.909.756-5.646 2.08-8.04a17.05 17.05 0 0 1 5.267-5.78A17.4 17.4 0 0 1 59.222 924h28.556c9.498 0 17.23 7.571 17.23 16.88v29.23c0 9.309-7.732 16.89-17.23 16.89H59.23z"/></g></mask></defs><path fill="url(#a)" d="M0 0h1029v1029H0z" mask="url(#b)" transform="translate(42 42)"/><svg xmlns="http://www.w3.org/2000/svg" width="16" height="16" fill="currentColor" class="bi bi-envelope-at" transform="translate(399 399)scale(19.6875)" viewBox="0 0 16 16"><path d="M2 2a2 2 0 0 0-2 2v8.01A2 2 0 0 0 2 14h5.5a.5.5 0 0 0 0-1H2a1 1 0 0 1-.966-.741l5.64-3.471L8 9.583l7-4.2V8.5a.5.5 0 0 0 1 0V4a2 2 0 0 0-2-2zm3.708 6.208L1 11.105V5.383zM1 4.217V4a1 1 0 0 1 1-1h12a1 1 0 0 1 1 1v.217l-7 4.2z"/><path d="M14.247 14.269c1.01 0 1.587-.857 1.587-2.025v-.21C15.834 10.43 14.64 9 12.52 9h-.035C10.42 9 9 10.36 9 12.432v.214C9 14.82 10.438 16 12.358 16h.044c.594 0 1.018-.074 1.237-.175v-.73c-.245.11-.673.18-1.18.18h-.044c-1.334 0-2.571-.788-2.571-2.655v-.157c0-1.657 1.058-2.724 2.64-2.724h.04c1.535 0 2.484 1.05 2.484 2.326v.118c0 .975-.324 1.39-.639 1.39-.232 0-.41-.148-.41-.42v-2.19h-.906v.569h-.03c-.084-.298-.368-.63-.954-.63-.778 0-1.259.555-1.259 1.4v.528c0 .892.49 1.434 1.26 1.434.471 0 .896-.227 1.014-.643h.043c.118.42.617.648 1.12.648m-2.453-1.588v-.227c0-.546.227-.791.573-.791.297 0 .572.192.572.708v.367c0 .573-.253.744-.564.744-.354 0-.581-.215-.581-.8Z"/></svg></svg>