<svg xmlns="http://www.w3.org/2000/svg" xml:space="preserve" width="1113" height="1113"><path fill="#FFF" d="M0 0h1113v1113H0z"/><circle cx="50" cy="50" r="30" style="fill:#000" transform="matrix(.21 0 0 .21 252 42)"/><circle cx="50" cy="50" r="30" style="fill:#000" transform="matrix(.21 0 0 .21 273 42)"/><circle cx="50" cy="50" r="30" style="fill:#000" transform="matrix(.21 0 0 .21 315 42)"/><circle cx="50" cy="50" r="30" style="fill:#000" transform="matrix(.21 0 0 .21 378 42)"/><circle cx="50" cy="50" r="30" style="fill:#000" transform="matrix(.21 0 0 .21 441 42)"/><circle cx="50" cy="50" r="30" style="fill:#000" transform="matrix(.21 0 0 .21 483 42)"/><circle cx="50" cy="50" r="30" style="fill:#000" transform="matrix(.21 0 0 .21 504 42)"/><circle cx="50" cy="50" r="30" style="fill:#000" transform="matrix(.21 0 0 .21 525 42)"/><circle cx="50" cy="50" r="30" style="fill:#000" transform="matrix(.21 0 0 .21 546 42)"/><circle cx="50" cy="50" r="30" style="fill:#000" transform="matrix(.21 0 0 .21 588 42)"/><circle cx="50" cy="50" r="30" style="fill:#000" transform="matrix(.21 0 0 .21 630 42)"/><circle cx="50" cy="50" r="30" style="fill:#000" transform="matrix(.21 0 0 .21 693 42)"/><circle cx="50" cy="50" r="30" style="fill:#000" transform="matrix(.21 0 0 .21 714 42)"/><circle cx="50" cy="50" r="30" style="fill:#000" transform="matrix(.21 0 0 .21 777 42)"/><circle cx="50" cy="50" r="30" style="fill:#000" transform="matrix(.21 0 0 .21 819 42)"/><circle cx="50" cy="50" r="30" style="fill:#000" transform="matrix(.21 0 0 .21 882 42)"/><circle cx="50" cy="50" r="30" style="fill:#000" transform="matrix(.21 0 0 .21 231 63)"/><circle cx="50" cy="50" r="30" style="fill:#000" transform="matrix(.21 0 0 .21 252 63)"/><circle cx="50" cy="50" r="30" style="fill:#000" transform="matrix(.21 0 0 .21 315 63)"/><circle cx="50" cy="50" r="30" style="fill:#000" transform="matrix(.21 0 0 .21 336 63)"/><circle cx="50" cy="50" r="30" style="fill:#000" transform="matrix(.21 0 0 .21 357 63)"/><circle cx="50" cy="50" r="30" style="fill:#000" transform="matrix(.21 0 0 .21 378 63)"/><circle cx="50" cy="50" r="30" style="fill:#000" transform="matrix(.21 0 0 .21 462 63)"/><circle cx="50" cy="50" r="30" style="fill:#000" transform="matrix(.21 0 0 .21 504 63)"/><circle cx="50" cy="50" r="30" style="fill:#000" transform="matrix(.21 0 0 .21 525 63)"/><circle cx="50" cy="50" r="30" style="fill:#000" transform="matrix(.21 0 0 .21 567 63)"/><circle cx="50" cy="50" r="30" style="fill:#000" transform="matrix(.21 0 0 .21 588 63)"/><circle cx="50" cy="50" r="30" style="fill:#000" transform="matrix(.21 0 0 .21 630 63)"/><circle cx="50" cy="50" r="30" style="fill:#000" transform="matrix(.21 0 0 .21 693 63)"/><circle cx="50" cy="50" r="30" style="fill:#000" transform="matrix(.21 0 0 .21 714 63)"/><circle cx="50" cy="50" r="30" style="fill:#000" transform="matrix(.21 0 0 .21 756 63)"/><circle cx="50" cy="50" r="30" style="fill:#000" transform="matrix(.21 0 0 .21 819 63)"/><circle cx="50" cy="50" r="30" style="fill:#000" transform="matrix(.21 0 0 .21 840 63)"/><circle cx="50" cy="50" r="30" style="fill:#000" transform="matrix(.21 0 0 .21 861 63)"/><circle cx="50" cy="50" r="30" style="fill:#000" transform="matrix(.21 0 0 .21 882 63)"/><circle cx="50" cy="50" r="30" style="fill:#000" transform="matrix(.21 0 0 .21 231 84)"/><circle cx="50" cy="50" r="30" style="fill:#000" transform="matrix(.21 0 0 .21 273 84)"/><circle cx="50" cy="50" r="30" style="fill:#000" transform="matrix(.21 0 0 .21 294 84)"/><circle cx="50" cy="50" r="30" style="fill:#000" transform="matrix(.21 0 0 .21 315 84)"/><circle cx="50" cy="50" r="30" style="fill:#000" transform="matrix(.21 0 0 .21 336 84)"/><circle cx="50" cy="50" r="30" style="fill:#000" transform="matrix(.21 0 0 .21 357 84)"/><circle cx="50" cy="50" r="30" style="fill:#000" transform="matrix(.21 0 0 .21 378 84)"/><circle cx="50" cy="50" r="30" style="fill:#000" transform="matrix(.21 0 0 .21 399 84)"/><circle cx="50" cy="50" r="30" style="fill:#000" transform="matrix(.21 0 0 .21 420 84)"/><circle cx="50" cy="50" r="30" style="fill:#000" transform="matrix(.21 0 0 .21 441 84)"/><circle cx="50" cy="50" r="30" style="fill:#000" transform="matrix(.21 0 0 .21 483 84)"/><circle cx="50" cy="50" r="30" style="fill:#000" transform="matrix(.21 0 0 .21 546 84)"/><circle cx="50" cy="50" r="30" style="fill:#000" transform="matrix(.21 0 0 .21 567 84)"/><circle cx="50" cy="50" r="30" style="fill:#000" transform="matrix(.21 0 0 .21 609 84)"/><circle cx="50" cy="50" r="30" style="fill:#000" transform="matrix(.21 0 0 .21 630 84)"/><circle cx="50" cy="50" r="30" style="fill:#000" transform="matrix(.21 0 0 .21 651 84)"/><circle cx="50" cy="50" r="30" style="fill:#000" transform="matrix(.21 0 0 .21 735 84)"/><circle cx="50" cy="50" r="30" style="fill:#000" transform="matrix(.21 0 0 .21 756 84)"/><circle cx="50" cy="50" r="30" style="fill:#000" transform="matrix(.21 0 0 .21 798 84)"/><circle cx="50" cy="50" r="30" style="fill:#000" transform="matrix(.21 0 0 .21 819 84)"/><circle cx="50" cy="50" r="30" style="fill:#000" transform="matrix(.21 0 0 .21 861 84)"/><circle cx="50" cy="50" r="30" style="fill:#000" transform="matrix(.21 0 0 .21 882 84)"/><circle cx="50" cy="50" r="30" style="fill:#000" transform="matrix(.21 0 0 .21 231 105)"/><circle cx="50" cy="50" r="30" style="fill:#000" transform="matrix(.21 0 0 .21 315 105)"/><circle cx="50" cy="50" r="30" style="fill:#000" transform="matrix(.21 0 0 .21 336 105)"/><circle cx="50" cy="50" r="30" style="fill:#000" transform="matrix(.21 0 0 .21 399 105)"/><circle cx="50" cy="50" r="30" style="fill:#000" transform="matrix(.21 0 0 .21 420 105)"/><circle cx="50" cy="50" r="30" style="fill:#000" transform="matrix(.21 0 0 .21 441 105)"/><circle cx="50" cy="50" r="30" style="fill:#000" transform="matrix(.21 0 0 .21 462 105)"/><circle cx="50" cy="50" r="30" style="fill:#000" transform="matrix(.21 0 0 .21 504 105)"/><circle cx="50" cy="50" r="30" style="fill:#000" transform="matrix(.21 0 0 .21 567 105)"/><circle cx="50" cy="50" r="30" style="fill:#000" transform="matrix(.21 0 0 .21 609 105)"/><circle cx="50" cy="50" r="30" style="fill:#000" transform="matrix(.21 0 0 .21 630 105)"/><circle cx="50" cy="50" r="30" style="fill:#000" transform="matrix(.21 0 0 .21 693 105)"/><circle cx="50" cy="50" r="30" style="fill:#000" transform="matrix(.21 0 0 .21 714 105)"/><circle cx="50" cy="50" r="30" style="fill:#000" transform="matrix(.21 0 0 .21 777 105)"/><circle cx="50" cy="50" r="30" style="fill:#000" transform="matrix(.21 0 0 .21 798 105)"/><circle cx="50" cy="50" r="30" style="fill:#000" transform="matrix(.21 0 0 .21 819 105)"/><circle cx="50" cy="50" r="30" style="fill:#000" transform="matrix(.21 0 0 .21 861 105)"/><circle cx="50" cy="50" r="30" style="fill:#000" transform="matrix(.21 0 0 .21 210 126)"/><circle cx="50" cy="50" r="30" style="fill:#000" transform="matrix(.21 0 0 .21 231 126)"/><circle cx="50" cy="50" r="30" style="fill:#000" transform="matrix(.21 0 0 .21 252 126)"/><circle cx="50" cy="50" r="30" style="fill:#000" transform="matrix(.21 0 0 .21 273 126)"/><circle cx="50" cy="50" r="30" style="fill:#000" transform="matrix(.21 0 0 .21 399 126)"/><circle cx="50" cy="50" r="30" style="fill:#000" transform="matrix(.21 0 0 .21 441 126)"/><circle cx="50" cy="50" r="30" style="fill:#000" transform="matrix(.21 0 0 .21 483 126)"/><circle cx="50" cy="50" r="30" style="fill:#000" transform="matrix(.21 0 0 .21 504 126)"/><circle cx="50" cy="50" r="30" style="fill:#000" transform="matrix(.21 0 0 .21 525 126)"/><circle cx="50" cy="50" r="30" style="fill:#000" transform="matrix(.21 0 0 .21 546 126)"/><circle cx="50" cy="50" r="30" style="fill:#000" transform="matrix(.21 0 0 .21 567 126)"/><circle cx="50" cy="50" r="30" style="fill:#000" transform="matrix(.21 0 0 .21 588 126)"/><circle cx="50" cy="50" r="30" style="fill:#000" transform="matrix(.21 0 0 .21 609 126)"/><circle cx="50" cy="50" r="30" style="fill:#000" transform="matrix(.21 0 0 .21 651 126)"/><circle cx="50" cy="50" r="30" style="fill:#000" transform="matrix(.21 0 0 .21 672 126)"/><circle cx="50" cy="50" r="30" style="fill:#000" transform="matrix(.21 0 0 .21 693 126)"/><circle cx="50" cy="50" r="30" style="fill:#000" transform="matrix(.21 0 0 .21 714 126)"/><circle cx="50" cy="50" r="30" style="fill:#000" transform="matrix(.21 0 0 .21 735 126)"/><circle cx="50" cy="50" r="30" style="fill:#000" transform="matrix(.21 0 0 .21 777 126)"/><circle cx="50" cy="50" r="30" style="fill:#000" transform="matrix(.21 0 0 .21 819 126)"/><circle cx="50" cy="50" r="30" style="fill:#000" transform="matrix(.21 0 0 .21 231 147)"/><circle cx="50" cy="50" r="30" style="fill:#000" transform="matrix(.21 0 0 .21 294 147)"/><circle cx="50" cy="50" r="30" style="fill:#000" transform="matrix(.21 0 0 .21 315 147)"/><circle cx="50" cy="50" r="30" style="fill:#000" transform="matrix(.21 0 0 .21 357 147)"/><circle cx="50" cy="50" r="30" style="fill:#000" transform="matrix(.21 0 0 .21 420 147)"/><circle cx="50" cy="50" r="30" style="fill:#000" transform="matrix(.21 0 0 .21 483 147)"/><circle cx="50" cy="50" r="30" style="fill:#000" transform="matrix(.21 0 0 .21 504 147)"/><circle cx="50" cy="50" r="30" style="fill:#000" transform="matrix(.21 0 0 .21 588 147)"/><circle cx="50" cy="50" r="30" style="fill:#000" transform="matrix(.21 0 0 .21 609 147)"/><circle cx="50" cy="50" r="30" style="fill:#000" transform="matrix(.21 0 0 .21 651 147)"/><circle cx="50" cy="50" r="30" style="fill:#000" transform="matrix(.21 0 0 .21 714 147)"/><circle cx="50" cy="50" r="30" style="fill:#000" transform="matrix(.21 0 0 .21 777 147)"/><circle cx="50" cy="50" r="30" style="fill:#000" transform="matrix(.21 0 0 .21 798 147)"/><circle cx="50" cy="50" r="30" style="fill:#000" transform="matrix(.21 0 0 .21 840 147)"/><circle cx="50" cy="50" r="30" style="fill:#000" transform="matrix(.21 0 0 .21 210 168)"/><circle cx="50" cy="50" r="30" style="fill:#000" transform="matrix(.21 0 0 .21 252 168)"/><circle cx="50" cy="50" r="30" style="fill:#000" transform="matrix(.21 0 0 .21 294 168)"/><circle cx="50" cy="50" r="30" style="fill:#000" transform="matrix(.21 0 0 .21 336 168)"/><circle cx="50" cy="50" r="30" style="fill:#000" transform="matrix(.21 0 0 .21 378 168)"/><circle cx="50" cy="50" r="30" style="fill:#000" transform="matrix(.21 0 0 .21 420 168)"/><circle cx="50" cy="50" r="30" style="fill:#000" transform="matrix(.21 0 0 .21 462 168)"/><circle cx="50" cy="50" r="30" style="fill:#000" transform="matrix(.21 0 0 .21 504 168)"/><circle cx="50" cy="50" r="30" style="fill:#000" transform="matrix(.21 0 0 .21 546 168)"/><circle cx="50" cy="50" r="30" style="fill:#000" transform="matrix(.21 0 0 .21 588 168)"/><circle cx="50" cy="50" r="30" style="fill:#000" transform="matrix(.21 0 0 .21 630 168)"/><circle cx="50" cy="50" r="30" style="fill:#000" transform="matrix(.21 0 0 .21 672 168)"/><circle cx="50" cy="50" r="30" style="fill:#000" transform="matrix(.21 0 0 .21 714 168)"/><circle cx="50" cy="50" r="30" style="fill:#000" transform="matrix(.21 0 0 .21 756 168)"/><circle cx="50" cy="50" r="30" style="fill:#000" transform="matrix(.21 0 0 .21 798 168)"/><circle cx="50" cy="50" r="30" style="fill:#000" transform="matrix(.21 0 0 .21 840 168)"/><circle cx="50" cy="50" r="30" style="fill:#000" transform="matrix(.21 0 0 .21 882 168)"/><circle cx="50" cy="50" r="30" style="fill:#000" transform="matrix(.21 0 0 .21 210 189)"/><circle cx="50" cy="50" r="30" style="fill:#000" transform="matrix(.21 0 0 .21 231 189)"/><circle cx="50" cy="50" r="30" style="fill:#000" transform="matrix(.21 0 0 .21 336 189)"/><circle cx="50" cy="50" r="30" style="fill:#000" transform="matrix(.21 0 0 .21 357 189)"/><circle cx="50" cy="50" r="30" style="fill:#000" transform="matrix(.21 0 0 .21 378 189)"/><circle cx="50" cy="50" r="30" style="fill:#000" transform="matrix(.21 0 0 .21 399 189)"/><circle cx="50" cy="50" r="30" style="fill:#000" transform="matrix(.21 0 0 .21 420 189)"/><circle cx="50" cy="50" r="30" style="fill:#000" transform="matrix(.21 0 0 .21 441 189)"/><circle cx="50" cy="50" r="30" style="fill:#000" transform="matrix(.21 0 0 .21 504 189)"/><circle cx="50" cy="50" r="30" style="fill:#000" transform="matrix(.21 0 0 .21 588 189)"/><circle cx="50" cy="50" r="30" style="fill:#000" transform="matrix(.21 0 0 .21 609 189)"/><circle cx="50" cy="50" r="30" style="fill:#000" transform="matrix(.21 0 0 .21 630 189)"/><circle cx="50" cy="50" r="30" style="fill:#000" transform="matrix(.21 0 0 .21 714 189)"/><circle cx="50" cy="50" r="30" style="fill:#000" transform="matrix(.21 0 0 .21 735 189)"/><circle cx="50" cy="50" r="30" style="fill:#000" transform="matrix(.21 0 0 .21 756 189)"/><circle cx="50" cy="50" r="30" style="fill:#000" transform="matrix(.21 0 0 .21 84 210)"/><circle cx="50" cy="50" r="30" style="fill:#000" transform="matrix(.21 0 0 .21 105 210)"/><circle cx="50" cy="50" r="30" style="fill:#000" transform="matrix(.21 0 0 .21 168 210)"/><circle cx="50" cy="50" r="30" style="fill:#000" transform="matrix(.21 0 0 .21 189 210)"/><circle cx="50" cy="50" r="30" style="fill:#000" transform="matrix(.21 0 0 .21 210 210)"/><circle cx="50" cy="50" r="30" style="fill:#000" transform="matrix(.21 0 0 .21 273 210)"/><circle cx="50" cy="50" r="30" style="fill:#000" transform="matrix(.21 0 0 .21 294 210)"/><circle cx="50" cy="50" r="30" style="fill:#000" transform="matrix(.21 0 0 .21 336 210)"/><circle cx="50" cy="50" r="30" style="fill:#000" transform="matrix(.21 0 0 .21 399 210)"/><circle cx="50" cy="50" r="30" style="fill:#000" transform="matrix(.21 0 0 .21 420 210)"/><circle cx="50" cy="50" r="30" style="fill:#000" transform="matrix(.21 0 0 .21 441 210)"/><circle cx="50" cy="50" r="30" style="fill:#000" transform="matrix(.21 0 0 .21 504 210)"/><circle cx="50" cy="50" r="30" style="fill:#000" transform="matrix(.21 0 0 .21 525 210)"/><circle cx="50" cy="50" r="30" style="fill:#000" transform="matrix(.21 0 0 .21 546 210)"/><circle cx="50" cy="50" r="30" style="fill:#000" transform="matrix(.21 0 0 .21 567 210)"/><circle cx="50" cy="50" r="30" style="fill:#000" transform="matrix(.21 0 0 .21 588 210)"/><circle cx="50" cy="50" r="30" style="fill:#000" transform="matrix(.21 0 0 .21 630 210)"/><circle cx="50" cy="50" r="30" style="fill:#000" transform="matrix(.21 0 0 .21 672 210)"/><circle cx="50" cy="50" r="30" style="fill:#000" transform="matrix(.21 0 0 .21 693 210)"/><circle cx="50" cy="50" r="30" style="fill:#000" transform="matrix(.21 0 0 .21 756 210)"/><circle cx="50" cy="50" r="30" style="fill:#000" transform="matrix(.21 0 0 .21 903 210)"/><circle cx="50" cy="50" r="30" style="fill:#000" transform="matrix(.21 0 0 .21 924 210)"/><circle cx="50" cy="50" r="30" style="fill:#000" transform="matrix(.21 0 0 .21 966 210)"/><circle cx="50" cy="50" r="30" style="fill:#000" transform="matrix(.21 0 0 .21 42 231)"/><circle cx="50" cy="50" r="30" style="fill:#000" transform="matrix(.21 0 0 .21 126 231)"/><circle cx="50" cy="50" r="30" style="fill:#000" transform="matrix(.21 0 0 .21 147 231)"/><circle cx="50" cy="50" r="30" style="fill:#000" transform="matrix(.21 0 0 .21 252 231)"/><circle cx="50" cy="50" r="30" style="fill:#000" transform="matrix(.21 0 0 .21 273 231)"/><circle cx="50" cy="50" r="30" style="fill:#000" transform="matrix(.21 0 0 .21 294 231)"/><circle cx="50" cy="50" r="30" style="fill:#000" transform="matrix(.21 0 0 .21 357 231)"/><circle cx="50" cy="50" r="30" style="fill:#000" transform="matrix(.21 0 0 .21 378 231)"/><circle cx="50" cy="50" r="30" style="fill:#000" transform="matrix(.21 0 0 .21 399 231)"/><circle cx="50" cy="50" r="30" style="fill:#000" transform="matrix(.21 0 0 .21 420 231)"/><circle cx="50" cy="50" r="30" style="fill:#000" transform="matrix(.21 0 0 .21 441 231)"/><circle cx="50" cy="50" r="30" style="fill:#000" transform="matrix(.21 0 0 .21 504 231)"/><circle cx="50" cy="50" r="30" style="fill:#000" transform="matrix(.21 0 0 .21 525 231)"/><circle cx="50" cy="50" r="30" style="fill:#000" transform="matrix(.21 0 0 .21 567 231)"/><circle cx="50" cy="50" r="30" style="fill:#000" transform="matrix(.21 0 0 .21 588 231)"/><circle cx="50" cy="50" r="30" style="fill:#000" transform="matrix(.21 0 0 .21 630 231)"/><circle cx="50" cy="50" r="30" style="fill:#000" transform="matrix(.21 0 0 .21 651 231)"/><circle cx="50" cy="50" r="30" style="fill:#000" transform="matrix(.21 0 0 .21 714 231)"/><circle cx="50" cy="50" r="30" style="fill:#000" transform="matrix(.21 0 0 .21 735 231)"/><circle cx="50" cy="50" r="30" style="fill:#000" transform="matrix(.21 0 0 .21 756 231)"/><circle cx="50" cy="50" r="30" style="fill:#000" transform="matrix(.21 0 0 .21 777 231)"/><circle cx="50" cy="50" r="30" style="fill:#000" transform="matrix(.21 0 0 .21 798 231)"/><circle cx="50" cy="50" r="30" style="fill:#000" transform="matrix(.21 0 0 .21 819 231)"/><circle cx="50" cy="50" r="30" style="fill:#000" transform="matrix(.21 0 0 .21 840 231)"/><circle cx="50" cy="50" r="30" style="fill:#000" transform="matrix(.21 0 0 .21 903 231)"/><circle cx="50" cy="50" r="30" style="fill:#000" transform="matrix(.21 0 0 .21 1008 231)"/><circle cx="50" cy="50" r="30" style="fill:#000" transform="matrix(.21 0 0 .21 42 252)"/><circle cx="50" cy="50" r="30" style="fill:#000" transform="matrix(.21 0 0 .21 63 252)"/><circle cx="50" cy="50" r="30" style="fill:#000" transform="matrix(.21 0 0 .21 84 252)"/><circle cx="50" cy="50" r="30" style="fill:#000" transform="matrix(.21 0 0 .21 105 252)"/><circle cx="50" cy="50" r="30" style="fill:#000" transform="matrix(.21 0 0 .21 126 252)"/><circle cx="50" cy="50" r="30" style="fill:#000" transform="matrix(.21 0 0 .21 147 252)"/><circle cx="50" cy="50" r="30" style="fill:#000" transform="matrix(.21 0 0 .21 168 252)"/><circle cx="50" cy="50" r="30" style="fill:#000" transform="matrix(.21 0 0 .21 210 252)"/><circle cx="50" cy="50" r="30" style="fill:#000" transform="matrix(.21 0 0 .21 252 252)"/><circle cx="50" cy="50" r="30" style="fill:#000" transform="matrix(.21 0 0 .21 315 252)"/><circle cx="50" cy="50" r="30" style="fill:#000" transform="matrix(.21 0 0 .21 336 252)"/><circle cx="50" cy="50" r="30" style="fill:#000" transform="matrix(.21 0 0 .21 357 252)"/><circle cx="50" cy="50" r="30" style="fill:#000" transform="matrix(.21 0 0 .21 378 252)"/><circle cx="50" cy="50" r="30" style="fill:#000" transform="matrix(.21 0 0 .21 420 252)"/><circle cx="50" cy="50" r="30" style="fill:#000" transform="matrix(.21 0 0 .21 441 252)"/><circle cx="50" cy="50" r="30" style="fill:#000" transform="matrix(.21 0 0 .21 462 252)"/><circle cx="50" cy="50" r="30" style="fill:#000" transform="matrix(.21 0 0 .21 504 252)"/><circle cx="50" cy="50" r="30" style="fill:#000" transform="matrix(.21 0 0 .21 525 252)"/><circle cx="50" cy="50" r="30" style="fill:#000" transform="matrix(.21 0 0 .21 546 252)"/><circle cx="50" cy="50" r="30" style="fill:#000" transform="matrix(.21 0 0 .21 567 252)"/><circle cx="50" cy="50" r="30" style="fill:#000" transform="matrix(.21 0 0 .21 609 252)"/><circle cx="50" cy="50" r="30" style="fill:#000" transform="matrix(.21 0 0 .21 630 252)"/><circle cx="50" cy="50" r="30" style="fill:#000" transform="matrix(.21 0 0 .21 672 252)"/><circle cx="50" cy="50" r="30" style="fill:#000" transform="matrix(.21 0 0 .21 693 252)"/><circle cx="50" cy="50" r="30" style="fill:#000" transform="matrix(.21 0 0 .21 735 252)"/><circle cx="50" cy="50" r="30" style="fill:#000" transform="matrix(.21 0 0 .21 777 252)"/><circle cx="50" cy="50" r="30" style="fill:#000" transform="matrix(.21 0 0 .21 861 252)"/><circle cx="50" cy="50" r="30" style="fill:#000" transform="matrix(.21 0 0 .21 882 252)"/><circle cx="50" cy="50" r="30" style="fill:#000" transform="matrix(.21 0 0 .21 903 252)"/><circle cx="50" cy="50" r="30" style="fill:#000" transform="matrix(.21 0 0 .21 924 252)"/><circle cx="50" cy="50" r="30" style="fill:#000" transform="matrix(.21 0 0 .21 966 252)"/><circle cx="50" cy="50" r="30" style="fill:#000" transform="matrix(.21 0 0 .21 987 252)"/><circle cx="50" cy="50" r="30" style="fill:#000" transform="matrix(.21 0 0 .21 1050 252)"/><circle cx="50" cy="50" r="30" style="fill:#000" transform="matrix(.21 0 0 .21 42 273)"/><circle cx="50" cy="50" r="30" style="fill:#000" transform="matrix(.21 0 0 .21 105 273)"/><circle cx="50" cy="50" r="30" style="fill:#000" transform="matrix(.21 0 0 .21 126 273)"/><circle cx="50" cy="50" r="30" style="fill:#000" transform="matrix(.21 0 0 .21 189 273)"/><circle cx="50" cy="50" r="30" style="fill:#000" transform="matrix(.21 0 0 .21 210 273)"/><circle cx="50" cy="50" r="30" style="fill:#000" transform="matrix(.21 0 0 .21 231 273)"/><circle cx="50" cy="50" r="30" style="fill:#000" transform="matrix(.21 0 0 .21 273 273)"/><circle cx="50" cy="50" r="30" style="fill:#000" transform="matrix(.21 0 0 .21 399 273)"/><circle cx="50" cy="50" r="30" style="fill:#000" transform="matrix(.21 0 0 .21 441 273)"/><circle cx="50" cy="50" r="30" style="fill:#000" transform="matrix(.21 0 0 .21 567 273)"/><circle cx="50" cy="50" r="30" style="fill:#000" transform="matrix(.21 0 0 .21 588 273)"/><circle cx="50" cy="50" r="30" style="fill:#000" transform="matrix(.21 0 0 .21 609 273)"/><circle cx="50" cy="50" r="30" style="fill:#000" transform="matrix(.21 0 0 .21 735 273)"/><circle cx="50" cy="50" r="30" style="fill:#000" transform="matrix(.21 0 0 .21 777 273)"/><circle cx="50" cy="50" r="30" style="fill:#000" transform="matrix(.21 0 0 .21 819 273)"/><circle cx="50" cy="50" r="30" style="fill:#000" transform="matrix(.21 0 0 .21 840 273)"/><circle cx="50" cy="50" r="30" style="fill:#000" transform="matrix(.21 0 0 .21 861 273)"/><circle cx="50" cy="50" r="30" style="fill:#000" transform="matrix(.21 0 0 .21 924 273)"/><circle cx="50" cy="50" r="30" style="fill:#000" transform="matrix(.21 0 0 .21 945 273)"/><circle cx="50" cy="50" r="30" style="fill:#000" transform="matrix(.21 0 0 .21 966 273)"/><circle cx="50" cy="50" r="30" style="fill:#000" transform="matrix(.21 0 0 .21 1029 273)"/><circle cx="50" cy="50" r="30" style="fill:#000" transform="matrix(.21 0 0 .21 1050 273)"/><circle cx="50" cy="50" r="30" style="fill:#000" transform="matrix(.21 0 0 .21 42 294)"/><circle cx="50" cy="50" r="30" style="fill:#000" transform="matrix(.21 0 0 .21 168 294)"/><circle cx="50" cy="50" r="30" style="fill:#000" transform="matrix(.21 0 0 .21 231 294)"/><circle cx="50" cy="50" r="30" style="fill:#000" transform="matrix(.21 0 0 .21 315 294)"/><circle cx="50" cy="50" r="30" style="fill:#000" transform="matrix(.21 0 0 .21 336 294)"/><circle cx="50" cy="50" r="30" style="fill:#000" transform="matrix(.21 0 0 .21 378 294)"/><circle cx="50" cy="50" r="30" style="fill:#000" transform="matrix(.21 0 0 .21 420 294)"/><circle cx="50" cy="50" r="30" style="fill:#000" transform="matrix(.21 0 0 .21 462 294)"/><circle cx="50" cy="50" r="30" style="fill:#000" transform="matrix(.21 0 0 .21 525 294)"/><circle cx="50" cy="50" r="30" style="fill:#000" transform="matrix(.21 0 0 .21 546 294)"/><circle cx="50" cy="50" r="30" style="fill:#000" transform="matrix(.21 0 0 .21 588 294)"/><circle cx="50" cy="50" r="30" style="fill:#000" transform="matrix(.21 0 0 .21 672 294)"/><circle cx="50" cy="50" r="30" style="fill:#000" transform="matrix(.21 0 0 .21 693 294)"/><circle cx="50" cy="50" r="30" style="fill:#000" transform="matrix(.21 0 0 .21 777 294)"/><circle cx="50" cy="50" r="30" style="fill:#000" transform="matrix(.21 0 0 .21 798 294)"/><circle cx="50" cy="50" r="30" style="fill:#000" transform="matrix(.21 0 0 .21 882 294)"/><circle cx="50" cy="50" r="30" style="fill:#000" transform="matrix(.21 0 0 .21 903 294)"/><circle cx="50" cy="50" r="30" style="fill:#000" transform="matrix(.21 0 0 .21 945 294)"/><circle cx="50" cy="50" r="30" style="fill:#000" transform="matrix(.21 0 0 .21 1008 294)"/><circle cx="50" cy="50" r="30" style="fill:#000" transform="matrix(.21 0 0 .21 42 315)"/><circle cx="50" cy="50" r="30" style="fill:#000" transform="matrix(.21 0 0 .21 63 315)"/><circle cx="50" cy="50" r="30" style="fill:#000" transform="matrix(.21 0 0 .21 84 315)"/><circle cx="50" cy="50" r="30" style="fill:#000" transform="matrix(.21 0 0 .21 210 315)"/><circle cx="50" cy="50" r="30" style="fill:#000" transform="matrix(.21 0 0 .21 252 315)"/><circle cx="50" cy="50" r="30" style="fill:#000" transform="matrix(.21 0 0 .21 336 315)"/><circle cx="50" cy="50" r="30" style="fill:#000" transform="matrix(.21 0 0 .21 378 315)"/><circle cx="50" cy="50" r="30" style="fill:#000" transform="matrix(.21 0 0 .21 420 315)"/><circle cx="50" cy="50" r="30" style="fill:#000" transform="matrix(.21 0 0 .21 441 315)"/><circle cx="50" cy="50" r="30" style="fill:#000" transform="matrix(.21 0 0 .21 504 315)"/><circle cx="50" cy="50" r="30" style="fill:#000" transform="matrix(.21 0 0 .21 525 315)"/><circle cx="50" cy="50" r="30" style="fill:#000" transform="matrix(.21 0 0 .21 588 315)"/><circle cx="50" cy="50" r="30" style="fill:#000" transform="matrix(.21 0 0 .21 777 315)"/><circle cx="50" cy="50" r="30" style="fill:#000" transform="matrix(.21 0 0 .21 819 315)"/><circle cx="50" cy="50" r="30" style="fill:#000" transform="matrix(.21 0 0 .21 924 315)"/><circle cx="50" cy="50" r="30" style="fill:#000" transform="matrix(.21 0 0 .21 945 315)"/><circle cx="50" cy="50" r="30" style="fill:#000" transform="matrix(.21 0 0 .21 987 315)"/><circle cx="50" cy="50" r="30" style="fill:#000" transform="matrix(.21 0 0 .21 1008 315)"/><circle cx="50" cy="50" r="30" style="fill:#000" transform="matrix(.21 0 0 .21 1029 315)"/><circle cx="50" cy="50" r="30" style="fill:#000" transform="matrix(.21 0 0 .21 1050 315)"/><circle cx="50" cy="50" r="30" style="fill:#000" transform="matrix(.21 0 0 .21 42 336)"/><circle cx="50" cy="50" r="30" style="fill:#000" transform="matrix(.21 0 0 .21 63 336)"/><circle cx="50" cy="50" r="30" style="fill:#000" transform="matrix(.21 0 0 .21 84 336)"/><circle cx="50" cy="50" r="30" style="fill:#000" transform="matrix(.21 0 0 .21 126 336)"/><circle cx="50" cy="50" r="30" style="fill:#000" transform="matrix(.21 0 0 .21 168 336)"/><circle cx="50" cy="50" r="30" style="fill:#000" transform="matrix(.21 0 0 .21 210 336)"/><circle cx="50" cy="50" r="30" style="fill:#000" transform="matrix(.21 0 0 .21 294 336)"/><circle cx="50" cy="50" r="30" style="fill:#000" transform="matrix(.21 0 0 .21 378 336)"/><circle cx="50" cy="50" r="30" style="fill:#000" transform="matrix(.21 0 0 .21 420 336)"/><circle cx="50" cy="50" r="30" style="fill:#000" transform="matrix(.21 0 0 .21 462 336)"/><circle cx="50" cy="50" r="30" style="fill:#000" transform="matrix(.21 0 0 .21 483 336)"/><circle cx="50" cy="50" r="30" style="fill:#000" transform="matrix(.21 0 0 .21 525 336)"/><circle cx="50" cy="50" r="30" style="fill:#000" transform="matrix(.21 0 0 .21 546 336)"/><circle cx="50" cy="50" r="30" style="fill:#000" transform="matrix(.21 0 0 .21 567 336)"/><circle cx="50" cy="50" r="30" style="fill:#000" transform="matrix(.21 0 0 .21 588 336)"/><circle cx="50" cy="50" r="30" style="fill:#000" transform="matrix(.21 0 0 .21 630 336)"/><circle cx="50" cy="50" r="30" style="fill:#000" transform="matrix(.21 0 0 .21 651 336)"/><circle cx="50" cy="50" r="30" style="fill:#000" transform="matrix(.21 0 0 .21 672 336)"/><circle cx="50" cy="50" r="30" style="fill:#000" transform="matrix(.21 0 0 .21 714 336)"/><circle cx="50" cy="50" r="30" style="fill:#000" transform="matrix(.21 0 0 .21 756 336)"/><circle cx="50" cy="50" r="30" style="fill:#000" transform="matrix(.21 0 0 .21 798 336)"/><circle cx="50" cy="50" r="30" style="fill:#000" transform="matrix(.21 0 0 .21 819 336)"/><circle cx="50" cy="50" r="30" style="fill:#000" transform="matrix(.21 0 0 .21 840 336)"/><circle cx="50" cy="50" r="30" style="fill:#000" transform="matrix(.21 0 0 .21 861 336)"/><circle cx="50" cy="50" r="30" style="fill:#000" transform="matrix(.21 0 0 .21 924 336)"/><circle cx="50" cy="50" r="30" style="fill:#000" transform="matrix(.21 0 0 .21 966 336)"/><circle cx="50" cy="50" r="30" style="fill:#000" transform="matrix(.21 0 0 .21 42 357)"/><circle cx="50" cy="50" r="30" style="fill:#000" transform="matrix(.21 0 0 .21 126 357)"/><circle cx="50" cy="50" r="30" style="fill:#000" transform="matrix(.21 0 0 .21 147 357)"/><circle cx="50" cy="50" r="30" style="fill:#000" transform="matrix(.21 0 0 .21 189 357)"/><circle cx="50" cy="50" r="30" style="fill:#000" transform="matrix(.21 0 0 .21 210 357)"/><circle cx="50" cy="50" r="30" style="fill:#000" transform="matrix(.21 0 0 .21 273 357)"/><circle cx="50" cy="50" r="30" style="fill:#000" transform="matrix(.21 0 0 .21 336 357)"/><circle cx="50" cy="50" r="30" style="fill:#000" transform="matrix(.21 0 0 .21 357 357)"/><circle cx="50" cy="50" r="30" style="fill:#000" transform="matrix(.21 0 0 .21 378 357)"/><circle cx="50" cy="50" r="30" style="fill:#000" transform="matrix(.21 0 0 .21 441 357)"/><circle cx="50" cy="50" r="30" style="fill:#000" transform="matrix(.21 0 0 .21 462 357)"/><circle cx="50" cy="50" r="30" style="fill:#000" transform="matrix(.21 0 0 .21 483 357)"/><circle cx="50" cy="50" r="30" style="fill:#000" transform="matrix(.21 0 0 .21 504 357)"/><circle cx="50" cy="50" r="30" style="fill:#000" transform="matrix(.21 0 0 .21 525 357)"/><circle cx="50" cy="50" r="30" style="fill:#000" transform="matrix(.21 0 0 .21 546 357)"/><circle cx="50" cy="50" r="30" style="fill:#000" transform="matrix(.21 0 0 .21 588 357)"/><circle cx="50" cy="50" r="30" style="fill:#000" transform="matrix(.21 0 0 .21 609 357)"/><circle cx="50" cy="50" r="30" style="fill:#000" transform="matrix(.21 0 0 .21 630 357)"/><circle cx="50" cy="50" r="30" style="fill:#000" transform="matrix(.21 0 0 .21 651 357)"/><circle cx="50" cy="50" r="30" style="fill:#000" transform="matrix(.21 0 0 .21 714 357)"/><circle cx="50" cy="50" r="30" style="fill:#000" transform="matrix(.21 0 0 .21 756 357)"/><circle cx="50" cy="50" r="30" style="fill:#000" transform="matrix(.21 0 0 .21 819 357)"/><circle cx="50" cy="50" r="30" style="fill:#000" transform="matrix(.21 0 0 .21 840 357)"/><circle cx="50" cy="50" r="30" style="fill:#000" transform="matrix(.21 0 0 .21 882 357)"/><circle cx="50" cy="50" r="30" style="fill:#000" transform="matrix(.21 0 0 .21 924 357)"/><circle cx="50" cy="50" r="30" style="fill:#000" transform="matrix(.21 0 0 .21 945 357)"/><circle cx="50" cy="50" r="30" style="fill:#000" transform="matrix(.21 0 0 .21 966 357)"/><circle cx="50" cy="50" r="30" style="fill:#000" transform="matrix(.21 0 0 .21 1008 357)"/><circle cx="50" cy="50" r="30" style="fill:#000" transform="matrix(.21 0 0 .21 1050 357)"/><circle cx="50" cy="50" r="30" style="fill:#000" transform="matrix(.21 0 0 .21 84 378)"/><circle cx="50" cy="50" r="30" style="fill:#000" transform="matrix(.21 0 0 .21 126 378)"/><circle cx="50" cy="50" r="30" style="fill:#000" transform="matrix(.21 0 0 .21 147 378)"/><circle cx="50" cy="50" r="30" style="fill:#000" transform="matrix(.21 0 0 .21 168 378)"/><circle cx="50" cy="50" r="30" style="fill:#000" transform="matrix(.21 0 0 .21 189 378)"/><circle cx="50" cy="50" r="30" style="fill:#000" transform="matrix(.21 0 0 .21 210 378)"/><circle cx="50" cy="50" r="30" style="fill:#000" transform="matrix(.21 0 0 .21 231 378)"/><circle cx="50" cy="50" r="30" style="fill:#000" transform="matrix(.21 0 0 .21 294 378)"/><circle cx="50" cy="50" r="30" style="fill:#000" transform="matrix(.21 0 0 .21 315 378)"/><circle cx="50" cy="50" r="30" style="fill:#000" transform="matrix(.21 0 0 .21 336 378)"/><circle cx="50" cy="50" r="30" style="fill:#000" transform="matrix(.21 0 0 .21 357 378)"/><circle cx="50" cy="50" r="30" style="fill:#000" transform="matrix(.21 0 0 .21 399 378)"/><circle cx="50" cy="50" r="30" style="fill:#000" transform="matrix(.21 0 0 .21 441 378)"/><circle cx="50" cy="50" r="30" style="fill:#000" transform="matrix(.21 0 0 .21 462 378)"/><circle cx="50" cy="50" r="30" style="fill:#000" transform="matrix(.21 0 0 .21 483 378)"/><circle cx="50" cy="50" r="30" style="fill:#000" transform="matrix(.21 0 0 .21 609 378)"/><circle cx="50" cy="50" r="30" style="fill:#000" transform="matrix(.21 0 0 .21 630 378)"/><circle cx="50" cy="50" r="30" style="fill:#000" transform="matrix(.21 0 0 .21 693 378)"/><circle cx="50" cy="50" r="30" style="fill:#000" transform="matrix(.21 0 0 .21 714 378)"/><circle cx="50" cy="50" r="30" style="fill:#000" transform="matrix(.21 0 0 .21 756 378)"/><circle cx="50" cy="50" r="30" style="fill:#000" transform="matrix(.21 0 0 .21 798 378)"/><circle cx="50" cy="50" r="30" style="fill:#000" transform="matrix(.21 0 0 .21 861 378)"/><circle cx="50" cy="50" r="30" style="fill:#000" transform="matrix(.21 0 0 .21 945 378)"/><circle cx="50" cy="50" r="30" style="fill:#000" transform="matrix(.21 0 0 .21 966 378)"/><circle cx="50" cy="50" r="30" style="fill:#000" transform="matrix(.21 0 0 .21 1050 378)"/><circle cx="50" cy="50" r="30" style="fill:#000" transform="matrix(.21 0 0 .21 42 399)"/><circle cx="50" cy="50" r="30" style="fill:#000" transform="matrix(.21 0 0 .21 63 399)"/><circle cx="50" cy="50" r="30" style="fill:#000" transform="matrix(.21 0 0 .21 84 399)"/><circle cx="50" cy="50" r="30" style="fill:#000" transform="matrix(.21 0 0 .21 105 399)"/><circle cx="50" cy="50" r="30" style="fill:#000" transform="matrix(.21 0 0 .21 126 399)"/><circle cx="50" cy="50" r="30" style="fill:#000" transform="matrix(.21 0 0 .21 147 399)"/><circle cx="50" cy="50" r="30" style="fill:#000" transform="matrix(.21 0 0 .21 252 399)"/><circle cx="50" cy="50" r="30" style="fill:#000" transform="matrix(.21 0 0 .21 294 399)"/><circle cx="50" cy="50" r="30" style="fill:#000" transform="matrix(.21 0 0 .21 315 399)"/><circle cx="50" cy="50" r="30" style="fill:#000" transform="matrix(.21 0 0 .21 336 399)"/><circle cx="50" cy="50" r="30" style="fill:#000" transform="matrix(.21 0 0 .21 735 399)"/><circle cx="50" cy="50" r="30" style="fill:#000" transform="matrix(.21 0 0 .21 840 399)"/><circle cx="50" cy="50" r="30" style="fill:#000" transform="matrix(.21 0 0 .21 882 399)"/><circle cx="50" cy="50" r="30" style="fill:#000" transform="matrix(.21 0 0 .21 966 399)"/><circle cx="50" cy="50" r="30" style="fill:#000" transform="matrix(.21 0 0 .21 987 399)"/><circle cx="50" cy="50" r="30" style="fill:#000" transform="matrix(.21 0 0 .21 1050 399)"/><circle cx="50" cy="50" r="30" style="fill:#000" transform="matrix(.21 0 0 .21 84 420)"/><circle cx="50" cy="50" r="30" style="fill:#000" transform="matrix(.21 0 0 .21 147 420)"/><circle cx="50" cy="50" r="30" style="fill:#000" transform="matrix(.21 0 0 .21 168 420)"/><circle cx="50" cy="50" r="30" style="fill:#000" transform="matrix(.21 0 0 .21 231 420)"/><circle cx="50" cy="50" r="30" style="fill:#000" transform="matrix(.21 0 0 .21 273 420)"/><circle cx="50" cy="50" r="30" style="fill:#000" transform="matrix(.21 0 0 .21 336 420)"/><circle cx="50" cy="50" r="30" style="fill:#000" transform="matrix(.21 0 0 .21 357 420)"/><circle cx="50" cy="50" r="30" style="fill:#000" transform="matrix(.21 0 0 .21 735 420)"/><circle cx="50" cy="50" r="30" style="fill:#000" transform="matrix(.21 0 0 .21 777 420)"/><circle cx="50" cy="50" r="30" style="fill:#000" transform="matrix(.21 0 0 .21 798 420)"/><circle cx="50" cy="50" r="30" style="fill:#000" transform="matrix(.21 0 0 .21 903 420)"/><circle cx="50" cy="50" r="30" style="fill:#000" transform="matrix(.21 0 0 .21 924 420)"/><circle cx="50" cy="50" r="30" style="fill:#000" transform="matrix(.21 0 0 .21 945 420)"/><circle cx="50" cy="50" r="30" style="fill:#000" transform="matrix(.21 0 0 .21 966 420)"/><circle cx="50" cy="50" r="30" style="fill:#000" transform="matrix(.21 0 0 .21 1029 420)"/><circle cx="50" cy="50" r="30" style="fill:#000" transform="matrix(.21 0 0 .21 1050 420)"/><circle cx="50" cy="50" r="30" style="fill:#000" transform="matrix(.21 0 0 .21 42 441)"/><circle cx="50" cy="50" r="30" style="fill:#000" transform="matrix(.21 0 0 .21 105 441)"/><circle cx="50" cy="50" r="30" style="fill:#000" transform="matrix(.21 0 0 .21 147 441)"/><circle cx="50" cy="50" r="30" style="fill:#000" transform="matrix(.21 0 0 .21 189 441)"/><circle cx="50" cy="50" r="30" style="fill:#000" transform="matrix(.21 0 0 .21 315 441)"/><circle cx="50" cy="50" r="30" style="fill:#000" transform="matrix(.21 0 0 .21 357 441)"/><circle cx="50" cy="50" r="30" style="fill:#000" transform="matrix(.21 0 0 .21 735 441)"/><circle cx="50" cy="50" r="30" style="fill:#000" transform="matrix(.21 0 0 .21 777 441)"/><circle cx="50" cy="50" r="30" style="fill:#000" transform="matrix(.21 0 0 .21 798 441)"/><circle cx="50" cy="50" r="30" style="fill:#000" transform="matrix(.21 0 0 .21 924 441)"/><circle cx="50" cy="50" r="30" style="fill:#000" transform="matrix(.21 0 0 .21 987 441)"/><circle cx="50" cy="50" r="30" style="fill:#000" transform="matrix(.21 0 0 .21 1050 441)"/><circle cx="50" cy="50" r="30" style="fill:#000" transform="matrix(.21 0 0 .21 42 462)"/><circle cx="50" cy="50" r="30" style="fill:#000" transform="matrix(.21 0 0 .21 147 462)"/><circle cx="50" cy="50" r="30" style="fill:#000" transform="matrix(.21 0 0 .21 168 462)"/><circle cx="50" cy="50" r="30" style="fill:#000" transform="matrix(.21 0 0 .21 189 462)"/><circle cx="50" cy="50" r="30" style="fill:#000" transform="matrix(.21 0 0 .21 210 462)"/><circle cx="50" cy="50" r="30" style="fill:#000" transform="matrix(.21 0 0 .21 336 462)"/><circle cx="50" cy="50" r="30" style="fill:#000" transform="matrix(.21 0 0 .21 357 462)"/><circle cx="50" cy="50" r="30" style="fill:#000" transform="matrix(.21 0 0 .21 714 462)"/><circle cx="50" cy="50" r="30" style="fill:#000" transform="matrix(.21 0 0 .21 756 462)"/><circle cx="50" cy="50" r="30" style="fill:#000" transform="matrix(.21 0 0 .21 777 462)"/><circle cx="50" cy="50" r="30" style="fill:#000" transform="matrix(.21 0 0 .21 819 462)"/><circle cx="50" cy="50" r="30" style="fill:#000" transform="matrix(.21 0 0 .21 840 462)"/><circle cx="50" cy="50" r="30" style="fill:#000" transform="matrix(.21 0 0 .21 861 462)"/><circle cx="50" cy="50" r="30" style="fill:#000" transform="matrix(.21 0 0 .21 1029 462)"/><circle cx="50" cy="50" r="30" style="fill:#000" transform="matrix(.21 0 0 .21 63 483)"/><circle cx="50" cy="50" r="30" style="fill:#000" transform="matrix(.21 0 0 .21 189 483)"/><circle cx="50" cy="50" r="30" style="fill:#000" transform="matrix(.21 0 0 .21 210 483)"/><circle cx="50" cy="50" r="30" style="fill:#000" transform="matrix(.21 0 0 .21 231 483)"/><circle cx="50" cy="50" r="30" style="fill:#000" transform="matrix(.21 0 0 .21 273 483)"/><circle cx="50" cy="50" r="30" style="fill:#000" transform="matrix(.21 0 0 .21 315 483)"/><circle cx="50" cy="50" r="30" style="fill:#000" transform="matrix(.21 0 0 .21 714 483)"/><circle cx="50" cy="50" r="30" style="fill:#000" transform="matrix(.21 0 0 .21 819 483)"/><circle cx="50" cy="50" r="30" style="fill:#000" transform="matrix(.21 0 0 .21 861 483)"/><circle cx="50" cy="50" r="30" style="fill:#000" transform="matrix(.21 0 0 .21 882 483)"/><circle cx="50" cy="50" r="30" style="fill:#000" transform="matrix(.21 0 0 .21 903 483)"/><circle cx="50" cy="50" r="30" style="fill:#000" transform="matrix(.21 0 0 .21 924 483)"/><circle cx="50" cy="50" r="30" style="fill:#000" transform="matrix(.21 0 0 .21 945 483)"/><circle cx="50" cy="50" r="30" style="fill:#000" transform="matrix(.21 0 0 .21 63 504)"/><circle cx="50" cy="50" r="30" style="fill:#000" transform="matrix(.21 0 0 .21 126 504)"/><circle cx="50" cy="50" r="30" style="fill:#000" transform="matrix(.21 0 0 .21 147 504)"/><circle cx="50" cy="50" r="30" style="fill:#000" transform="matrix(.21 0 0 .21 168 504)"/><circle cx="50" cy="50" r="30" style="fill:#000" transform="matrix(.21 0 0 .21 189 504)"/><circle cx="50" cy="50" r="30" style="fill:#000" transform="matrix(.21 0 0 .21 210 504)"/><circle cx="50" cy="50" r="30" style="fill:#000" transform="matrix(.21 0 0 .21 231 504)"/><circle cx="50" cy="50" r="30" style="fill:#000" transform="matrix(.21 0 0 .21 252 504)"/><circle cx="50" cy="50" r="30" style="fill:#000" transform="matrix(.21 0 0 .21 294 504)"/><circle cx="50" cy="50" r="30" style="fill:#000" transform="matrix(.21 0 0 .21 336 504)"/><circle cx="50" cy="50" r="30" style="fill:#000" transform="matrix(.21 0 0 .21 357 504)"/><circle cx="50" cy="50" r="30" style="fill:#000" transform="matrix(.21 0 0 .21 714 504)"/><circle cx="50" cy="50" r="30" style="fill:#000" transform="matrix(.21 0 0 .21 756 504)"/><circle cx="50" cy="50" r="30" style="fill:#000" transform="matrix(.21 0 0 .21 777 504)"/><circle cx="50" cy="50" r="30" style="fill:#000" transform="matrix(.21 0 0 .21 798 504)"/><circle cx="50" cy="50" r="30" style="fill:#000" transform="matrix(.21 0 0 .21 882 504)"/><circle cx="50" cy="50" r="30" style="fill:#000" transform="matrix(.21 0 0 .21 903 504)"/><circle cx="50" cy="50" r="30" style="fill:#000" transform="matrix(.21 0 0 .21 924 504)"/><circle cx="50" cy="50" r="30" style="fill:#000" transform="matrix(.21 0 0 .21 945 504)"/><circle cx="50" cy="50" r="30" style="fill:#000" transform="matrix(.21 0 0 .21 966 504)"/><circle cx="50" cy="50" r="30" style="fill:#000" transform="matrix(.21 0 0 .21 84 525)"/><circle cx="50" cy="50" r="30" style="fill:#000" transform="matrix(.21 0 0 .21 126 525)"/><circle cx="50" cy="50" r="30" style="fill:#000" transform="matrix(.21 0 0 .21 210 525)"/><circle cx="50" cy="50" r="30" style="fill:#000" transform="matrix(.21 0 0 .21 231 525)"/><circle cx="50" cy="50" r="30" style="fill:#000" transform="matrix(.21 0 0 .21 315 525)"/><circle cx="50" cy="50" r="30" style="fill:#000" transform="matrix(.21 0 0 .21 336 525)"/><circle cx="50" cy="50" r="30" style="fill:#000" transform="matrix(.21 0 0 .21 378 525)"/><circle cx="50" cy="50" r="30" style="fill:#000" transform="matrix(.21 0 0 .21 735 525)"/><circle cx="50" cy="50" r="30" style="fill:#000" transform="matrix(.21 0 0 .21 798 525)"/><circle cx="50" cy="50" r="30" style="fill:#000" transform="matrix(.21 0 0 .21 819 525)"/><circle cx="50" cy="50" r="30" style="fill:#000" transform="matrix(.21 0 0 .21 882 525)"/><circle cx="50" cy="50" r="30" style="fill:#000" transform="matrix(.21 0 0 .21 966 525)"/><circle cx="50" cy="50" r="30" style="fill:#000" transform="matrix(.21 0 0 .21 987 525)"/><circle cx="50" cy="50" r="30" style="fill:#000" transform="matrix(.21 0 0 .21 1008 525)"/><circle cx="50" cy="50" r="30" style="fill:#000" transform="matrix(.21 0 0 .21 1050 525)"/><circle cx="50" cy="50" r="30" style="fill:#000" transform="matrix(.21 0 0 .21 126 546)"/><circle cx="50" cy="50" r="30" style="fill:#000" transform="matrix(.21 0 0 .21 168 546)"/><circle cx="50" cy="50" r="30" style="fill:#000" transform="matrix(.21 0 0 .21 210 546)"/><circle cx="50" cy="50" r="30" style="fill:#000" transform="matrix(.21 0 0 .21 231 546)"/><circle cx="50" cy="50" r="30" style="fill:#000" transform="matrix(.21 0 0 .21 252 546)"/><circle cx="50" cy="50" r="30" style="fill:#000" transform="matrix(.21 0 0 .21 294 546)"/><circle cx="50" cy="50" r="30" style="fill:#000" transform="matrix(.21 0 0 .21 336 546)"/><circle cx="50" cy="50" r="30" style="fill:#000" transform="matrix(.21 0 0 .21 357 546)"/><circle cx="50" cy="50" r="30" style="fill:#000" transform="matrix(.21 0 0 .21 777 546)"/><circle cx="50" cy="50" r="30" style="fill:#000" transform="matrix(.21 0 0 .21 798 546)"/><circle cx="50" cy="50" r="30" style="fill:#000" transform="matrix(.21 0 0 .21 819 546)"/><circle cx="50" cy="50" r="30" style="fill:#000" transform="matrix(.21 0 0 .21 840 546)"/><circle cx="50" cy="50" r="30" style="fill:#000" transform="matrix(.21 0 0 .21 882 546)"/><circle cx="50" cy="50" r="30" style="fill:#000" transform="matrix(.21 0 0 .21 924 546)"/><circle cx="50" cy="50" r="30" style="fill:#000" transform="matrix(.21 0 0 .21 966 546)"/><circle cx="50" cy="50" r="30" style="fill:#000" transform="matrix(.21 0 0 .21 987 546)"/><circle cx="50" cy="50" r="30" style="fill:#000" transform="matrix(.21 0 0 .21 1008 546)"/><circle cx="50" cy="50" r="30" style="fill:#000" transform="matrix(.21 0 0 .21 1050 546)"/><circle cx="50" cy="50" r="30" style="fill:#000" transform="matrix(.21 0 0 .21 84 567)"/><circle cx="50" cy="50" r="30" style="fill:#000" transform="matrix(.21 0 0 .21 126 567)"/><circle cx="50" cy="50" r="30" style="fill:#000" transform="matrix(.21 0 0 .21 210 567)"/><circle cx="50" cy="50" r="30" style="fill:#000" transform="matrix(.21 0 0 .21 273 567)"/><circle cx="50" cy="50" r="30" style="fill:#000" transform="matrix(.21 0 0 .21 357 567)"/><circle cx="50" cy="50" r="30" style="fill:#000" transform="matrix(.21 0 0 .21 714 567)"/><circle cx="50" cy="50" r="30" style="fill:#000" transform="matrix(.21 0 0 .21 735 567)"/><circle cx="50" cy="50" r="30" style="fill:#000" transform="matrix(.21 0 0 .21 777 567)"/><circle cx="50" cy="50" r="30" style="fill:#000" transform="matrix(.21 0 0 .21 819 567)"/><circle cx="50" cy="50" r="30" style="fill:#000" transform="matrix(.21 0 0 .21 840 567)"/><circle cx="50" cy="50" r="30" style="fill:#000" transform="matrix(.21 0 0 .21 861 567)"/><circle cx="50" cy="50" r="30" style="fill:#000" transform="matrix(.21 0 0 .21 882 567)"/><circle cx="50" cy="50" r="30" style="fill:#000" transform="matrix(.21 0 0 .21 966 567)"/><circle cx="50" cy="50" r="30" style="fill:#000" transform="matrix(.21 0 0 .21 987 567)"/><circle cx="50" cy="50" r="30" style="fill:#000" transform="matrix(.21 0 0 .21 1008 567)"/><circle cx="50" cy="50" r="30" style="fill:#000" transform="matrix(.21 0 0 .21 42 588)"/><circle cx="50" cy="50" r="30" style="fill:#000" transform="matrix(.21 0 0 .21 63 588)"/><circle cx="50" cy="50" r="30" style="fill:#000" transform="matrix(.21 0 0 .21 126 588)"/><circle cx="50" cy="50" r="30" style="fill:#000" transform="matrix(.21 0 0 .21 147 588)"/><circle cx="50" cy="50" r="30" style="fill:#000" transform="matrix(.21 0 0 .21 168 588)"/><circle cx="50" cy="50" r="30" style="fill:#000" transform="matrix(.21 0 0 .21 189 588)"/><circle cx="50" cy="50" r="30" style="fill:#000" transform="matrix(.21 0 0 .21 210 588)"/><circle cx="50" cy="50" r="30" style="fill:#000" transform="matrix(.21 0 0 .21 231 588)"/><circle cx="50" cy="50" r="30" style="fill:#000" transform="matrix(.21 0 0 .21 252 588)"/><circle cx="50" cy="50" r="30" style="fill:#000" transform="matrix(.21 0 0 .21 336 588)"/><circle cx="50" cy="50" r="30" style="fill:#000" transform="matrix(.21 0 0 .21 819 588)"/><circle cx="50" cy="50" r="30" style="fill:#000" transform="matrix(.21 0 0 .21 840 588)"/><circle cx="50" cy="50" r="30" style="fill:#000" transform="matrix(.21 0 0 .21 861 588)"/><circle cx="50" cy="50" r="30" style="fill:#000" transform="matrix(.21 0 0 .21 882 588)"/><circle cx="50" cy="50" r="30" style="fill:#000" transform="matrix(.21 0 0 .21 903 588)"/><circle cx="50" cy="50" r="30" style="fill:#000" transform="matrix(.21 0 0 .21 924 588)"/><circle cx="50" cy="50" r="30" style="fill:#000" transform="matrix(.21 0 0 .21 945 588)"/><circle cx="50" cy="50" r="30" style="fill:#000" transform="matrix(.21 0 0 .21 966 588)"/><circle cx="50" cy="50" r="30" style="fill:#000" transform="matrix(.21 0 0 .21 42 609)"/><circle cx="50" cy="50" r="30" style="fill:#000" transform="matrix(.21 0 0 .21 126 609)"/><circle cx="50" cy="50" r="30" style="fill:#000" transform="matrix(.21 0 0 .21 147 609)"/><circle cx="50" cy="50" r="30" style="fill:#000" transform="matrix(.21 0 0 .21 189 609)"/><circle cx="50" cy="50" r="30" style="fill:#000" transform="matrix(.21 0 0 .21 252 609)"/><circle cx="50" cy="50" r="30" style="fill:#000" transform="matrix(.21 0 0 .21 315 609)"/><circle cx="50" cy="50" r="30" style="fill:#000" transform="matrix(.21 0 0 .21 357 609)"/><circle cx="50" cy="50" r="30" style="fill:#000" transform="matrix(.21 0 0 .21 735 609)"/><circle cx="50" cy="50" r="30" style="fill:#000" transform="matrix(.21 0 0 .21 819 609)"/><circle cx="50" cy="50" r="30" style="fill:#000" transform="matrix(.21 0 0 .21 903 609)"/><circle cx="50" cy="50" r="30" style="fill:#000" transform="matrix(.21 0 0 .21 966 609)"/><circle cx="50" cy="50" r="30" style="fill:#000" transform="matrix(.21 0 0 .21 1029 609)"/><circle cx="50" cy="50" r="30" style="fill:#000" transform="matrix(.21 0 0 .21 1050 609)"/><circle cx="50" cy="50" r="30" style="fill:#000" transform="matrix(.21 0 0 .21 42 630)"/><circle cx="50" cy="50" r="30" style="fill:#000" transform="matrix(.21 0 0 .21 84 630)"/><circle cx="50" cy="50" r="30" style="fill:#000" transform="matrix(.21 0 0 .21 126 630)"/><circle cx="50" cy="50" r="30" style="fill:#000" transform="matrix(.21 0 0 .21 147 630)"/><circle cx="50" cy="50" r="30" style="fill:#000" transform="matrix(.21 0 0 .21 168 630)"/><circle cx="50" cy="50" r="30" style="fill:#000" transform="matrix(.21 0 0 .21 189 630)"/><circle cx="50" cy="50" r="30" style="fill:#000" transform="matrix(.21 0 0 .21 231 630)"/><circle cx="50" cy="50" r="30" style="fill:#000" transform="matrix(.21 0 0 .21 252 630)"/><circle cx="50" cy="50" r="30" style="fill:#000" transform="matrix(.21 0 0 .21 273 630)"/><circle cx="50" cy="50" r="30" style="fill:#000" transform="matrix(.21 0 0 .21 315 630)"/><circle cx="50" cy="50" r="30" style="fill:#000" transform="matrix(.21 0 0 .21 336 630)"/><circle cx="50" cy="50" r="30" style="fill:#000" transform="matrix(.21 0 0 .21 378 630)"/><circle cx="50" cy="50" r="30" style="fill:#000" transform="matrix(.21 0 0 .21 735 630)"/><circle cx="50" cy="50" r="30" style="fill:#000" transform="matrix(.21 0 0 .21 756 630)"/><circle cx="50" cy="50" r="30" style="fill:#000" transform="matrix(.21 0 0 .21 819 630)"/><circle cx="50" cy="50" r="30" style="fill:#000" transform="matrix(.21 0 0 .21 840 630)"/><circle cx="50" cy="50" r="30" style="fill:#000" transform="matrix(.21 0 0 .21 861 630)"/><circle cx="50" cy="50" r="30" style="fill:#000" transform="matrix(.21 0 0 .21 882 630)"/><circle cx="50" cy="50" r="30" style="fill:#000" transform="matrix(.21 0 0 .21 903 630)"/><circle cx="50" cy="50" r="30" style="fill:#000" transform="matrix(.21 0 0 .21 966 630)"/><circle cx="50" cy="50" r="30" style="fill:#000" transform="matrix(.21 0 0 .21 1008 630)"/><circle cx="50" cy="50" r="30" style="fill:#000" transform="matrix(.21 0 0 .21 1029 630)"/><circle cx="50" cy="50" r="30" style="fill:#000" transform="matrix(.21 0 0 .21 42 651)"/><circle cx="50" cy="50" r="30" style="fill:#000" transform="matrix(.21 0 0 .21 84 651)"/><circle cx="50" cy="50" r="30" style="fill:#000" transform="matrix(.21 0 0 .21 126 651)"/><circle cx="50" cy="50" r="30" style="fill:#000" transform="matrix(.21 0 0 .21 147 651)"/><circle cx="50" cy="50" r="30" style="fill:#000" transform="matrix(.21 0 0 .21 189 651)"/><circle cx="50" cy="50" r="30" style="fill:#000" transform="matrix(.21 0 0 .21 210 651)"/><circle cx="50" cy="50" r="30" style="fill:#000" transform="matrix(.21 0 0 .21 231 651)"/><circle cx="50" cy="50" r="30" style="fill:#000" transform="matrix(.21 0 0 .21 273 651)"/><circle cx="50" cy="50" r="30" style="fill:#000" transform="matrix(.21 0 0 .21 315 651)"/><circle cx="50" cy="50" r="30" style="fill:#000" transform="matrix(.21 0 0 .21 357 651)"/><circle cx="50" cy="50" r="30" style="fill:#000" transform="matrix(.21 0 0 .21 378 651)"/><circle cx="50" cy="50" r="30" style="fill:#000" transform="matrix(.21 0 0 .21 714 651)"/><circle cx="50" cy="50" r="30" style="fill:#000" transform="matrix(.21 0 0 .21 735 651)"/><circle cx="50" cy="50" r="30" style="fill:#000" transform="matrix(.21 0 0 .21 756 651)"/><circle cx="50" cy="50" r="30" style="fill:#000" transform="matrix(.21 0 0 .21 777 651)"/><circle cx="50" cy="50" r="30" style="fill:#000" transform="matrix(.21 0 0 .21 861 651)"/><circle cx="50" cy="50" r="30" style="fill:#000" transform="matrix(.21 0 0 .21 882 651)"/><circle cx="50" cy="50" r="30" style="fill:#000" transform="matrix(.21 0 0 .21 924 651)"/><circle cx="50" cy="50" r="30" style="fill:#000" transform="matrix(.21 0 0 .21 966 651)"/><circle cx="50" cy="50" r="30" style="fill:#000" transform="matrix(.21 0 0 .21 1029 651)"/><circle cx="50" cy="50" r="30" style="fill:#000" transform="matrix(.21 0 0 .21 42 672)"/><circle cx="50" cy="50" r="30" style="fill:#000" transform="matrix(.21 0 0 .21 63 672)"/><circle cx="50" cy="50" r="30" style="fill:#000" transform="matrix(.21 0 0 .21 84 672)"/><circle cx="50" cy="50" r="30" style="fill:#000" transform="matrix(.21 0 0 .21 126 672)"/><circle cx="50" cy="50" r="30" style="fill:#000" transform="matrix(.21 0 0 .21 168 672)"/><circle cx="50" cy="50" r="30" style="fill:#000" transform="matrix(.21 0 0 .21 189 672)"/><circle cx="50" cy="50" r="30" style="fill:#000" transform="matrix(.21 0 0 .21 336 672)"/><circle cx="50" cy="50" r="30" style="fill:#000" transform="matrix(.21 0 0 .21 714 672)"/><circle cx="50" cy="50" r="30" style="fill:#000" transform="matrix(.21 0 0 .21 756 672)"/><circle cx="50" cy="50" r="30" style="fill:#000" transform="matrix(.21 0 0 .21 840 672)"/><circle cx="50" cy="50" r="30" style="fill:#000" transform="matrix(.21 0 0 .21 882 672)"/><circle cx="50" cy="50" r="30" style="fill:#000" transform="matrix(.21 0 0 .21 903 672)"/><circle cx="50" cy="50" r="30" style="fill:#000" transform="matrix(.21 0 0 .21 924 672)"/><circle cx="50" cy="50" r="30" style="fill:#000" transform="matrix(.21 0 0 .21 966 672)"/><circle cx="50" cy="50" r="30" style="fill:#000" transform="matrix(.21 0 0 .21 1008 672)"/><circle cx="50" cy="50" r="30" style="fill:#000" transform="matrix(.21 0 0 .21 84 693)"/><circle cx="50" cy="50" r="30" style="fill:#000" transform="matrix(.21 0 0 .21 147 693)"/><circle cx="50" cy="50" r="30" style="fill:#000" transform="matrix(.21 0 0 .21 252 693)"/><circle cx="50" cy="50" r="30" style="fill:#000" transform="matrix(.21 0 0 .21 336 693)"/><circle cx="50" cy="50" r="30" style="fill:#000" transform="matrix(.21 0 0 .21 357 693)"/><circle cx="50" cy="50" r="30" style="fill:#000" transform="matrix(.21 0 0 .21 714 693)"/><circle cx="50" cy="50" r="30" style="fill:#000" transform="matrix(.21 0 0 .21 735 693)"/><circle cx="50" cy="50" r="30" style="fill:#000" transform="matrix(.21 0 0 .21 777 693)"/><circle cx="50" cy="50" r="30" style="fill:#000" transform="matrix(.21 0 0 .21 861 693)"/><circle cx="50" cy="50" r="30" style="fill:#000" transform="matrix(.21 0 0 .21 882 693)"/><circle cx="50" cy="50" r="30" style="fill:#000" transform="matrix(.21 0 0 .21 903 693)"/><circle cx="50" cy="50" r="30" style="fill:#000" transform="matrix(.21 0 0 .21 924 693)"/><circle cx="50" cy="50" r="30" style="fill:#000" transform="matrix(.21 0 0 .21 945 693)"/><circle cx="50" cy="50" r="30" style="fill:#000" transform="matrix(.21 0 0 .21 1008 693)"/><circle cx="50" cy="50" r="30" style="fill:#000" transform="matrix(.21 0 0 .21 1050 693)"/><circle cx="50" cy="50" r="30" style="fill:#000" transform="matrix(.21 0 0 .21 42 714)"/><circle cx="50" cy="50" r="30" style="fill:#000" transform="matrix(.21 0 0 .21 63 714)"/><circle cx="50" cy="50" r="30" style="fill:#000" transform="matrix(.21 0 0 .21 84 714)"/><circle cx="50" cy="50" r="30" style="fill:#000" transform="matrix(.21 0 0 .21 105 714)"/><circle cx="50" cy="50" r="30" style="fill:#000" transform="matrix(.21 0 0 .21 126 714)"/><circle cx="50" cy="50" r="30" style="fill:#000" transform="matrix(.21 0 0 .21 168 714)"/><circle cx="50" cy="50" r="30" style="fill:#000" transform="matrix(.21 0 0 .21 189 714)"/><circle cx="50" cy="50" r="30" style="fill:#000" transform="matrix(.21 0 0 .21 252 714)"/><circle cx="50" cy="50" r="30" style="fill:#000" transform="matrix(.21 0 0 .21 294 714)"/><circle cx="50" cy="50" r="30" style="fill:#000" transform="matrix(.21 0 0 .21 315 714)"/><circle cx="50" cy="50" r="30" style="fill:#000" transform="matrix(.21 0 0 .21 336 714)"/><circle cx="50" cy="50" r="30" style="fill:#000" transform="matrix(.21 0 0 .21 357 714)"/><circle cx="50" cy="50" r="30" style="fill:#000" transform="matrix(.21 0 0 .21 378 714)"/><circle cx="50" cy="50" r="30" style="fill:#000" transform="matrix(.21 0 0 .21 420 714)"/><circle cx="50" cy="50" r="30" style="fill:#000" transform="matrix(.21 0 0 .21 462 714)"/><circle cx="50" cy="50" r="30" style="fill:#000" transform="matrix(.21 0 0 .21 567 714)"/><circle cx="50" cy="50" r="30" style="fill:#000" transform="matrix(.21 0 0 .21 714 714)"/><circle cx="50" cy="50" r="30" style="fill:#000" transform="matrix(.21 0 0 .21 777 714)"/><circle cx="50" cy="50" r="30" style="fill:#000" transform="matrix(.21 0 0 .21 798 714)"/><circle cx="50" cy="50" r="30" style="fill:#000" transform="matrix(.21 0 0 .21 840 714)"/><circle cx="50" cy="50" r="30" style="fill:#000" transform="matrix(.21 0 0 .21 903 714)"/><circle cx="50" cy="50" r="30" style="fill:#000" transform="matrix(.21 0 0 .21 924 714)"/><circle cx="50" cy="50" r="30" style="fill:#000" transform="matrix(.21 0 0 .21 987 714)"/><circle cx="50" cy="50" r="30" style="fill:#000" transform="matrix(.21 0 0 .21 1050 714)"/><circle cx="50" cy="50" r="30" style="fill:#000" transform="matrix(.21 0 0 .21 42 735)"/><circle cx="50" cy="50" r="30" style="fill:#000" transform="matrix(.21 0 0 .21 63 735)"/><circle cx="50" cy="50" r="30" style="fill:#000" transform="matrix(.21 0 0 .21 84 735)"/><circle cx="50" cy="50" r="30" style="fill:#000" transform="matrix(.21 0 0 .21 105 735)"/><circle cx="50" cy="50" r="30" style="fill:#000" transform="matrix(.21 0 0 .21 126 735)"/><circle cx="50" cy="50" r="30" style="fill:#000" transform="matrix(.21 0 0 .21 147 735)"/><circle cx="50" cy="50" r="30" style="fill:#000" transform="matrix(.21 0 0 .21 189 735)"/><circle cx="50" cy="50" r="30" style="fill:#000" transform="matrix(.21 0 0 .21 231 735)"/><circle cx="50" cy="50" r="30" style="fill:#000" transform="matrix(.21 0 0 .21 315 735)"/><circle cx="50" cy="50" r="30" style="fill:#000" transform="matrix(.21 0 0 .21 420 735)"/><circle cx="50" cy="50" r="30" style="fill:#000" transform="matrix(.21 0 0 .21 441 735)"/><circle cx="50" cy="50" r="30" style="fill:#000" transform="matrix(.21 0 0 .21 462 735)"/><circle cx="50" cy="50" r="30" style="fill:#000" transform="matrix(.21 0 0 .21 483 735)"/><circle cx="50" cy="50" r="30" style="fill:#000" transform="matrix(.21 0 0 .21 588 735)"/><circle cx="50" cy="50" r="30" style="fill:#000" transform="matrix(.21 0 0 .21 609 735)"/><circle cx="50" cy="50" r="30" style="fill:#000" transform="matrix(.21 0 0 .21 630 735)"/><circle cx="50" cy="50" r="30" style="fill:#000" transform="matrix(.21 0 0 .21 714 735)"/><circle cx="50" cy="50" r="30" style="fill:#000" transform="matrix(.21 0 0 .21 735 735)"/><circle cx="50" cy="50" r="30" style="fill:#000" transform="matrix(.21 0 0 .21 756 735)"/><circle cx="50" cy="50" r="30" style="fill:#000" transform="matrix(.21 0 0 .21 840 735)"/><circle cx="50" cy="50" r="30" style="fill:#000" transform="matrix(.21 0 0 .21 882 735)"/><circle cx="50" cy="50" r="30" style="fill:#000" transform="matrix(.21 0 0 .21 903 735)"/><circle cx="50" cy="50" r="30" style="fill:#000" transform="matrix(.21 0 0 .21 924 735)"/><circle cx="50" cy="50" r="30" style="fill:#000" transform="matrix(.21 0 0 .21 945 735)"/><circle cx="50" cy="50" r="30" style="fill:#000" transform="matrix(.21 0 0 .21 1008 735)"/><circle cx="50" cy="50" r="30" style="fill:#000" transform="matrix(.21 0 0 .21 1029 735)"/><circle cx="50" cy="50" r="30" style="fill:#000" transform="matrix(.21 0 0 .21 1050 735)"/><circle cx="50" cy="50" r="30" style="fill:#000" transform="matrix(.21 0 0 .21 42 756)"/><circle cx="50" cy="50" r="30" style="fill:#000" transform="matrix(.21 0 0 .21 84 756)"/><circle cx="50" cy="50" r="30" style="fill:#000" transform="matrix(.21 0 0 .21 147 756)"/><circle cx="50" cy="50" r="30" style="fill:#000" transform="matrix(.21 0 0 .21 168 756)"/><circle cx="50" cy="50" r="30" style="fill:#000" transform="matrix(.21 0 0 .21 189 756)"/><circle cx="50" cy="50" r="30" style="fill:#000" transform="matrix(.21 0 0 .21 210 756)"/><circle cx="50" cy="50" r="30" style="fill:#000" transform="matrix(.21 0 0 .21 231 756)"/><circle cx="50" cy="50" r="30" style="fill:#000" transform="matrix(.21 0 0 .21 357 756)"/><circle cx="50" cy="50" r="30" style="fill:#000" transform="matrix(.21 0 0 .21 420 756)"/><circle cx="50" cy="50" r="30" style="fill:#000" transform="matrix(.21 0 0 .21 462 756)"/><circle cx="50" cy="50" r="30" style="fill:#000" transform="matrix(.21 0 0 .21 483 756)"/><circle cx="50" cy="50" r="30" style="fill:#000" transform="matrix(.21 0 0 .21 525 756)"/><circle cx="50" cy="50" r="30" style="fill:#000" transform="matrix(.21 0 0 .21 546 756)"/><circle cx="50" cy="50" r="30" style="fill:#000" transform="matrix(.21 0 0 .21 630 756)"/><circle cx="50" cy="50" r="30" style="fill:#000" transform="matrix(.21 0 0 .21 672 756)"/><circle cx="50" cy="50" r="30" style="fill:#000" transform="matrix(.21 0 0 .21 693 756)"/><circle cx="50" cy="50" r="30" style="fill:#000" transform="matrix(.21 0 0 .21 735 756)"/><circle cx="50" cy="50" r="30" style="fill:#000" transform="matrix(.21 0 0 .21 756 756)"/><circle cx="50" cy="50" r="30" style="fill:#000" transform="matrix(.21 0 0 .21 798 756)"/><circle cx="50" cy="50" r="30" style="fill:#000" transform="matrix(.21 0 0 .21 840 756)"/><circle cx="50" cy="50" r="30" style="fill:#000" transform="matrix(.21 0 0 .21 861 756)"/><circle cx="50" cy="50" r="30" style="fill:#000" transform="matrix(.21 0 0 .21 903 756)"/><circle cx="50" cy="50" r="30" style="fill:#000" transform="matrix(.21 0 0 .21 945 756)"/><circle cx="50" cy="50" r="30" style="fill:#000" transform="matrix(.21 0 0 .21 966 756)"/><circle cx="50" cy="50" r="30" style="fill:#000" transform="matrix(.21 0 0 .21 987 756)"/><circle cx="50" cy="50" r="30" style="fill:#000" transform="matrix(.21 0 0 .21 84 777)"/><circle cx="50" cy="50" r="30" style="fill:#000" transform="matrix(.21 0 0 .21 189 777)"/><circle cx="50" cy="50" r="30" style="fill:#000" transform="matrix(.21 0 0 .21 210 777)"/><circle cx="50" cy="50" r="30" style="fill:#000" transform="matrix(.21 0 0 .21 252 777)"/><circle cx="50" cy="50" r="30" style="fill:#000" transform="matrix(.21 0 0 .21 273 777)"/><circle cx="50" cy="50" r="30" style="fill:#000" transform="matrix(.21 0 0 .21 294 777)"/><circle cx="50" cy="50" r="30" style="fill:#000" transform="matrix(.21 0 0 .21 336 777)"/><circle cx="50" cy="50" r="30" style="fill:#000" transform="matrix(.21 0 0 .21 378 777)"/><circle cx="50" cy="50" r="30" style="fill:#000" transform="matrix(.21 0 0 .21 399 777)"/><circle cx="50" cy="50" r="30" style="fill:#000" transform="matrix(.21 0 0 .21 483 777)"/><circle cx="50" cy="50" r="30" style="fill:#000" transform="matrix(.21 0 0 .21 504 777)"/><circle cx="50" cy="50" r="30" style="fill:#000" transform="matrix(.21 0 0 .21 525 777)"/><circle cx="50" cy="50" r="30" style="fill:#000" transform="matrix(.21 0 0 .21 609 777)"/><circle cx="50" cy="50" r="30" style="fill:#000" transform="matrix(.21 0 0 .21 651 777)"/><circle cx="50" cy="50" r="30" style="fill:#000" transform="matrix(.21 0 0 .21 735 777)"/><circle cx="50" cy="50" r="30" style="fill:#000" transform="matrix(.21 0 0 .21 777 777)"/><circle cx="50" cy="50" r="30" style="fill:#000" transform="matrix(.21 0 0 .21 840 777)"/><circle cx="50" cy="50" r="30" style="fill:#000" transform="matrix(.21 0 0 .21 861 777)"/><circle cx="50" cy="50" r="30" style="fill:#000" transform="matrix(.21 0 0 .21 903 777)"/><circle cx="50" cy="50" r="30" style="fill:#000" transform="matrix(.21 0 0 .21 924 777)"/><circle cx="50" cy="50" r="30" style="fill:#000" transform="matrix(.21 0 0 .21 966 777)"/><circle cx="50" cy="50" r="30" style="fill:#000" transform="matrix(.21 0 0 .21 987 777)"/><circle cx="50" cy="50" r="30" style="fill:#000" transform="matrix(.21 0 0 .21 1008 777)"/><circle cx="50" cy="50" r="30" style="fill:#000" transform="matrix(.21 0 0 .21 1029 777)"/><circle cx="50" cy="50" r="30" style="fill:#000" transform="matrix(.21 0 0 .21 63 798)"/><circle cx="50" cy="50" r="30" style="fill:#000" transform="matrix(.21 0 0 .21 84 798)"/><circle cx="50" cy="50" r="30" style="fill:#000" transform="matrix(.21 0 0 .21 105 798)"/><circle cx="50" cy="50" r="30" style="fill:#000" transform="matrix(.21 0 0 .21 126 798)"/><circle cx="50" cy="50" r="30" style="fill:#000" transform="matrix(.21 0 0 .21 168 798)"/><circle cx="50" cy="50" r="30" style="fill:#000" transform="matrix(.21 0 0 .21 210 798)"/><circle cx="50" cy="50" r="30" style="fill:#000" transform="matrix(.21 0 0 .21 252 798)"/><circle cx="50" cy="50" r="30" style="fill:#000" transform="matrix(.21 0 0 .21 273 798)"/><circle cx="50" cy="50" r="30" style="fill:#000" transform="matrix(.21 0 0 .21 336 798)"/><circle cx="50" cy="50" r="30" style="fill:#000" transform="matrix(.21 0 0 .21 399 798)"/><circle cx="50" cy="50" r="30" style="fill:#000" transform="matrix(.21 0 0 .21 420 798)"/><circle cx="50" cy="50" r="30" style="fill:#000" transform="matrix(.21 0 0 .21 504 798)"/><circle cx="50" cy="50" r="30" style="fill:#000" transform="matrix(.21 0 0 .21 525 798)"/><circle cx="50" cy="50" r="30" style="fill:#000" transform="matrix(.21 0 0 .21 567 798)"/><circle cx="50" cy="50" r="30" style="fill:#000" transform="matrix(.21 0 0 .21 588 798)"/><circle cx="50" cy="50" r="30" style="fill:#000" transform="matrix(.21 0 0 .21 609 798)"/><circle cx="50" cy="50" r="30" style="fill:#000" transform="matrix(.21 0 0 .21 651 798)"/><circle cx="50" cy="50" r="30" style="fill:#000" transform="matrix(.21 0 0 .21 735 798)"/><circle cx="50" cy="50" r="30" style="fill:#000" transform="matrix(.21 0 0 .21 756 798)"/><circle cx="50" cy="50" r="30" style="fill:#000" transform="matrix(.21 0 0 .21 861 798)"/><circle cx="50" cy="50" r="30" style="fill:#000" transform="matrix(.21 0 0 .21 1029 798)"/><circle cx="50" cy="50" r="30" style="fill:#000" transform="matrix(.21 0 0 .21 63 819)"/><circle cx="50" cy="50" r="30" style="fill:#000" transform="matrix(.21 0 0 .21 84 819)"/><circle cx="50" cy="50" r="30" style="fill:#000" transform="matrix(.21 0 0 .21 105 819)"/><circle cx="50" cy="50" r="30" style="fill:#000" transform="matrix(.21 0 0 .21 189 819)"/><circle cx="50" cy="50" r="30" style="fill:#000" transform="matrix(.21 0 0 .21 210 819)"/><circle cx="50" cy="50" r="30" style="fill:#000" transform="matrix(.21 0 0 .21 273 819)"/><circle cx="50" cy="50" r="30" style="fill:#000" transform="matrix(.21 0 0 .21 294 819)"/><circle cx="50" cy="50" r="30" style="fill:#000" transform="matrix(.21 0 0 .21 378 819)"/><circle cx="50" cy="50" r="30" style="fill:#000" transform="matrix(.21 0 0 .21 462 819)"/><circle cx="50" cy="50" r="30" style="fill:#000" transform="matrix(.21 0 0 .21 546 819)"/><circle cx="50" cy="50" r="30" style="fill:#000" transform="matrix(.21 0 0 .21 609 819)"/><circle cx="50" cy="50" r="30" style="fill:#000" transform="matrix(.21 0 0 .21 693 819)"/><circle cx="50" cy="50" r="30" style="fill:#000" transform="matrix(.21 0 0 .21 714 819)"/><circle cx="50" cy="50" r="30" style="fill:#000" transform="matrix(.21 0 0 .21 735 819)"/><circle cx="50" cy="50" r="30" style="fill:#000" transform="matrix(.21 0 0 .21 756 819)"/><circle cx="50" cy="50" r="30" style="fill:#000" transform="matrix(.21 0 0 .21 882 819)"/><circle cx="50" cy="50" r="30" style="fill:#000" transform="matrix(.21 0 0 .21 924 819)"/><circle cx="50" cy="50" r="30" style="fill:#000" transform="matrix(.21 0 0 .21 1029 819)"/><circle cx="50" cy="50" r="30" style="fill:#000" transform="matrix(.21 0 0 .21 1050 819)"/><circle cx="50" cy="50" r="30" style="fill:#000" transform="matrix(.21 0 0 .21 63 840)"/><circle cx="50" cy="50" r="30" style="fill:#000" transform="matrix(.21 0 0 .21 147 840)"/><circle cx="50" cy="50" r="30" style="fill:#000" transform="matrix(.21 0 0 .21 168 840)"/><circle cx="50" cy="50" r="30" style="fill:#000" transform="matrix(.21 0 0 .21 210 840)"/><circle cx="50" cy="50" r="30" style="fill:#000" transform="matrix(.21 0 0 .21 273 840)"/><circle cx="50" cy="50" r="30" style="fill:#000" transform="matrix(.21 0 0 .21 315 840)"/><circle cx="50" cy="50" r="30" style="fill:#000" transform="matrix(.21 0 0 .21 420 840)"/><circle cx="50" cy="50" r="30" style="fill:#000" transform="matrix(.21 0 0 .21 441 840)"/><circle cx="50" cy="50" r="30" style="fill:#000" transform="matrix(.21 0 0 .21 462 840)"/><circle cx="50" cy="50" r="30" style="fill:#000" transform="matrix(.21 0 0 .21 504 840)"/><circle cx="50" cy="50" r="30" style="fill:#000" transform="matrix(.21 0 0 .21 525 840)"/><circle cx="50" cy="50" r="30" style="fill:#000" transform="matrix(.21 0 0 .21 567 840)"/><circle cx="50" cy="50" r="30" style="fill:#000" transform="matrix(.21 0 0 .21 609 840)"/><circle cx="50" cy="50" r="30" style="fill:#000" transform="matrix(.21 0 0 .21 630 840)"/><circle cx="50" cy="50" r="30" style="fill:#000" transform="matrix(.21 0 0 .21 651 840)"/><circle cx="50" cy="50" r="30" style="fill:#000" transform="matrix(.21 0 0 .21 693 840)"/><circle cx="50" cy="50" r="30" style="fill:#000" transform="matrix(.21 0 0 .21 756 840)"/><circle cx="50" cy="50" r="30" style="fill:#000" transform="matrix(.21 0 0 .21 777 840)"/><circle cx="50" cy="50" r="30" style="fill:#000" transform="matrix(.21 0 0 .21 798 840)"/><circle cx="50" cy="50" r="30" style="fill:#000" transform="matrix(.21 0 0 .21 861 840)"/><circle cx="50" cy="50" r="30" style="fill:#000" transform="matrix(.21 0 0 .21 882 840)"/><circle cx="50" cy="50" r="30" style="fill:#000" transform="matrix(.21 0 0 .21 924 840)"/><circle cx="50" cy="50" r="30" style="fill:#000" transform="matrix(.21 0 0 .21 945 840)"/><circle cx="50" cy="50" r="30" style="fill:#000" transform="matrix(.21 0 0 .21 987 840)"/><circle cx="50" cy="50" r="30" style="fill:#000" transform="matrix(.21 0 0 .21 1008 840)"/><circle cx="50" cy="50" r="30" style="fill:#000" transform="matrix(.21 0 0 .21 1029 840)"/><circle cx="50" cy="50" r="30" style="fill:#000" transform="matrix(.21 0 0 .21 63 861)"/><circle cx="50" cy="50" r="30" style="fill:#000" transform="matrix(.21 0 0 .21 84 861)"/><circle cx="50" cy="50" r="30" style="fill:#000" transform="matrix(.21 0 0 .21 105 861)"/><circle cx="50" cy="50" r="30" style="fill:#000" transform="matrix(.21 0 0 .21 231 861)"/><circle cx="50" cy="50" r="30" style="fill:#000" transform="matrix(.21 0 0 .21 273 861)"/><circle cx="50" cy="50" r="30" style="fill:#000" transform="matrix(.21 0 0 .21 294 861)"/><circle cx="50" cy="50" r="30" style="fill:#000" transform="matrix(.21 0 0 .21 315 861)"/><circle cx="50" cy="50" r="30" style="fill:#000" transform="matrix(.21 0 0 .21 357 861)"/><circle cx="50" cy="50" r="30" style="fill:#000" transform="matrix(.21 0 0 .21 378 861)"/><circle cx="50" cy="50" r="30" style="fill:#000" transform="matrix(.21 0 0 .21 420 861)"/><circle cx="50" cy="50" r="30" style="fill:#000" transform="matrix(.21 0 0 .21 441 861)"/><circle cx="50" cy="50" r="30" style="fill:#000" transform="matrix(.21 0 0 .21 462 861)"/><circle cx="50" cy="50" r="30" style="fill:#000" transform="matrix(.21 0 0 .21 504 861)"/><circle cx="50" cy="50" r="30" style="fill:#000" transform="matrix(.21 0 0 .21 546 861)"/><circle cx="50" cy="50" r="30" style="fill:#000" transform="matrix(.21 0 0 .21 651 861)"/><circle cx="50" cy="50" r="30" style="fill:#000" transform="matrix(.21 0 0 .21 714 861)"/><circle cx="50" cy="50" r="30" style="fill:#000" transform="matrix(.21 0 0 .21 735 861)"/><circle cx="50" cy="50" r="30" style="fill:#000" transform="matrix(.21 0 0 .21 798 861)"/><circle cx="50" cy="50" r="30" style="fill:#000" transform="matrix(.21 0 0 .21 882 861)"/><circle cx="50" cy="50" r="30" style="fill:#000" transform="matrix(.21 0 0 .21 924 861)"/><circle cx="50" cy="50" r="30" style="fill:#000" transform="matrix(.21 0 0 .21 987 861)"/><circle cx="50" cy="50" r="30" style="fill:#000" transform="matrix(.21 0 0 .21 1029 861)"/><circle cx="50" cy="50" r="30" style="fill:#000" transform="matrix(.21 0 0 .21 1050 861)"/><circle cx="50" cy="50" r="30" style="fill:#000" transform="matrix(.21 0 0 .21 42 882)"/><circle cx="50" cy="50" r="30" style="fill:#000" transform="matrix(.21 0 0 .21 63 882)"/><circle cx="50" cy="50" r="30" style="fill:#000" transform="matrix(.21 0 0 .21 84 882)"/><circle cx="50" cy="50" r="30" style="fill:#000" transform="matrix(.21 0 0 .21 168 882)"/><circle cx="50" cy="50" r="30" style="fill:#000" transform="matrix(.21 0 0 .21 189 882)"/><circle cx="50" cy="50" r="30" style="fill:#000" transform="matrix(.21 0 0 .21 210 882)"/><circle cx="50" cy="50" r="30" style="fill:#000" transform="matrix(.21 0 0 .21 231 882)"/><circle cx="50" cy="50" r="30" style="fill:#000" transform="matrix(.21 0 0 .21 315 882)"/><circle cx="50" cy="50" r="30" style="fill:#000" transform="matrix(.21 0 0 .21 462 882)"/><circle cx="50" cy="50" r="30" style="fill:#000" transform="matrix(.21 0 0 .21 483 882)"/><circle cx="50" cy="50" r="30" style="fill:#000" transform="matrix(.21 0 0 .21 504 882)"/><circle cx="50" cy="50" r="30" style="fill:#000" transform="matrix(.21 0 0 .21 525 882)"/><circle cx="50" cy="50" r="30" style="fill:#000" transform="matrix(.21 0 0 .21 546 882)"/><circle cx="50" cy="50" r="30" style="fill:#000" transform="matrix(.21 0 0 .21 567 882)"/><circle cx="50" cy="50" r="30" style="fill:#000" transform="matrix(.21 0 0 .21 588 882)"/><circle cx="50" cy="50" r="30" style="fill:#000" transform="matrix(.21 0 0 .21 672 882)"/><circle cx="50" cy="50" r="30" style="fill:#000" transform="matrix(.21 0 0 .21 693 882)"/><circle cx="50" cy="50" r="30" style="fill:#000" transform="matrix(.21 0 0 .21 735 882)"/><circle cx="50" cy="50" r="30" style="fill:#000" transform="matrix(.21 0 0 .21 777 882)"/><circle cx="50" cy="50" r="30" style="fill:#000" transform="matrix(.21 0 0 .21 798 882)"/><circle cx="50" cy="50" r="30" style="fill:#000" transform="matrix(.21 0 0 .21 819 882)"/><circle cx="50" cy="50" r="30" style="fill:#000" transform="matrix(.21 0 0 .21 840 882)"/><circle cx="50" cy="50" r="30" style="fill:#000" transform="matrix(.21 0 0 .21 882 882)"/><circle cx="50" cy="50" r="30" style="fill:#000" transform="matrix(.21 0 0 .21 903 882)"/><circle cx="50" cy="50" r="30" style="fill:#000" transform="matrix(.21 0 0 .21 924 882)"/><circle cx="50" cy="50" r="30" style="fill:#000" transform="matrix(.21 0 0 .21 945 882)"/><circle cx="50" cy="50" r="30" style="fill:#000" transform="matrix(.21 0 0 .21 966 882)"/><circle cx="50" cy="50" r="30" style="fill:#000" transform="matrix(.21 0 0 .21 987 882)"/><circle cx="50" cy="50" r="30" style="fill:#000" transform="matrix(.21 0 0 .21 1029 882)"/><circle cx="50" cy="50" r="30" style="fill:#000" transform="matrix(.21 0 0 .21 1050 882)"/><circle cx="50" cy="50" r="30" style="fill:#000" transform="matrix(.21 0 0 .21 210 903)"/><circle cx="50" cy="50" r="30" style="fill:#000" transform="matrix(.21 0 0 .21 294 903)"/><circle cx="50" cy="50" r="30" style="fill:#000" transform="matrix(.21 0 0 .21 336 903)"/><circle cx="50" cy="50" r="30" style="fill:#000" transform="matrix(.21 0 0 .21 357 903)"/><circle cx="50" cy="50" r="30" style="fill:#000" transform="matrix(.21 0 0 .21 399 903)"/><circle cx="50" cy="50" r="30" style="fill:#000" transform="matrix(.21 0 0 .21 441 903)"/><circle cx="50" cy="50" r="30" style="fill:#000" transform="matrix(.21 0 0 .21 504 903)"/><circle cx="50" cy="50" r="30" style="fill:#000" transform="matrix(.21 0 0 .21 588 903)"/><circle cx="50" cy="50" r="30" style="fill:#000" transform="matrix(.21 0 0 .21 672 903)"/><circle cx="50" cy="50" r="30" style="fill:#000" transform="matrix(.21 0 0 .21 693 903)"/><circle cx="50" cy="50" r="30" style="fill:#000" transform="matrix(.21 0 0 .21 756 903)"/><circle cx="50" cy="50" r="30" style="fill:#000" transform="matrix(.21 0 0 .21 777 903)"/><circle cx="50" cy="50" r="30" style="fill:#000" transform="matrix(.21 0 0 .21 798 903)"/><circle cx="50" cy="50" r="30" style="fill:#000" transform="matrix(.21 0 0 .21 819 903)"/><circle cx="50" cy="50" r="30" style="fill:#000" transform="matrix(.21 0 0 .21 882 903)"/><circle cx="50" cy="50" r="30" style="fill:#000" transform="matrix(.21 0 0 .21 966 903)"/><circle cx="50" cy="50" r="30" style="fill:#000" transform="matrix(.21 0 0 .21 1008 903)"/><circle cx="50" cy="50" r="30" style="fill:#000" transform="matrix(.21 0 0 .21 1050 903)"/><circle cx="50" cy="50" r="30" style="fill:#000" transform="matrix(.21 0 0 .21 210 924)"/><circle cx="50" cy="50" r="30" style="fill:#000" transform="matrix(.21 0 0 .21 252 924)"/><circle cx="50" cy="50" r="30" style="fill:#000" transform="matrix(.21 0 0 .21 273 924)"/><circle cx="50" cy="50" r="30" style="fill:#000" transform="matrix(.21 0 0 .21 315 924)"/><circle cx="50" cy="50" r="30" style="fill:#000" transform="matrix(.21 0 0 .21 357 924)"/><circle cx="50" cy="50" r="30" style="fill:#000" transform="matrix(.21 0 0 .21 378 924)"/><circle cx="50" cy="50" r="30" style="fill:#000" transform="matrix(.21 0 0 .21 399 924)"/><circle cx="50" cy="50" r="30" style="fill:#000" transform="matrix(.21 0 0 .21 420 924)"/><circle cx="50" cy="50" r="30" style="fill:#000" transform="matrix(.21 0 0 .21 441 924)"/><circle cx="50" cy="50" r="30" style="fill:#000" transform="matrix(.21 0 0 .21 462 924)"/><circle cx="50" cy="50" r="30" style="fill:#000" transform="matrix(.21 0 0 .21 483 924)"/><circle cx="50" cy="50" r="30" style="fill:#000" transform="matrix(.21 0 0 .21 504 924)"/><circle cx="50" cy="50" r="30" style="fill:#000" transform="matrix(.21 0 0 .21 546 924)"/><circle cx="50" cy="50" r="30" style="fill:#000" transform="matrix(.21 0 0 .21 588 924)"/><circle cx="50" cy="50" r="30" style="fill:#000" transform="matrix(.21 0 0 .21 651 924)"/><circle cx="50" cy="50" r="30" style="fill:#000" transform="matrix(.21 0 0 .21 693 924)"/><circle cx="50" cy="50" r="30" style="fill:#000" transform="matrix(.21 0 0 .21 777 924)"/><circle cx="50" cy="50" r="30" style="fill:#000" transform="matrix(.21 0 0 .21 819 924)"/><circle cx="50" cy="50" r="30" style="fill:#000" transform="matrix(.21 0 0 .21 861 924)"/><circle cx="50" cy="50" r="30" style="fill:#000" transform="matrix(.21 0 0 .21 882 924)"/><circle cx="50" cy="50" r="30" style="fill:#000" transform="matrix(.21 0 0 .21 924 924)"/><circle cx="50" cy="50" r="30" style="fill:#000" transform="matrix(.21 0 0 .21 966 924)"/><circle cx="50" cy="50" r="30" style="fill:#000" transform="matrix(.21 0 0 .21 1029 924)"/><circle cx="50" cy="50" r="30" style="fill:#000" transform="matrix(.21 0 0 .21 1050 924)"/><circle cx="50" cy="50" r="30" style="fill:#000" transform="matrix(.21 0 0 .21 231 945)"/><circle cx="50" cy="50" r="30" style="fill:#000" transform="matrix(.21 0 0 .21 273 945)"/><circle cx="50" cy="50" r="30" style="fill:#000" transform="matrix(.21 0 0 .21 357 945)"/><circle cx="50" cy="50" r="30" style="fill:#000" transform="matrix(.21 0 0 .21 378 945)"/><circle cx="50" cy="50" r="30" style="fill:#000" transform="matrix(.21 0 0 .21 399 945)"/><circle cx="50" cy="50" r="30" style="fill:#000" transform="matrix(.21 0 0 .21 420 945)"/><circle cx="50" cy="50" r="30" style="fill:#000" transform="matrix(.21 0 0 .21 441 945)"/><circle cx="50" cy="50" r="30" style="fill:#000" transform="matrix(.21 0 0 .21 483 945)"/><circle cx="50" cy="50" r="30" style="fill:#000" transform="matrix(.21 0 0 .21 504 945)"/><circle cx="50" cy="50" r="30" style="fill:#000" transform="matrix(.21 0 0 .21 588 945)"/><circle cx="50" cy="50" r="30" style="fill:#000" transform="matrix(.21 0 0 .21 630 945)"/><circle cx="50" cy="50" r="30" style="fill:#000" transform="matrix(.21 0 0 .21 672 945)"/><circle cx="50" cy="50" r="30" style="fill:#000" transform="matrix(.21 0 0 .21 693 945)"/><circle cx="50" cy="50" r="30" style="fill:#000" transform="matrix(.21 0 0 .21 777 945)"/><circle cx="50" cy="50" r="30" style="fill:#000" transform="matrix(.21 0 0 .21 798 945)"/><circle cx="50" cy="50" r="30" style="fill:#000" transform="matrix(.21 0 0 .21 819 945)"/><circle cx="50" cy="50" r="30" style="fill:#000" transform="matrix(.21 0 0 .21 861 945)"/><circle cx="50" cy="50" r="30" style="fill:#000" transform="matrix(.21 0 0 .21 882 945)"/><circle cx="50" cy="50" r="30" style="fill:#000" transform="matrix(.21 0 0 .21 966 945)"/><circle cx="50" cy="50" r="30" style="fill:#000" transform="matrix(.21 0 0 .21 987 945)"/><circle cx="50" cy="50" r="30" style="fill:#000" transform="matrix(.21 0 0 .21 1029 945)"/><circle cx="50" cy="50" r="30" style="fill:#000" transform="matrix(.21 0 0 .21 1050 945)"/><circle cx="50" cy="50" r="30" style="fill:#000" transform="matrix(.21 0 0 .21 273 966)"/><circle cx="50" cy="50" r="30" style="fill:#000" transform="matrix(.21 0 0 .21 315 966)"/><circle cx="50" cy="50" r="30" style="fill:#000" transform="matrix(.21 0 0 .21 357 966)"/><circle cx="50" cy="50" r="30" style="fill:#000" transform="matrix(.21 0 0 .21 378 966)"/><circle cx="50" cy="50" r="30" style="fill:#000" transform="matrix(.21 0 0 .21 504 966)"/><circle cx="50" cy="50" r="30" style="fill:#000" transform="matrix(.21 0 0 .21 525 966)"/><circle cx="50" cy="50" r="30" style="fill:#000" transform="matrix(.21 0 0 .21 546 966)"/><circle cx="50" cy="50" r="30" style="fill:#000" transform="matrix(.21 0 0 .21 567 966)"/><circle cx="50" cy="50" r="30" style="fill:#000" transform="matrix(.21 0 0 .21 588 966)"/><circle cx="50" cy="50" r="30" style="fill:#000" transform="matrix(.21 0 0 .21 609 966)"/><circle cx="50" cy="50" r="30" style="fill:#000" transform="matrix(.21 0 0 .21 630 966)"/><circle cx="50" cy="50" r="30" style="fill:#000" transform="matrix(.21 0 0 .21 651 966)"/><circle cx="50" cy="50" r="30" style="fill:#000" transform="matrix(.21 0 0 .21 693 966)"/><circle cx="50" cy="50" r="30" style="fill:#000" transform="matrix(.21 0 0 .21 735 966)"/><circle cx="50" cy="50" r="30" style="fill:#000" transform="matrix(.21 0 0 .21 756 966)"/><circle cx="50" cy="50" r="30" style="fill:#000" transform="matrix(.21 0 0 .21 777 966)"/><circle cx="50" cy="50" r="30" style="fill:#000" transform="matrix(.21 0 0 .21 882 966)"/><circle cx="50" cy="50" r="30" style="fill:#000" transform="matrix(.21 0 0 .21 903 966)"/><circle cx="50" cy="50" r="30" style="fill:#000" transform="matrix(.21 0 0 .21 924 966)"/><circle cx="50" cy="50" r="30" style="fill:#000" transform="matrix(.21 0 0 .21 945 966)"/><circle cx="50" cy="50" r="30" style="fill:#000" transform="matrix(.21 0 0 .21 966 966)"/><circle cx="50" cy="50" r="30" style="fill:#000" transform="matrix(.21 0 0 .21 1029 966)"/><circle cx="50" cy="50" r="30" style="fill:#000" transform="matrix(.21 0 0 .21 1050 966)"/><circle cx="50" cy="50" r="30" style="fill:#000" transform="matrix(.21 0 0 .21 210 987)"/><circle cx="50" cy="50" r="30" style="fill:#000" transform="matrix(.21 0 0 .21 231 987)"/><circle cx="50" cy="50" r="30" style="fill:#000" transform="matrix(.21 0 0 .21 273 987)"/><circle cx="50" cy="50" r="30" style="fill:#000" transform="matrix(.21 0 0 .21 294 987)"/><circle cx="50" cy="50" r="30" style="fill:#000" transform="matrix(.21 0 0 .21 315 987)"/><circle cx="50" cy="50" r="30" style="fill:#000" transform="matrix(.21 0 0 .21 357 987)"/><circle cx="50" cy="50" r="30" style="fill:#000" transform="matrix(.21 0 0 .21 462 987)"/><circle cx="50" cy="50" r="30" style="fill:#000" transform="matrix(.21 0 0 .21 504 987)"/><circle cx="50" cy="50" r="30" style="fill:#000" transform="matrix(.21 0 0 .21 567 987)"/><circle cx="50" cy="50" r="30" style="fill:#000" transform="matrix(.21 0 0 .21 609 987)"/><circle cx="50" cy="50" r="30" style="fill:#000" transform="matrix(.21 0 0 .21 651 987)"/><circle cx="50" cy="50" r="30" style="fill:#000" transform="matrix(.21 0 0 .21 819 987)"/><circle cx="50" cy="50" r="30" style="fill:#000" transform="matrix(.21 0 0 .21 861 987)"/><circle cx="50" cy="50" r="30" style="fill:#000" transform="matrix(.21 0 0 .21 966 987)"/><circle cx="50" cy="50" r="30" style="fill:#000" transform="matrix(.21 0 0 .21 1008 987)"/><circle cx="50" cy="50" r="30" style="fill:#000" transform="matrix(.21 0 0 .21 1050 987)"/><circle cx="50" cy="50" r="30" style="fill:#000" transform="matrix(.21 0 0 .21 210 1008)"/><circle cx="50" cy="50" r="30" style="fill:#000" transform="matrix(.21 0 0 .21 231 1008)"/><circle cx="50" cy="50" r="30" style="fill:#000" transform="matrix(.21 0 0 .21 252 1008)"/><circle cx="50" cy="50" r="30" style="fill:#000" transform="matrix(.21 0 0 .21 315 1008)"/><circle cx="50" cy="50" r="30" style="fill:#000" transform="matrix(.21 0 0 .21 336 1008)"/><circle cx="50" cy="50" r="30" style="fill:#000" transform="matrix(.21 0 0 .21 378 1008)"/><circle cx="50" cy="50" r="30" style="fill:#000" transform="matrix(.21 0 0 .21 399 1008)"/><circle cx="50" cy="50" r="30" style="fill:#000" transform="matrix(.21 0 0 .21 441 1008)"/><circle cx="50" cy="50" r="30" style="fill:#000" transform="matrix(.21 0 0 .21 483 1008)"/><circle cx="50" cy="50" r="30" style="fill:#000" transform="matrix(.21 0 0 .21 504 1008)"/><circle cx="50" cy="50" r="30" style="fill:#000" transform="matrix(.21 0 0 .21 525 1008)"/><circle cx="50" cy="50" r="30" style="fill:#000" transform="matrix(.21 0 0 .21 567 1008)"/><circle cx="50" cy="50" r="30" style="fill:#000" transform="matrix(.21 0 0 .21 588 1008)"/><circle cx="50" cy="50" r="30" style="fill:#000" transform="matrix(.21 0 0 .21 630 1008)"/><circle cx="50" cy="50" r="30" style="fill:#000" transform="matrix(.21 0 0 .21 693 1008)"/><circle cx="50" cy="50" r="30" style="fill:#000" transform="matrix(.21 0 0 .21 714 1008)"/><circle cx="50" cy="50" r="30" style="fill:#000" transform="matrix(.21 0 0 .21 756 1008)"/><circle cx="50" cy="50" r="30" style="fill:#000" transform="matrix(.21 0 0 .21 777 1008)"/><circle cx="50" cy="50" r="30" style="fill:#000" transform="matrix(.21 0 0 .21 861 1008)"/><circle cx="50" cy="50" r="30" style="fill:#000" transform="matrix(.21 0 0 .21 882 1008)"/><circle cx="50" cy="50" r="30" style="fill:#000" transform="matrix(.21 0 0 .21 924 1008)"/><circle cx="50" cy="50" r="30" style="fill:#000" transform="matrix(.21 0 0 .21 945 1008)"/><circle cx="50" cy="50" r="30" style="fill:#000" transform="matrix(.21 0 0 .21 966 1008)"/><circle cx="50" cy="50" r="30" style="fill:#000" transform="matrix(.21 0 0 .21 987 1008)"/><circle cx="50" cy="50" r="30" style="fill:#000" transform="matrix(.21 0 0 .21 1008 1008)"/><circle cx="50" cy="50" r="30" style="fill:#000" transform="matrix(.21 0 0 .21 231 1029)"/><circle cx="50" cy="50" r="30" style="fill:#000" transform="matrix(.21 0 0 .21 252 1029)"/><circle cx="50" cy="50" r="30" style="fill:#000" transform="matrix(.21 0 0 .21 273 1029)"/><circle cx="50" cy="50" r="30" style="fill:#000" transform="matrix(.21 0 0 .21 294 1029)"/><circle cx="50" cy="50" r="30" style="fill:#000" transform="matrix(.21 0 0 .21 315 1029)"/><circle cx="50" cy="50" r="30" style="fill:#000" transform="matrix(.21 0 0 .21 336 1029)"/><circle cx="50" cy="50" r="30" style="fill:#000" transform="matrix(.21 0 0 .21 399 1029)"/><circle cx="50" cy="50" r="30" style="fill:#000" transform="matrix(.21 0 0 .21 441 1029)"/><circle cx="50" cy="50" r="30" style="fill:#000" transform="matrix(.21 0 0 .21 462 1029)"/><circle cx="50" cy="50" r="30" style="fill:#000" transform="matrix(.21 0 0 .21 483 1029)"/><circle cx="50" cy="50" r="30" style="fill:#000" transform="matrix(.21 0 0 .21 504 1029)"/><circle cx="50" cy="50" r="30" style="fill:#000" transform="matrix(.21 0 0 .21 525 1029)"/><circle cx="50" cy="50" r="30" style="fill:#000" transform="matrix(.21 0 0 .21 651 1029)"/><circle cx="50" cy="50" r="30" style="fill:#000" transform="matrix(.21 0 0 .21 693 1029)"/><circle cx="50" cy="50" r="30" style="fill:#000" transform="matrix(.21 0 0 .21 714 1029)"/><circle cx="50" cy="50" r="30" style="fill:#000" transform="matrix(.21 0 0 .21 756 1029)"/><circle cx="50" cy="50" r="30" style="fill:#000" transform="matrix(.21 0 0 .21 819 1029)"/><circle cx="50" cy="50" r="30" style="fill:#000" transform="matrix(.21 0 0 .21 840 1029)"/><circle cx="50" cy="50" r="30" style="fill:#000" transform="matrix(.21 0 0 .21 924 1029)"/><circle cx="50" cy="50" r="30" style="fill:#000" transform="matrix(.21 0 0 .21 966 1029)"/><circle cx="50" cy="50" r="30" style="fill:#000" transform="matrix(.21 0 0 .21 987 1029)"/><circle cx="50" cy="50" r="30" style="fill:#000" transform="matrix(.21 0 0 .21 1008 1029)"/><circle cx="50" cy="50" r="30" style="fill:#000" transform="matrix(.21 0 0 .21 252 1050)"/><circle cx="50" cy="50" r="30" style="fill:#000" transform="matrix(.21 0 0 .21 294 1050)"/><circle cx="50" cy="50" r="30" style="fill:#000" transform="matrix(.21 0 0 .21 357 1050)"/><circle cx="50" cy="50" r="30" style="fill:#000" transform="matrix(.21 0 0 .21 399 1050)"/><circle cx="50" cy="50" r="30" style="fill:#000" transform="matrix(.21 0 0 .21 420 1050)"/><circle cx="50" cy="50" r="30" style="fill:#000" transform="matrix(.21 0 0 .21 462 1050)"/><circle cx="50" cy="50" r="30" style="fill:#000" transform="matrix(.21 0 0 .21 483 1050)"/><circle cx="50" cy="50" r="30" style="fill:#000" transform="matrix(.21 0 0 .21 504 1050)"/><circle cx="50" cy="50" r="30" style="fill:#000" transform="matrix(.21 0 0 .21 567 1050)"/><circle cx="50" cy="50" r="30" style="fill:#000" transform="matrix(.21 0 0 .21 588 1050)"/><circle cx="50" cy="50" r="30" style="fill:#000" transform="matrix(.21 0 0 .21 630 1050)"/><circle cx="50" cy="50" r="30" style="fill:#000" transform="matrix(.21 0 0 .21 651 1050)"/><circle cx="50" cy="50" r="30" style="fill:#000" transform="matrix(.21 0 0 .21 672 1050)"/><circle cx="50" cy="50" r="30" style="fill:#000" transform="matrix(.21 0 0 .21 693 1050)"/><circle cx="50" cy="50" r="30" style="fill:#000" transform="matrix(.21 0 0 .21 777 1050)"/><circle cx="50" cy="50" r="30" style="fill:#000" transform="matrix(.21 0 0 .21 798 1050)"/><circle cx="50" cy="50" r="30" style="fill:#000" transform="matrix(.21 0 0 .21 819 1050)"/><circle cx="50" cy="50" r="30" style="fill:#000" transform="matrix(.21 0 0 .21 840 1050)"/><circle cx="50" cy="50" r="30" style="fill:#000" transform="matrix(.21 0 0 .21 882 1050)"/><circle cx="50" cy="50" r="30" style="fill:#000" transform="matrix(.21 0 0 .21 987 1050)"/><circle cx="50" cy="50" r="30" style="fill:#000" transform="matrix(.21 0 0 .21 1008 1050)"/><circle cx="50" cy="50" r="30" style="fill:#000" transform="matrix(.21 0 0 .21 1029 1050)"/><circle cx="50" cy="50" r="30" style="fill:#000" transform="matrix(.21 0 0 .21 1050 1050)"/><g style="fill:#000"><path d="M65.859 15.008H34.141a19.3 19.3 0 0 0-10.979 3.398 19 19 0 0 0-5.848 6.421A18.3 18.3 0 0 0 15 33.758v32.471c0 10.344 8.586 18.76 19.145 18.76L50 84.992l15.855-.004C76.414 84.988 85 76.572 85 66.229V33.758c0-10.339-8.586-18.75-19.141-18.75" style="fill:none" transform="translate(42 42)scale(1.47)"/><path d="M138.813 42.012H92.187c-22.723 0-41.974 15.013-48.129 35.533a49 49 0 0 0-1.479 6.534c-.38 2.46-.579 4.98-.579 7.545v47.733c0 27.37 22.52 49.627 50.187 49.627l23.313.004 23.313-.006c27.665 0 50.187-22.257 50.187-49.627v-47.73c0-27.357-22.52-49.613-50.187-49.613m28.137 97.345c0 15.205-12.621 27.577-28.143 27.577l-23.307.004-23.307-.006c-15.522 0-28.143-12.371-28.143-27.575V91.624c0-4.75 1.232-9.221 3.4-13.128a28 28 0 0 1 8.597-9.44 28.4 28.4 0 0 1 16.139-4.994h46.627c15.516 0 28.137 12.364 28.137 27.562z"/></g><g style="fill:#000"><path d="M65.859 15.008H34.141a19.3 19.3 0 0 0-10.979 3.398 19 19 0 0 0-5.848 6.421A18.3 18.3 0 0 0 15 33.758v32.471c0 10.344 8.586 18.76 19.145 18.76L50 84.992l15.855-.004C76.414 84.988 85 76.572 85 66.229V33.758c0-10.339-8.586-18.75-19.141-18.75" style="fill:none" transform="translate(924 42)scale(1.47)"/><path d="M1020.813 42.012h-46.626c-22.723 0-41.974 15.013-48.129 35.533a49 49 0 0 0-1.479 6.534c-.38 2.46-.579 4.98-.579 7.545v47.733c0 27.37 22.52 49.627 50.187 49.627l23.313.004 23.313-.006c27.665 0 50.187-22.257 50.187-49.627v-47.73c0-27.357-22.52-49.613-50.187-49.613m28.137 97.345c0 15.205-12.621 27.577-28.143 27.577l-23.307.004-23.307-.006c-15.522 0-28.143-12.371-28.143-27.575V91.624c0-4.75 1.232-9.221 3.4-13.128a28 28 0 0 1 8.597-9.44 28.4 28.4 0 0 1 16.139-4.994h46.627c15.516 0 28.137 12.364 28.137 27.562z"/></g><g style="fill:#000"><path d="M65.859 15.008H34.141a19.3 19.3 0 0 0-10.979 3.398 19 19 0 0 0-5.848 6.421A18.3 18.3 0 0 0 15 33.758v32.471c0 10.344 8.586 18.76 19.145 18.76L50 84.992l15.855-.004C76.414 84.988 85 76.572 85 66.229V33.758c0-10.339-8.586-18.75-19.141-18.75" style="fill:none" transform="translate(42 924)scale(1.47)"/><path d="M138.813 924.012H92.187c-22.723 0-41.974 15.013-48.129 35.533a49 49 0 0 0-1.479 6.534c-.38 2.46-.579 4.98-.579 7.545v47.733c0 27.37 22.52 49.627 50.187 49.627l23.313.004 23.313-.006c27.665 0 50.187-22.257 50.187-49.627v-47.73c0-27.357-22.52-49.613-50.187-49.613m28.137 97.345c0 15.205-12.621 27.577-28.143 27.577l-23.307.004-23.307-.006c-15.522 0-28.143-12.371-28.143-27.575v-47.733c0-4.75 1.232-9.221 3.4-13.128a28 28 0 0 1 8.597-9.44 28.4 28.4 0 0 1 16.139-4.994h46.627c15.516 0 28.137 12.364 28.137 27.562z"/></g><g style="fill:#000"><path d="M101.231 147c-9.507 0-17.24-7.58-17.24-16.889v-29.23c0-2.909.756-5.646 2.08-8.04a17.05 17.05 0 0 1 5.267-5.78A17.4 17.4 0 0 1 101.222 84h28.556c9.498 0 17.23 7.571 17.23 16.88v29.23c0 9.309-7.732 16.89-17.23 16.89H101.23z"/></g><g style="fill:#000"><path d="M983.231 147c-9.507 0-17.24-7.58-17.24-16.889v-29.23c0-2.909.756-5.646 2.08-8.04a17.05 17.05 0 0 1 5.267-5.78A17.4 17.4 0 0 1 983.222 84h28.556c9.498 0 17.23 7.571 17.23 16.88v29.23c0 9.309-7.732 16.89-17.23 16.89H983.23z"/></g><g style="fill:#000"><path d="M101.231 1029c-9.507 0-17.24-7.58-17.24-16.889v-29.23c0-2.909.756-5.646 2.08-8.04a17.05 17.05 0 0 1 5.267-5.78 17.4 17.4 0 0 1 9.884-3.061h28.556c9.498 0 17.23 7.571 17.23 16.88v29.23c0 9.309-7.732 16.89-17.23 16.89H101.23z"/></g><svg xmlns="http://www.w3.org/2000/svg" width="16" height="16" fill="currentColor" class="bi bi-envelope-at" transform="translate(399 399)scale(19.6875)" viewBox="0 0 16 16"><path d="M2 2a2 2 0 0 0-2 2v8.01A2 2 0 0 0 2 14h5.5a.5.5 0 0 0 0-1H2a1 1 0 0 1-.966-.741l5.64-3.471L8 9.583l7-4.2V8.5a.5.5 0 0 0 1 0V4a2 2 0 0 0-2-2zm3.708 6.208L1 11.105V5.383zM1 4.217V4a1 1 0 0 1 1-1h12a1 1 0 0 1 1 1v.217l-7 4.2z"/><path d="M14.247 14.269c1.01 0 1.587-.857 1.587-2.025v-.21C15.834 10.43 14.64 9 12.52 9h-.035C10.42 9 9 10.36 9 12.432v.214C9 14.82 10.438 16 12.358 16h.044c.594 0 1.018-.074 1.237-.175v-.73c-.245.11-.673.18-1.18.18h-.044c-1.334 0-2.571-.788-2.571-2.655v-.157c0-1.657 1.058-2.724 2.64-2.724h.04c1.535 0 2.484 1.05 2.484 2.326v.118c0 .975-.324 1.39-.639 1.39-.232 0-.41-.148-.41-.42v-2.19h-.906v.569h-.03c-.084-.298-.368-.63-.954-.63-.778 0-1.259.555-1.259 1.4v.528c0 .892.49 1.434 1.26 1.434.471 0 .896-.227 1.014-.643h.043c.118.42.617.648 1.12.648m-2.453-1.588v-.227c0-.546.227-.791.573-.791.297 0 .572.192.572.708v.367c0 .573-.253.744-.564.744-.354 0-.581-.215-.581-.8Z"/></svg></svg>